<svg xmlns="http://www.w3.org/2000/svg" width="32" height="32" fill="none" viewBox="0 0 32 32">
  <path fill="#0CE2A2" d="M14.4 19.2h-3.2A14.4 14.4 0 0125.6 4.8V8c-6.192 0-11.2 5.008-11.2 11.2zm11.2-4.8v-3.2c-4.416 0-8 3.584-8 8h3.2c0-2.656 2.144-4.8 4.8-4.8zM8 3.2C8 1.424 6.576 0 4.8 0a3.189 3.189 0 00-3.2 3.2c0 1.776 1.424 3.2 3.2 3.2C6.576 6.4 8 4.976 8 3.2zm7.12.8h-3.2A4.784 4.784 0 017.2 8H2.4A2.397 2.397 0 000 10.4v4h9.6v-3.616A7.952 7.952 0 0015.12 4zM27.2 24c1.776 0 3.2-1.424 3.2-3.2 0-1.776-1.424-3.2-3.2-3.2a3.189 3.189 0 00-3.2 3.2c0 1.776 1.424 3.2 3.2 3.2zm2.4 1.6h-4.8a4.784 4.784 0 01-4.72-4h-3.2a7.951 7.951 0 005.52 6.784V32H32v-4c0-1.328-1.072-2.4-2.4-2.4z"/>
</svg>
