<svg xmlns="http://www.w3.org/2000/svg" width="52" height="56" fill="none" viewBox="0 0 52 56">
  <path fill="#252525" stroke="#252525" stroke-width=".4" d="M21.115 7.807a9.427 9.427 0 012.76 6.654v11.338H5.047V14.46a9.426 9.426 0 019.415-9.415 9.426 9.426 0 016.654 2.76zM7.807 48.037a9.426 9.426 0 01-2.761-6.655V30.045h18.166a15.499 15.499 0 00-1.218 16.96 9.444 9.444 0 01-7.534 3.792 9.426 9.426 0 01-6.653-2.76zm27.806-24.161c-2.623 0-5.2.669-7.491 1.938V14.461a13.66 13.66 0 10-27.322 0v26.921a13.634 13.634 0 0023.815 9.095 15.577 15.577 0 1010.998-26.601zm0 26.921A11.337 11.337 0 1146.951 39.46a11.351 11.351 0 01-11.338 11.338z"/>
  <path fill="#252525" d="M41.382 37.536h-3.846V33.69H33.69v3.846h-3.845v3.846h3.845v3.846h3.846v-3.846h3.846v-3.846z"/>
</svg>
