<svg xmlns="http://www.w3.org/2000/svg" width="300" height="230" fill="none" viewBox="0 0 300 230">
  <path fill="#ECEFF2" d="M254.901 172.064c70.49 0 54.931 46.687-22.899 43.888-37.547-1.35-61.029.211-87.055 7.512-73.963 20.745-65.207-15.412-118.067-14.117-27.183.665-43.564-31.874-.02-35.428 14.725-1.202 32.768-2.5 108.309-3.339 75.543-.838 99.566 1.484 119.732 1.484z"/>
  <path fill="#C1FBE6" d="M75.554 144.763s-25.276-38.952-38.322-29.591c-13.046 9.361 29.197 28.192 38.246 42.846l.076-13.255z"/>
  <path fill="#45ECC1" d="M73.182 147.809s-48.142-40.003-60.174-23.541C.976 140.73 59.402 146.715 76.124 160.81l-2.942-13.001z"/>
  <path fill="#C1FBE6" d="M92.33 90.057s-15.945-57.08-35.403-50.649c-19.46 6.432 24.82 45.467 30.26 66.767l5.143-16.118z"/>
  <path fill="#45ECC1" d="M96.877 99.278s-37.94-57.467-55.856-43.97c-17.917 13.5 41.695 38.425 54.81 58.599l1.046-14.629z"/>
  <path fill="#0EAF9C" d="M101.432 87.67S42.544 51.971 32.13 71.84C21.715 91.71 86.26 88.72 106.748 101.338l-5.316-13.669z"/>
  <path fill="#fff" d="M169.317 56.365S174.551-2.67 194.858.095c20.307 2.762-16.086 49.24-17.537 71.173l-8.004-14.903z"/>
  <path fill="#C1FBE6" d="M164.55 65.866s26.787-63.44 46.872-53.445c20.083 9.994-33.963 45.403-43.168 67.635l-3.704-14.19z"/>
  <path fill="#0EAF9C" d="M81.002 161.555s-19.894-26.93-51.058-21.682c-31.163 5.249-35.58 42.375-9.024 46.926 26.555 4.551 50.442-16.558 60.189-10.188 9.746 6.37-.107-15.056-.107-15.056z"/>
  <path fill="#31313B" d="M13.645 170.146a.299.299 0 01-.194-.479c.044-.058 4.599-5.842 13.978-10.002 5.501-2.44 11.568-3.858 18.03-4.213 8.068-.443 16.777.777 25.888 3.628a.297.297 0 11-.178.569c-9.032-2.826-17.663-4.038-25.652-3.602-6.385.348-12.378 1.744-17.813 4.151-9.254 4.096-13.737 9.779-13.78 9.836a.3.3 0 01-.28.112z"/>
  <path fill="#C1FBE6" d="M181.947 151.525s66.731-39.072 76.652-20.566c9.922 18.505-50.516 16.272-69.582 28.262l-7.07-7.696z"/>
  <path fill="#0EAF9C" d="M189.896 154.222s24.697-22.02 53.778-10.632 25.835 48.195-.774 47.218c-26.608-.977-45.439-26.231-56.156-22.043-10.718 4.186 3.152-14.543 3.152-14.543z"/>
  <path fill="#31313B" d="M253.31 176.173a.295.295 0 01-.247-.165c-.031-.064-3.215-6.47-11.338-12.306-4.769-3.428-10.283-5.992-16.39-7.622-7.639-2.039-16.233-2.615-25.542-1.712a.295.295 0 11-.057-.588c9.39-.912 18.061-.328 25.776 1.734 6.179 1.653 11.759 4.253 16.587 7.728 8.23 5.924 11.464 12.441 11.496 12.506a.294.294 0 01-.136.393.258.258 0 01-.149.032z"/>
  <path fill="#fff" d="M144.226 197.411c48.966 0 88.66-39.694 88.66-88.66 0-48.965-39.694-88.66-88.66-88.66-48.965 0-88.66 39.695-88.66 88.66 0 48.966 39.695 88.66 88.66 88.66z"/>
  <path fill="#31313B" d="M144.226 197.674c-12.004 0-23.649-2.351-34.613-6.987-10.588-4.479-20.098-10.891-28.265-19.057-8.167-8.167-14.578-17.677-19.057-28.266-4.637-10.963-6.988-22.609-6.988-34.613 0-12.004 2.352-23.65 6.988-34.613C66.77 63.55 73.182 54.04 81.348 45.873c8.167-8.167 17.677-14.578 28.265-19.057 10.964-4.637 22.609-6.988 34.613-6.988 12.004 0 23.65 2.352 34.613 6.988 10.589 4.479 20.099 10.891 28.266 19.057 8.167 8.167 14.578 17.677 19.056 28.265 4.638 10.964 6.988 22.61 6.988 34.613 0 12.004-2.351 23.65-6.988 34.613-4.478 10.589-10.89 20.099-19.056 28.266-8.167 8.167-17.676 14.578-28.266 19.057-10.963 4.636-22.609 6.987-34.613 6.987zm0-177.319c-11.934 0-23.51 2.338-34.407 6.946-10.526 4.452-19.98 10.827-28.098 18.944-8.118 8.117-14.491 17.571-18.943 28.098-4.61 10.897-6.946 22.474-6.946 34.407 0 11.934 2.337 23.51 6.946 34.407 4.452 10.527 10.826 19.979 18.943 28.098 8.119 8.119 17.572 14.492 28.098 18.944 10.897 4.609 22.474 6.946 34.407 6.946 11.933 0 23.51-2.338 34.407-6.946 10.527-4.452 19.98-10.827 28.098-18.944 8.119-8.119 14.492-17.571 18.944-28.098 4.609-10.897 6.946-22.474 6.946-34.407 0-11.934-2.338-23.51-6.946-34.407-4.452-10.527-10.826-19.98-18.944-28.098-8.118-8.119-17.571-14.492-28.098-18.944-10.897-4.61-22.474-6.946-34.407-6.946z"/>
  <path fill="#45ECC1" d="M144.226 187.964c43.748 0 79.213-35.465 79.213-79.213 0-43.748-35.465-79.212-79.213-79.212-43.748 0-79.213 35.464-79.213 79.212 0 43.748 35.465 79.213 79.213 79.213z"/>
  <path fill="#fff" d="M68.797 150.557s.163-.958 1.484-2.024c.512-.413 1.231-1.786 1.654-1.334.235.25-.98 1.987-.43 1.913.437-.058 2.556-1.538 2.894-.974.196.326-.92.992-1.563 1.403a.092.092 0 00-.033.12.091.091 0 00.122.043c.428-.195 2.395-1.066 2.534-.528.108.415-1.655.959-2.484 1.314a.105.105 0 00-.064.109.106.106 0 00.13.091c.505-.114 2.51-.532 2.653-.04.156.54-1.887.89-2.743 1.043a.063.063 0 00-.051.073l.006.041c.008.047.05.081.098.079.381-.022 1.926-.084 1.864.377-.043.32-1.17.423-2.212.555-1.143.145-3.288.575-3.288.575l-.57-2.836z"/>
  <path fill="#31313A" d="M69.312 153.438a.086.086 0 01-.014-.03l-.57-2.837a.094.094 0 010-.027c.006-.041.182-.998 1.51-2.067.16-.13.343-.359.536-.601.34-.426.66-.827.958-.84a.323.323 0 01.257.113c.135.14-.013.48-.26 1.021-.14.309-.351.774-.287.863.008.008.044.009.054.007.13-.018.462-.195.817-.382.884-.467 1.885-.994 2.15-.559.199.333-.493.808-1.42 1.395l-.166.106c-.01.006-.013.019-.008.029a.02.02 0 00.028.01c.592-.272 2.02-.879 2.48-.66a.27.27 0 01.153.179c.093.358-.717.697-1.87 1.138-.243.093-.473.181-.656.259a.036.036 0 00-.02.036c0 .014.01.021.015.025a.03.03 0 00.028.005c2.232-.504 2.673-.211 2.737.009a.285.285 0 01-.037.238c-.25.4-1.451.663-2.713.887l-.05.009.015.031c0 .012.011.019.022.019.47-.026 1.589-.058 1.87.246.057.061.08.134.07.213-.045.327-.775.432-1.961.577l-.314.039c-1.127.143-3.261.569-3.283.573a.068.068 0 01-.071-.024zm-.441-2.881l.554 2.753c.38-.075 2.207-.433 3.223-.562l.315-.039c.805-.099 1.805-.221 1.836-.455.005-.036-.005-.066-.033-.097-.195-.21-1.067-.238-1.756-.199a.165.165 0 01-.172-.139l-.007-.04a.135.135 0 01.11-.156l.049-.009c.708-.126 2.366-.42 2.616-.821a.145.145 0 00.022-.123c-.08-.275-1.112-.239-2.568.09a.179.179 0 01-.142-.028.174.174 0 01-.074-.126.179.179 0 01.105-.184c.186-.079.417-.168.661-.262.692-.264 1.85-.706 1.781-.968a.127.127 0 00-.075-.085c-.332-.159-1.478.257-2.359.661a.165.165 0 01-.216-.078.165.165 0 01.058-.213l.167-.106c.531-.335 1.518-.96 1.375-1.201-.195-.318-1.257.241-1.96.612-.396.209-.71.376-.864.396-.105.014-.158-.025-.186-.064-.11-.149.03-.48.27-1.007.134-.292.355-.779.287-.863v-.002c-.047-.049-.092-.07-.148-.068-.231.009-.562.422-.851.786-.199.249-.387.482-.56.622-1.208.98-1.434 1.863-1.458 1.975z"/>
  <path fill="#fff" d="M51.594 136.079s5.464-.365 6.676 8.168c.205 1.446.376 5.115 2.083 6.052.563.308 5.517.27 8.62-.043l.66 3.013s-8.924 3.725-12.009 2.21c-4.724-2.322-6.676-12.474-6.676-12.474l.646-6.926z"/>
  <path fill="#31313A" d="M58.947 155.903c3.712.357 10.373-2.363 10.693-2.495a.09.09 0 00.048-.115.088.088 0 00-.114-.047c-.023.009-2.25.924-4.826 1.642-2.366.659-5.515 1.283-7.083.512-4.557-2.24-6.547-11.996-6.627-12.399l.636-6.836c.303-.001 1.487.052 2.766.878 1.366.882 3.123 2.849 3.743 7.217.028.194.055.427.085.695.197 1.716.528 4.59 2.043 5.421.615.338 5.694.268 8.67-.033a.088.088 0 10-.017-.175c-3.146.319-8.03.349-8.569.053-1.437-.788-1.76-3.604-1.954-5.288-.03-.269-.057-.503-.085-.7-.348-2.451-1.296-5.715-3.832-7.346-1.525-.98-2.88-.902-2.936-.898a.087.087 0 00-.081.078l-.646 6.926a.076.076 0 00.002.024c.005.026.501 2.578 1.571 5.381.99 2.596 2.687 5.944 5.153 7.154.378.191.84.301 1.36.351z"/>
  <path fill="#31313B" d="M56.378 199.786v2.054c.1-.005.202-.008.304-.008 2.57 0 4.654 1.673 4.654 3.737H52.026s-1.494-1.841 0-5.783c.39-1.021 4.352 0 4.352 0z"/>
  <path fill="#ECEFF2" d="M54.273 203.53a.07.07 0 01-.063-.1c.379-.821.946-1.229 1.355-1.426a2.3 2.3 0 01.81-.235.071.071 0 01.074.068.07.07 0 01-.066.073c-.014.002-1.353.088-2.044 1.581a.075.075 0 01-.066.039z"/>
  <path fill="#31313B" d="M37.603 199.786v2.054a6.11 6.11 0 00-.303-.009c-2.57 0-4.654 1.674-4.654 3.738h9.308s.985-1.466 0-5.783c-.243-1.066-4.35 0-4.35 0z"/>
  <path fill="#ECEFF2" d="M39.709 203.53a.069.069 0 01-.064-.041c-.694-1.495-2.032-1.579-2.044-1.58a.072.072 0 01-.068-.074c.003-.039.035-.071.074-.067.015.001.366.02.81.235.407.198.975.606 1.355 1.425a.07.07 0 01-.034.094c-.01.007-.02.008-.03.008z"/>
  <path fill="#28475B" d="M56.683 155.291s1.702 18.093.508 45.393h-7.767s-1.011-22.851-2.645-31.316l-3.67 31.316h-8.34c.996-26.612 3.341-43.95 3.341-43.95l18.573-1.443z"/>
  <path fill="#31313B" d="M57.246 164.34c-.046 0-4.6-.048-4.996-4.203l.174-.017c.381 3.999 4.777 4.044 4.822 4.044v.176z"/>
  <path fill="#31313B" d="M46.515 134.606c4.017-.228 7.986 1.867 8.61 6.14 1.743 11.934 2.182 18.521 2.182 18.521s-6.395 4.458-19.643.318c.001-.001-4.398-24.225 8.85-24.979z"/>
  <path fill="#31313B" d="M58.4 140.826s-4.944-9.553-15.42-7.466c-2.776.553-7.72 2.281-9.25 6.198 0 0 1.302 1.181 5.143 3.497l6.144-4.632 7.425.051-1.665 6.763s7.422-.827 7.623-4.411z"/>
  <path fill="#fff" d="M45.778 133.92l.66-.023a1.18 1.18 0 001.135-1.217l-.084-2.418a1.183 1.183 0 00-1.218-1.137l-.66.023a1.181 1.181 0 00-1.135 1.217l.083 2.418c.023.648.57 1.16 1.219 1.137z"/>
  <path fill="#FFD786" d="M47.402 132.126a.06.06 0 01-.077-.036.06.06 0 01.036-.076.06.06 0 01.076.036.06.06 0 01-.035.076zM47.458 131.808a.061.061 0 01-.077-.036.06.06 0 01.112-.041.06.06 0 01-.035.077zM47.172 131.975a.06.06 0 01-.04-.112.06.06 0 01.075.036.06.06 0 01-.035.076zM47.788 131.984a.06.06 0 01-.04-.112.06.06 0 01.075.036.06.06 0 01-.035.076zM47.1 131.608a.06.06 0 11.036-.077.061.061 0 01-.036.077zM47.743 131.64a.06.06 0 11.036-.077.06.06 0 01-.036.077zM47.44 131.358a.06.06 0 01-.077-.036.06.06 0 01.036-.076.06.06 0 01.04.112zM46.755 131.483a.06.06 0 11-.041-.112.06.06 0 01.04.112zM46.812 131.164a.06.06 0 01-.076-.036.06.06 0 01.035-.076.06.06 0 01.077.036.06.06 0 01-.036.076zM46.526 131.332a.06.06 0 01-.076-.036.06.06 0 01.036-.076.06.06 0 01.076.036.06.06 0 01-.036.076zM47.142 131.341a.06.06 0 11-.04-.112.06.06 0 01.04.112zM46.454 130.964a.06.06 0 11-.04-.111.06.06 0 01.076.035.059.059 0 01-.036.076zM47.098 130.996a.06.06 0 01-.076-.036.06.06 0 01.035-.076.06.06 0 01.077.036.06.06 0 01-.036.076zM46.794 130.714a.06.06 0 01-.076-.035.06.06 0 01.112-.041.06.06 0 01-.036.076zM47.648 131.172a.06.06 0 01-.04-.112.06.06 0 01.076.036.06.06 0 01-.036.076zM47.705 130.853a.06.06 0 01-.04-.112.06.06 0 01.076.036.061.061 0 01-.036.076zM47.42 131.021a.06.06 0 11.036-.077.062.062 0 01-.037.077zM48.035 131.03a.06.06 0 01-.076-.036.06.06 0 01.036-.076.06.06 0 01.076.036.06.06 0 01-.036.076zM47.347 130.653a.06.06 0 01-.076-.036.06.06 0 01.035-.076.06.06 0 01.077.036.059.059 0 01-.036.076zM47.766 130.374a.06.06 0 01-.076-.036.06.06 0 01.112-.041.06.06 0 01-.036.077zM47.381 130.312a.06.06 0 01-.076-.035.06.06 0 01.036-.077.06.06 0 01.076.036.06.06 0 01-.036.076zM48.28 131.946a.061.061 0 01-.077-.036.06.06 0 01.112-.041.062.062 0 01-.035.077zM48.337 131.626a.06.06 0 01-.077-.035.06.06 0 01.036-.077.06.06 0 01.076.036.06.06 0 01-.035.076zM48.05 131.794a.06.06 0 01-.077-.035.06.06 0 01.112-.041.058.058 0 01-.035.076zM48.667 131.803a.06.06 0 01-.076-.036.06.06 0 01.036-.076.06.06 0 01.076.036.06.06 0 01-.036.076zM47.978 131.427a.06.06 0 01-.076-.035.06.06 0 01.036-.077.06.06 0 01.076.036.059.059 0 01-.036.076zM48.318 130.801a.06.06 0 01-.077-.036.06.06 0 01.036-.076.06.06 0 01.04.112zM48.319 131.176a.06.06 0 11-.04-.111.06.06 0 01.076.035.06.06 0 01-.036.076zM46.52 132.34a.06.06 0 01-.077-.036.06.06 0 01.036-.076.06.06 0 01.076.036.06.06 0 01-.035.076zM46.576 132.02a.06.06 0 01-.076-.036.06.06 0 01.035-.076.06.06 0 01.076.036.059.059 0 01-.035.076zM46.11 132.301a.06.06 0 01-.077-.036.06.06 0 01.036-.076.06.06 0 01.076.036.06.06 0 01-.036.076zM46.906 132.197a.06.06 0 01-.076-.035.06.06 0 01.035-.077.06.06 0 01.077.036.059.059 0 01-.036.076zM46.219 131.821a.06.06 0 01-.077-.036.06.06 0 01.036-.076.06.06 0 01.076.036c.01.032-.005.066-.035.076zM46.862 131.853a.06.06 0 01-.077-.036.06.06 0 01.036-.076.06.06 0 01.076.036.059.059 0 01-.035.076zM46.558 131.57a.06.06 0 11.035-.076.059.059 0 01-.035.076zM46.7 130.387a.06.06 0 11.036-.077.06.06 0 01-.036.077zM46.758 130.068a.06.06 0 01-.04-.112.06.06 0 01.075.036c.01.031-.005.066-.035.076zM46.471 130.235a.06.06 0 01-.076-.035.06.06 0 01.112-.041c.01.032-.005.066-.035.076zM47.061 130.555a.06.06 0 01-.076-.036.06.06 0 01.035-.076.06.06 0 01.077.036.06.06 0 01-.036.076zM46.151 130.29a.06.06 0 01-.076-.035.06.06 0 01.036-.077.061.061 0 01.076.036.06.06 0 01-.036.076zM47.043 129.9a.06.06 0 01-.076-.035.06.06 0 01.036-.077.06.06 0 01.076.036.058.058 0 01-.036.076zM46.74 129.619a.06.06 0 01-.077-.035.06.06 0 01.112-.041.06.06 0 01-.035.076zM46.159 131.529a.06.06 0 01-.076-.036.06.06 0 01.035-.076.06.06 0 01.076.036.059.059 0 01-.035.076zM45.878 131.067a.06.06 0 01-.04-.112.06.06 0 01.04.112zM45.625 130.547a.06.06 0 01-.04-.112.06.06 0 01.076.036.061.061 0 01-.036.076zM46.209 131.243a.06.06 0 11.035-.077.06.06 0 01-.035.077zM45.669 131.441a.06.06 0 01-.077-.035.06.06 0 01.036-.077.06.06 0 01.076.036.06.06 0 01-.035.076zM46.164 130.898a.06.06 0 01-.076-.035.06.06 0 01.112-.041.058.058 0 01-.036.076zM46.43 130.598a.06.06 0 01-.04-.112.06.06 0 01.075.036.06.06 0 01-.035.076zM47.032 133.094a.06.06 0 01-.076-.036.06.06 0 01.035-.076.06.06 0 01.04.112zM47.713 132.843a.06.06 0 01-.076-.036.06.06 0 01.035-.076.06.06 0 01.077.036.06.06 0 01-.036.076zM46.863 132.574a.06.06 0 01-.076-.036.06.06 0 01.035-.076.06.06 0 01.04.112zM48.147 132.229a.06.06 0 01-.076-.035.06.06 0 01.112-.041.06.06 0 01-.036.076zM47.355 132.645a.06.06 0 01-.077-.035.06.06 0 01.036-.077.06.06 0 01.076.036.06.06 0 01-.035.076zM48.295 132.63a.06.06 0 11-.04-.111.06.06 0 01.075.035c.01.032-.005.066-.035.076zM47.695 132.395a.06.06 0 01-.076-.035.06.06 0 01.035-.077.061.061 0 01.077.036.06.06 0 01-.036.076z"/>
  <g>
    <path fill="#FFD786" d="M45.167 130.206a.06.06 0 11.095.07.059.059 0 01-.083.013.06.06 0 01-.012-.083zM45.296 130.502a.06.06 0 11.013.083.06.06 0 01-.013-.083zM45.441 130.204a.059.059 0 01.083-.013.06.06 0 01.012.083.059.059 0 01-.082.013.06.06 0 01-.013-.083zM44.923 130.538a.059.059 0 01.082-.013.058.058 0 01.013.082.059.059 0 11-.095-.069zM45.704 130.469a.059.059 0 01.083-.013.06.06 0 01-.07.096.06.06 0 01-.013-.083zM45.151 130.801a.06.06 0 11.095.07.06.06 0 01-.082.012.057.057 0 01-.013-.082zM45.56 130.866a.06.06 0 01.082-.013.06.06 0 01-.07.096c-.025-.021-.032-.057-.013-.083zM46.06 130.383a.06.06 0 11.095.07.06.06 0 01-.082.012c-.026-.02-.032-.057-.013-.082zM46.19 130.679a.06.06 0 11.095.07.06.06 0 01-.083.012.058.058 0 01-.012-.082zM46.334 130.38a.06.06 0 11.095.07.059.059 0 01-.082.013.06.06 0 01-.013-.083zM45.817 130.714a.06.06 0 01.083-.012.058.058 0 01.013.082.059.059 0 01-.083.013.06.06 0 01-.013-.083zM46.597 130.646a.06.06 0 11.095.07.06.06 0 01-.082.012.058.058 0 01-.013-.082zM46.045 130.978a.059.059 0 01.082-.013.058.058 0 01.013.082.059.059 0 01-.083.013.06.06 0 01-.012-.082zM46.454 131.043a.06.06 0 01.082-.012.058.058 0 01.013.082.059.059 0 01-.082.013.06.06 0 01-.013-.083zM45.49 131.136a.059.059 0 01.082-.012.058.058 0 01.013.082.059.059 0 01-.083.013.06.06 0 01-.013-.083zM45.619 131.433a.059.059 0 01.083-.013.06.06 0 01.012.083.059.059 0 01-.082.013.06.06 0 01-.013-.083zM45.764 131.135a.059.059 0 01.082-.013.06.06 0 01-.07.096.06.06 0 01-.012-.083zM45.247 131.468a.06.06 0 01.082-.012.058.058 0 01.013.082.06.06 0 11-.095-.07zM46.027 131.4a.06.06 0 11.095.07.059.059 0 01-.083.012.06.06 0 01-.012-.082zM45.834 131.865a.059.059 0 01.082-.012.058.058 0 01.013.082.059.059 0 01-.083.013.06.06 0 01-.012-.083zM46.19 131.704a.059.059 0 01.082-.013.06.06 0 01-.07.096.06.06 0 01-.012-.083zM44.535 130.843a.059.059 0 01.083-.013.058.058 0 01.012.082.059.059 0 01-.082.013.058.058 0 01-.013-.082zM44.665 131.14a.059.059 0 01.083-.013.06.06 0 01.012.083.059.059 0 01-.082.012.058.058 0 01-.013-.082zM44.81 130.841a.06.06 0 01.082-.012.058.058 0 01.013.082.059.059 0 01-.083.013.06.06 0 01-.012-.083zM44.292 131.176a.059.059 0 01.083-.013.058.058 0 01.013.082.059.059 0 01-.083.013.057.057 0 01-.013-.082zM45.073 131.107a.06.06 0 11.013.083.06.06 0 01-.013-.083zM45.139 131.818a.059.059 0 11.095.069.059.059 0 01-.083.013.057.057 0 01-.012-.082zM44.929 131.503a.06.06 0 11.095.07.06.06 0 01-.082.012.058.058 0 01-.013-.082zM45.782 129.539a.059.059 0 11.095.069.059.059 0 01-.083.013.058.058 0 01-.012-.082zM45.911 129.835a.06.06 0 01.083-.013.06.06 0 01.013.083.059.059 0 01-.083.013.06.06 0 01-.013-.083zM46.144 129.343a.06.06 0 01.082-.012.058.058 0 01.013.082.06.06 0 11-.095-.07zM45.538 129.873a.059.059 0 01.082-.013.06.06 0 01-.07.096c-.025-.021-.031-.058-.012-.083zM46.32 129.803a.06.06 0 01.082-.013.06.06 0 01.012.083.059.059 0 01-.082.013.06.06 0 01-.013-.083zM45.766 130.133a.06.06 0 11.095.07.059.059 0 01-.082.013.06.06 0 01-.013-.083zM46.175 130.2a.06.06 0 11.095.07.06.06 0 01-.082.012.058.058 0 01-.013-.082zM46.713 131.264a.06.06 0 01.083-.012.058.058 0 01.012.082.059.059 0 01-.082.013.06.06 0 01-.013-.083zM46.843 131.56a.06.06 0 01.082-.012.058.058 0 01.013.082.059.059 0 01-.083.013.06.06 0 01-.012-.083zM46.987 131.263a.059.059 0 01.083-.013.06.06 0 01.013.083.059.059 0 01-.083.013.061.061 0 01-.013-.083zM46.32 131.325a.06.06 0 01.083-.012.058.058 0 01.013.082.059.059 0 01-.083.013.06.06 0 01-.013-.083zM47.224 131.04a.06.06 0 11.095.07.06.06 0 01-.083.012.058.058 0 01-.012-.082zM46.698 131.859a.06.06 0 11.095.07.059.059 0 01-.083.013.06.06 0 01-.012-.083zM47.107 131.925a.06.06 0 01.083-.012.058.058 0 01.012.082.059.059 0 01-.082.013.06.06 0 01-.013-.083zM46.53 130.013a.059.059 0 01.083-.013.06.06 0 01-.07.096.06.06 0 01-.013-.083zM47.02 130.243a.059.059 0 01.083-.013.06.06 0 01.013.083.059.059 0 01-.083.012.058.058 0 01-.013-.082zM47.52 130.535a.06.06 0 11.095.07.06.06 0 01-.082.012.06.06 0 01-.013-.082zM46.648 130.279a.059.059 0 01.083-.013.058.058 0 01.012.082.059.059 0 01-.082.013.057.057 0 01-.013-.082zM46.987 129.813a.06.06 0 01.083-.012.058.058 0 01.013.082.06.06 0 11-.095-.07zM46.876 130.54a.06.06 0 01.082-.012.058.058 0 01.013.082.06.06 0 11-.095-.07zM46.822 130.939a.059.059 0 01.083-.013.06.06 0 01.012.083.06.06 0 01-.082.012.058.058 0 01-.013-.082zM44.937 129.196a.059.059 0 01.082-.013.058.058 0 01.013.082.059.059 0 01-.083.013.059.059 0 01-.012-.082zM44.509 129.78a.06.06 0 01.082-.012.058.058 0 01.013.082.059.059 0 01-.083.013.06.06 0 01-.012-.083zM45.365 129.534a.059.059 0 01.083-.013.06.06 0 01-.07.096.06.06 0 01-.013-.083zM44.488 130.532a.059.059 0 01.083-.012.058.058 0 01.013.082.06.06 0 11-.095-.07zM44.916 129.747a.06.06 0 01.083-.012.058.058 0 01.013.082.059.059 0 01-.083.013.06.06 0 01-.013-.083zM44.143 130.28a.059.059 0 01.082-.012.058.058 0 01.013.082.059.059 0 01-.083.013.06.06 0 01-.012-.083zM44.773 130.144a.06.06 0 11.095.07.06.06 0 01-.082.012.058.058 0 01-.013-.082z"/>
  </g>
  <g>
    <path fill="#31313B" d="M45.736 134.008c-.32 0-.625-.12-.861-.341a1.258 1.258 0 01-.403-.881l-.084-2.418a1.266 1.266 0 011.22-1.308l.66-.023c.337-.012.658.109.906.34.248.232.392.544.403.881l.084 2.418a1.266 1.266 0 01-1.221 1.308l-.66.023-.044.001zm.577-4.796l-.038.001-.66.023a1.092 1.092 0 00-1.052 1.127l.084 2.418c.01.29.133.559.347.759.213.199.49.303.78.293l.66-.023a1.09 1.09 0 001.051-1.127l-.083-2.418a1.084 1.084 0 00-.347-.758 1.079 1.079 0 00-.742-.295z"/>
  </g>
  <g>
    <path fill="#fff" d="M43.56 128.824c1.129 2.128 3.29 3.184 4.827 2.358 1.538-.825 1.646-3.574.741-5.347-1.094-2.146-3.29-3.184-4.827-2.358-1.537.825-1.869 3.219-.74 5.347z"/>
  </g>
  <g>
    <path fill="#31313B" d="M47.245 131.552c-.292 0-.593-.047-.902-.14-1.127-.343-2.197-1.294-2.86-2.546-1.15-2.167-.8-4.62.776-5.466.627-.336 1.366-.386 2.14-.143 1.127.353 2.176 1.302 2.808 2.54.934 1.832.798 4.618-.778 5.464a2.495 2.495 0 01-1.184.291zm-1.787-8.272c-.4 0-.776.091-1.115.274-1.493.802-1.809 3.147-.705 5.23.643 1.21 1.673 2.13 2.756 2.461.708.214 1.382.167 1.953-.139 1.223-.657 1.797-3.085.704-5.231-.61-1.197-1.622-2.113-2.704-2.452a2.963 2.963 0 00-.89-.143z"/>
  </g>
  <g>
    <path fill="#31313B" d="M45.342 124.355s.886 1.012.245 1.517c-.64.506-1.19-.187-1.19-.187s1.442 1.314.574 2.023c-.868.709-1.748-.959-1.748-.959l.148-1.663 1.97-.731z"/>
  </g>
  <g>
    <path fill="#31313B" d="M45.294 125.074s2.367.772 3.947.241c.99-.333 2.278-3.65-4.326-3.865-4.351-.141-4.099 3.006-4.099 3.006s-1.971 2.981 1.671 4.554c0 0-.887 1.286.97.672 0 0 .14.983.77.145 0 0-.218-.211-.125-1.408.046-.562 1.192-3.345 1.192-3.345z"/>
  </g>
  <g>
    <path fill="#31313B" d="M46.727 126.629a.07.07 0 00-.004-.133c-.022-.007-.512-.209-.883.282a.072.072 0 00.011.099c.03.024.07.014.098-.012.301-.245.716-.24.733-.235.016.006.03.004.045-.001z"/>
  </g>
  <g>
    <path fill="#31313B" d="M48.797 126.025a.07.07 0 00.043-.045.07.07 0 00-.047-.088c-.022-.006-.512-.208-.883.282a.072.072 0 00.011.099c.03.024.069.014.098-.011.301-.245.715-.24.733-.235.015.005.03.003.045-.002z"/>
  </g>
  <g>
    <path fill="#31313B" d="M46.244 127.448c.009.167.116.298.236.292.121-.006.211-.149.202-.316-.01-.168-.115-.299-.236-.293-.12.007-.21.149-.202.317z"/>
  </g>
  <g>
    <path fill="#31313B" d="M48.231 126.983c.01.168.116.299.236.293.121-.007.211-.149.203-.317-.01-.168-.116-.298-.237-.292-.122.006-.212.147-.202.316z"/>
  </g>
  <g>
    <path fill="#31313B" d="M47.794 128.468a.06.06 0 01-.06-.05.062.062 0 01.049-.074c.294-.06.409-.299.41-.301a.061.061 0 01.083-.031.063.063 0 01.03.083.72.72 0 01-.5.371c-.004.002-.008.002-.012.002z"/>
  </g>
  <g>
    <path fill="#fff" d="M44.167 128.875c.383.187.803.111.938-.17.134-.281-.136-.689-.45-.849-.38-.193-.803-.111-.938.17-.135.281.066.661.45.849z"/>
  </g>
  <g>
    <path fill="#31313B" d="M37.273 164l.024-.217c3.124-.182 4.842-3.538 4.86-3.571l.167.106c-.018.035-1.82 3.494-5.051 3.682z"/>
  </g>
  <g>
    <path fill="#31313B" d="M47.009 129.144s1.104.152 1.66-.342c0 0 .124.912-.647.988-.773.075-1.013-.646-1.013-.646z"/>
  </g>
  <g>
    <path fill="#fff" d="M35.196 137.559s-4.822 9.451-3.11 16.914c1.398 6.087 3.441 9.788 3.441 9.788l3.692-.886s-2.757-10.614-2.06-12.387c.694-1.774 3.7-9.693 3.7-9.693l-5.663-3.736z"/>
    <path fill="#111" d="M35.469 164.292c-.005-.008-.526-.961-1.207-2.638a47.256 47.256 0 01-2.24-7.166c-.884-3.87.01-8.276.916-11.29.98-3.263 2.186-5.645 2.198-5.669a.072.072 0 01.043-.035.07.07 0 01.055.009l5.664 3.736a.066.066 0 01.025.08c-.03.078-3.014 7.939-3.7 9.694-.68 1.733 2.036 12.24 2.063 12.346a.069.069 0 01-.008.052.066.066 0 01-.042.03l-3.692.886-.01.001a.073.073 0 01-.065-.036zm1.627-13.33c.659-1.68 3.423-8.962 3.681-9.642l-5.556-3.663c-.202.409-1.27 2.633-2.156 5.579-1.633 5.433-1.398 9.101-.913 11.221 1.279 5.603 3.175 9.28 3.41 9.725l3.575-.858c-.252-.982-2.714-10.643-2.04-12.362z"/>
    <path fill="#fff" d="M40.275 165.656a133.361 133.361 0 00-1.302-3.266l-4.437-.518.943 2.262c.034.767.347 1.801.347 1.801s1.462 2.54 1.466 3.069c.006.903.596.908.784.487v.002c.258 1.043.854-.232.854-.232s.486.754.721.11c.139-.38-.137-2.156-.265-2.905.134-.11.406.704.469.98.183.813.446 1.151.7.903.187-.183-.02-2.02-.28-2.693z"/>
    <path fill="#111" d="M40.406 168.497a.309.309 0 00.193-.098c.232-.226-.017-2.131-.261-2.767a130.782 130.782 0 00-1.304-3.267.066.066 0 00-.088-.036.066.066 0 00-.035.088c.006.014.596 1.427 1.3 3.263.29.756.426 2.494.294 2.623-.079.077-.132.061-.148.056-.058-.016-.26-.134-.438-.926-.186-.832-.504-1.14-.517-1.152a.068.068 0 00-.095.002.069.069 0 00.003.096c.002.002.3.297.479 1.083.095.425.265.947.53 1.026a.233.233 0 00.087.009zM37.748 169.857c.258-.02.473-.353.469-.733-.007-.61-.286-1.593-.405-2.012a4.546 4.546 0 01-.055-.201.071.071 0 00-.074-.059.067.067 0 00-.06.072c.002.022.016.072.06.224.118.415.394 1.385.4 1.977.004.331-.183.589-.346.598-.143.008-.317-.178-.377-.727-.062-.569-.468-1.27-.861-1.947-.235-.404-.456-.786-.609-1.141-.405-.941-.373-2.124-.373-2.137a.068.068 0 00-.065-.07.068.068 0 00-.07.065c-.001.05-.033 1.226.385 2.194.156.361.39.765.616 1.155.387.665.786 1.352.845 1.895.087.786.392.854.519.846-.003.001-.002.001.001.001z"/>
    <path fill="#111" d="M38.392 169.997c.32-.024.65-.583.634-1.376-.011-.598-.3-1.682-.313-1.728a.067.067 0 00-.083-.047.067.067 0 00-.047.083c.003.011.297 1.114.309 1.696.014.742-.287 1.222-.51 1.239-.118.008-.208-.134-.24-.379a.07.07 0 00-.075-.059.07.07 0 00-.058.075c.06.482.308.502.383.496z"/>
    <path fill="#111" d="M39.411 169.699c.003 0 .006 0 .009-.002.126-.014.225-.115.292-.303.24-.656-.27-2.982-.292-3.08a.066.066 0 00-.08-.051.066.066 0 00-.05.08c.004.024.521 2.386.296 3.005-.05.135-.11.207-.181.216H39.4c-.153.011-.356-.247-.416-.339a.068.068 0 00-.093-.021.067.067 0 00-.02.093c.03.046.28.422.54.402z"/>
  </g>
  <g>
    <path fill="#31313B" d="M32.701 140.765s4.482 4.684 9.954 4.935c3.853.176-1.736-6.61-1.736-6.61s-.716-5.006-2.27-4.289c-4.513 2.085-5.948 5.964-5.948 5.964z"/>
  </g>
  <g>
    <path fill="#fff" d="M79.845 139.973c-1.714 1.286-.792 11.156-1.407 14.76-.615 3.603-.241 13.031-.241 13.031l1.955-1.538 5.832-12.874-3.95-12.95c0-.001-1.614-.861-2.19-.429z"/>
    <path fill="#31313B" d="M78.1 167.97l-.007-.203c-.004-.094-.368-9.481.243-13.053.227-1.326.244-3.501.262-5.804.032-4.023.065-8.181 1.186-9.022l.062.082-.062-.082c.61-.459 2.129.329 2.3.419l.037.02 3.975 13.028-5.859 12.933-2.137 1.682zm2.193-28.016c-.156 0-.29.029-.386.102-1.038.778-1.072 5.07-1.102 8.856-.018 2.313-.035 4.496-.264 5.837-.556 3.259-.297 11.412-.248 12.807l1.775-1.397 5.805-12.816-3.926-12.871c-.357-.184-1.128-.518-1.654-.518z"/>
    <path fill="#2C3A64" d="M88.765 125.37s3.56-.486 4.706 2.116c1.146 2.603-.264 4.092-.264 4.092s2.513-.74 3.814 1.334c1.3 2.072-.537 3.439-.537 3.439s3.332 1.676.977 3.131c-2.357 1.454-15.632-.573-16.381-2.867-.75-2.293 2.205-4.445 2.205-4.445s-2.05-9.534 5.48-6.8z"/>
    <path fill="#31313B" d="M93.933 137.443c-.502-.08-.79-.825-1.256-.886-7.902-1.044-10.71.446-10.992 1.304-2.034 6.21-1.736 6.996-.871 8.479 0 0-.018 5.031 1.143 5.937 2.286 1.783 11.082 2.31 15.038-1.4 0 0-.547-4.949-.686-9.135 0 0-.453-3.993-2.376-4.299z"/>
    <path fill="#fff" d="M84.24 136.529s-.147 2.978 2.2 3.905c2.348.928 5.197-2.093 5.707-4.027 0 0-4.411-.221-7.906.122zM84.053 174.619l3.79 24.921h4.102l1.423-23.848-9.315-1.073z"/>
    <path fill="#31313B" d="M84.23 136.529a.083.083 0 01-.08-.074.081.081 0 01.074-.09c.055-.005 5.443-.539 8.242.002a.083.083 0 01.065.097.081.081 0 01-.097.065c-2.776-.536-8.14-.007-8.193-.002-.004.002-.007.002-.01.002z"/>
    <path fill="#060633" d="M91.945 199.622h-4.1a.082.082 0 01-.081-.07l-3.793-24.92a.084.084 0 01.022-.07.077.077 0 01.069-.024l9.315 1.072a.083.083 0 01.073.087l-1.424 23.848a.082.082 0 01-.08.077zm-4.03-.165h3.951l1.415-23.693-9.132-1.051 3.766 24.744z"/>
    <path fill="#31313B" d="M87.752 199.539l.093 1.926a5.467 5.467 0 00-.287-.008c-2.423 0-4.387 1.569-4.387 3.505H91.945l.079-5.424h-4.272v.001z"/>
    <path fill="#ECEFF2" d="M89.829 203.052a.065.065 0 01-.06-.038c-.653-1.402-1.915-1.481-1.928-1.481a.065.065 0 01-.062-.07c.001-.037.034-.062.07-.062.014.001 1.354.083 2.04 1.557a.066.066 0 01-.031.088.081.081 0 01-.03.006z"/>
    <path fill="#fff" d="M91.377 174.619l3.791 24.921h4.102l1.423-23.848-9.316-1.073z"/>
    <path fill="#060633" d="M99.27 199.622h-4.1a.082.082 0 01-.082-.07l-3.792-24.92a.084.084 0 01.021-.07.077.077 0 01.07-.024l9.315 1.072a.082.082 0 01.072.087l-1.423 23.848a.082.082 0 01-.081.077zm-4.03-.165h3.951l1.414-23.693-9.131-1.051 3.766 24.744z"/>
    <path fill="#31313B" d="M95.077 199.539l.093 1.926a5.463 5.463 0 00-.288-.008c-2.422 0-4.387 1.569-4.387 3.505H99.27l.078-5.424h-4.271v.001z"/>
    <path fill="#ECEFF2" d="M97.153 203.052a.065.065 0 01-.06-.038c-.653-1.402-1.914-1.481-1.927-1.481a.065.065 0 01-.062-.07c0-.037.034-.062.07-.062.013.001 1.354.083 2.04 1.557a.066.066 0 01-.032.088.082.082 0 01-.029.006z"/>
    <path fill="#83AAC6" d="M81.957 152.277s-6.973 12.985-7.962 34.964c0 0 5.936 5.993 13.96 2.847 8.024-3.146 14.729 4.122 21.435 1.977 6.704-2.145 7.804-6.79 7.804-6.79s-11.926-28.175-20.197-34.398c-.001 0-7.077 4.736-15.04 1.4z"/>
    <path fill="#fff" d="M97.394 182.085c-.785 0-1.587-.071-2.4-.212-2.031-.353-3.76-1.714-5.002-3.935a13.981 13.981 0 01-1.258-3.143 9.053 9.053 0 01-4.78-.975c-1.393-.709-2.695-1.795-3.868-3.228-1.993-2.436-2.938-5.068-2.948-5.094l.155-.055c.01.027.946 2.636 2.922 5.048 1.16 1.414 2.442 2.485 3.816 3.183a8.902 8.902 0 004.66.958 17.167 17.167 0 01-.525-3.477c-.08-1.683.105-3.272.52-4.475.451-1.308 1.15-2.125 2.022-2.363 1.027-.283 2.065.064 2.92.978 1.349 1.439 1.83 3.777 1.17 5.684-.69 1.992-2.542 3.314-5.211 3.722-.23.035-.459.062-.686.081.303 1.114.72 2.156 1.234 3.076 1.215 2.176 2.904 3.508 4.886 3.852 1.869.324 3.67.272 5.357-.156 1.707-.435 3.211-1.234 4.469-2.376 1.353-1.229 2.366-2.808 3.011-4.693.694-2.024.946-4.361.749-6.943l.164-.012c.198 2.604-.056 4.962-.756 7.008-.655 1.912-1.684 3.514-3.057 4.762-1.278 1.161-2.805 1.973-4.54 2.414a12.2 12.2 0 01-3.024.371zm-5.99-17.697c-.217 0-.435.029-.653.089-1.618.443-2.59 3.124-2.42 6.67.057 1.19.237 2.366.527 3.474.233-.02.467-.046.703-.083 3.34-.51 4.606-2.245 5.079-3.612.715-2.065-.03-4.339-1.133-5.518-.627-.671-1.356-1.02-2.103-1.02zM96.41 163.58c-.436 0-1.022-.276-1.709-1.281-.708-1.034-.906-2.096-.59-3.158.282-.947.935-1.797 1.713-2.521a4.516 4.516 0 00-1.79-.717c-3.44-.611-4.415 1.572-5.355 3.682-.68 1.524-1.383 3.099-3.022 3.489-1.51.36-2.712-.171-3.214-1.419-.548-1.359-.103-3.437 1.569-4.42l.084.142c-1.596.939-2.022 2.92-1.5 4.217.47 1.166 1.6 1.659 3.025 1.32 1.56-.371 2.214-1.84 2.908-3.396.967-2.169 1.967-4.411 5.535-3.777a4.663 4.663 0 011.887.763c1.737-1.565 4.006-2.518 4.146-2.576l.063.152c-.012.005-1.265.527-2.612 1.418-.462.306-.972.68-1.453 1.109 1.202.919 1.76 2.353 1.869 3.648.132 1.596-.376 2.968-1.209 3.264a1.022 1.022 0 01-.345.061zm-.444-6.857c-.754.697-1.42 1.535-1.697 2.465-.301 1.012-.11 2.028.568 3.019.645.944 1.306 1.355 1.859 1.158.75-.267 1.223-1.597 1.099-3.095-.105-1.261-.65-2.659-1.829-3.547zM88.628 189.92c-.16-2.454-.976-4.661-2.428-6.558-1.164-1.52-2.736-2.846-4.672-3.941-3.303-1.869-6.565-2.427-6.598-2.433l.027-.163c.033.005 3.318.567 6.647 2.45 1.957 1.106 3.546 2.448 4.724 3.985 1.474 1.924 2.302 4.161 2.463 6.65l-.163.01zM101.5 191.455l-.163-.029c.39-2.193 1.287-4.283 2.664-6.213 1.1-1.542 2.508-2.986 4.185-4.291 2.854-2.22 5.535-3.283 5.561-3.294l.06.154c-.027.01-2.69 1.067-5.524 3.274-1.663 1.294-3.06 2.726-4.15 4.255-1.36 1.909-2.247 3.977-2.633 6.144zM109.461 192.106l-.144-.082c.02-.035 1.216-2.128 1.995-4.246-.769-.841-1.255-1.811-1.435-2.656-.166-.782-.059-1.404.293-1.706.185-.159.529-.302 1.116-.083.349.131.593.385.726.758.269.75.098 1.975-.51 3.651a6.202 6.202 0 002.723 1.691l-.047.158a6.358 6.358 0 01-2.738-1.679c-.121.326-.258.666-.41 1.023-.728 1.703-1.562 3.157-1.569 3.171zm1.273-8.721a.69.69 0 00-.458.155c-.299.258-.388.836-.237 1.548.169.799.622 1.714 1.336 2.516.476-1.334.769-2.657.482-3.458-.118-.329-.324-.545-.629-.659a1.443 1.443 0 00-.494-.102zM88.522 137.155h-.628a1.111 1.111 0 01-1.107-1.108v-2.263c0-.608.498-1.107 1.107-1.107h.628c.609 0 1.108.498 1.108 1.107v2.263c0 .61-.5 1.108-1.108 1.108z"/>
    <path fill="#31313B" d="M89.63 136.406a.082.082 0 01-.082-.082v-2.54c0-.565-.46-1.025-1.026-1.025h-.627c-.566 0-1.026.46-1.026 1.025v2.679c0 .046-.028.158-.073.158-.046 0-.061-.108-.061-.154l-.03-2.683a1.19 1.19 0 011.19-1.189h.627c.656 0 1.19.533 1.19 1.189v2.54a.082.082 0 01-.082.082z"/>
    <path fill="#fff" d="M90.442 132.307c-.993 2.031-2.996 3.091-4.471 2.368-1.475-.723-1.666-3.297-.871-4.988.96-2.047 2.995-3.091 4.47-2.368 1.476.724 1.866 2.956.872 4.988z"/>
    <path fill="#060633" d="M86.971 134.986a2.33 2.33 0 01-1.037-.237c-1.512-.742-1.73-3.349-.91-5.097.553-1.178 1.51-2.102 2.558-2.47.722-.254 1.422-.231 2.024.063 1.513.742 1.921 3.029.91 5.099-.583 1.193-1.558 2.119-2.607 2.479a2.926 2.926 0 01-.938.163zm1.588-7.814c-.297 0-.607.054-.922.166-1.008.355-1.929 1.245-2.464 2.385-.387.825-.54 1.875-.408 2.81.143 1.012.584 1.746 1.242 2.069.547.269 1.186.291 1.848.065 1.009-.346 1.948-1.24 2.512-2.395.972-1.987.599-4.175-.833-4.878a2.175 2.175 0 00-.975-.222z"/>
    <path fill="#060633" d="M87.388 130.354a.071.071 0 01-.042-.042.066.066 0 01.04-.084c.02-.007.476-.212.842.235.023.028.02.07-.008.093-.028.024-.064.015-.093-.008a1.119 1.119 0 00-.698-.196.07.07 0 01-.041.002zM85.419 129.856a.071.071 0 01-.042-.042.066.066 0 01.04-.084c.02-.007.475-.212.841.235.023.028.02.07-.007.093-.028.024-.064.015-.093-.008a1.119 1.119 0 00-.699-.196.048.048 0 01-.04.002zM87.87 131.105c-.005.157-.1.283-.214.281-.115-.003-.204-.132-.201-.29.004-.158.1-.283.213-.281.115.003.205.132.201.29zM85.983 130.734c-.004.157-.1.283-.214.281-.114-.003-.203-.133-.2-.29.003-.158.098-.283.213-.281.114.003.204.132.2.29zM86.441 132.112l-.01-.001a.675.675 0 01-.481-.332.057.057 0 01.025-.078.058.058 0 01.079.025c.005.01.118.224.396.268a.059.059 0 01.048.067.057.057 0 01-.057.051z"/>
    <path fill="#2C3A64" d="M86.566 126.517s-.273 4.097 3.724 5.472c3.997 1.375 0-5.472 0-5.472h-3.724z"/>
    <path fill="#fff" d="M89.873 132.374c-.355.188-.753.131-.89-.128-.135-.259.106-.649.397-.81.352-.194.753-.13.89.129.135.258-.042.621-.397.809z"/>
    <path fill="#31313B" d="M84.224 136.364s-3.913.167-5.443 3.982c0 0 1.141 2.851 4.225 2.744 1.974-.068 1.218-6.726 1.218-6.726zM87.25 132.905s-.075.145-.23.286a.975.975 0 01-.846.251.726.726 0 01-.437-.217c-.235-.258-.17-.636-.17-.636s1 .357 1.682.316z"/>
    <path fill="#EF866C" d="M87.02 133.192a.975.975 0 01-.846.251.732.732 0 01-.437-.217c.174-.151.552-.36 1.284-.034z"/>
    <g>
      <path fill="#fff" d="M75.358 152.279s8.695-.597 11.196-2.002c2.502-1.405 8.298-5.745 8.298-5.745l-.42-2.009c.686-1.471-.93-2.963-2.357-2.177a21.055 21.055 0 00-2.9 1.929c-3.71 2.935-5.922 4.274-8.541 5.176-2.62.901-6.047 2.123-6.047 2.123l.771 2.705z"/>
      <path fill="#31313B" d="M75.363 152.343l-.008-.126c.086-.006 8.709-.612 11.169-1.995 2.382-1.339 7.592-5.24 8.008-5.552l-.069-2.359.007-.014c.343-.737.05-1.395-.34-1.764a1.547 1.547 0 00-1.816-.245 20.88 20.88 0 00-3.1 2.036c-3.704 2.928-5.944 4.285-8.561 5.186-2.591.891-6.013 2.11-6.047 2.123l-.042-.119c.035-.013 3.457-1.233 6.048-2.124 2.602-.895 4.833-2.247 8.524-5.166a21.215 21.215 0 013.12-2.048 1.67 1.67 0 011.96.265c.527.498.673 1.24.374 1.894l.07 2.395-.025.019c-.056.042-5.573 4.189-8.049 5.581-2.485 1.399-11.136 2.007-11.223 2.013z"/>
      <path fill="#fff" d="M74.203 149.511a.583.583 0 00.328.07l.075.051c.23.738.527 1.701.806 2.612.006.019.01.038.017.057l-.014.004c-.434.133-1.75.538-2.523.813-.854.304-1.76.659-1.936.438-.256-.319.95-.866 1.25-.997a.071.071 0 00.04-.095l-.013-.033a.06.06 0 00-.073-.035c-.721.216-2.437.74-2.561.278-.112-.419 1.588-.875 2.034-.987.05-.012.083-.063.066-.112a.103.103 0 00-.1-.066c-.792.056-2.381.329-2.487-.022-.136-.453 1.756-.562 2.17-.58a.075.075 0 00.074-.08.086.086 0 00-.08-.077c-.676-.059-1.826-.125-1.823-.443.002-.55 2.285-.263 2.645-.387.452-.158-1.258-.982-1.192-1.258.12-.499 1.286.247 1.864.357a4.905 4.905 0 011.433.492z"/>
      <path fill="#31313B" d="M70.985 148.462a.26.26 0 00-.145.183c-.035.155.226.352.658.661.124.088.277.198.4.297.123.099.213.188.208.234-.002.011-.03.023-.037.025-.107.039-.441.035-.794.031-.885-.009-1.887-.015-1.89.41-.002.324.741.412 1.713.492l.173.014c.01.001.019.009.019.019s-.006.018-.017.019c-.572.025-1.935.121-2.187.461a.213.213 0 00-.036.191c.091.302.862.245 1.939.129.227-.024.442-.047.617-.059.013 0 .026.006.03.019a.026.026 0 010 .024c0 .004-.005.011-.018.014-.827.208-2.2.62-2.081 1.058a.254.254 0 00.136.163c.37.202 1.405-.065 2.468-.384l.033-.01.012.027c.003.009 0 .019-.01.023-.369.16-1.237.566-1.314.9a.216.216 0 00.042.186c.181.225.785.024 1.756-.324l.255-.092a95.355 95.355 0 012.45-.834c.076-.024.235-.028.237-.03-.006-.019-.194-.097-.2-.096-.396.121-1.757.572-2.537.847l-.257.092c-.657.236-1.476.53-1.605.368a.092.092 0 01-.022-.075l.003-.01c.053-.231.705-.588 1.247-.822a.13.13 0 00.07-.169l-.012-.033a.13.13 0 00-.155-.074l-.04.013c-.596.179-1.993.599-2.365.395a.128.128 0 01-.072-.082c-.063-.234.74-.604 1.998-.919a.15.15 0 00.096-.076.146.146 0 000-.122.17.17 0 00-.164-.097c-.176.013-.392.036-.621.06-.647.07-1.728.186-1.795-.036a.1.1 0 01.019-.092c.183-.245 1.244-.378 2.096-.414.079-.004.135-.065.13-.14a.152.152 0 00-.141-.136l-.174-.014c-.516-.043-1.59-.131-1.588-.365v-.019c.046-.295 1.121-.286 1.768-.278.398.004.712.006.839-.038.087-.031.111-.083.114-.12.018-.153-.24-.344-.66-.645-.234-.167-.623-.442-.61-.531v-.001c.015-.054.04-.088.082-.107.18-.081.619.098 1.004.258.264.108.513.211.707.248.54.102 1.018.266 1.417.485.06.033.126.056.192.068a.48.48 0 00.263-.006c-.006-.019.018-.051.011-.07l-.017-.058c-.115.019-.288.019-.39-.037a4.96 4.96 0 00-1.458-.499c-.18-.035-.424-.135-.68-.241-.452-.188-.879-.364-1.11-.259z"/>
    </g>
    <g>
      <path fill="#31313B" d="M92.147 136.311s.666.066 1.465.378c3.333 1.298 2.564 6.093 2.836 8.297 0 0-2.182.627-4.536-.856-1.648-1.038-2.476-2.876-2.476-2.876l2.711-4.943z"/>
    </g>
  </g>
  <g>
    <path fill="#fff" d="M244.232 69.485s-10.943-3.553-13.19-5.814c-1.28-1.287-6.088-9.093-6.088-9.093l-3.413 1.194s3.077 9.109 6.582 12.035c4.646 3.88 11.443 5.623 11.443 5.623l4.666-3.945z"/>
    <path fill="#31313A" d="M239.59 73.538l-.05-.012c-.069-.018-6.872-1.794-11.482-5.644-3.485-2.91-6.581-11.988-6.612-12.079l-.031-.093 3.581-1.252.042.067c.049.077 4.817 7.811 6.073 9.075 2.205 2.217 13.042 5.755 13.152 5.79l.169.055-4.842 4.093zm-17.925-17.706c.337.967 3.265 9.18 6.52 11.898 4.37 3.648 10.733 5.422 11.355 5.59l4.493-3.796a123.632 123.632 0 01-5.589-2.007c-4.017-1.559-6.531-2.83-7.472-3.777-1.224-1.231-5.554-8.224-6.06-9.042l-3.247 1.134z"/>
    <path fill="#163560" d="M245.898 57.875s1.856-1.08 3.857.5c2.001 1.579 2.808 7.076-1.902 7.66-4.71.585-8.632-7.016-1.955-8.16z"/>
    <path fill="#83AAC6" d="M244.184 128.094v2.024a5.741 5.741 0 00-.322-.009c-2.715 0-4.915 1.649-4.915 3.682h9.831s1.629-.45 0-5.697c-.321-1.033-4.594 0-4.594 0z"/>
    <path fill="#ECEFF2" d="M246.406 131.783a.09.09 0 00.032-.006c.037-.017.053-.057.035-.093a2.948 2.948 0 00-1.432-1.405c-.468-.212-.839-.231-.855-.233a.073.073 0 00-.077.067c-.003.038.029.071.07.072.014.001 1.429.086 2.16 1.556a.07.07 0 00.067.042z"/>
    <path fill="#83AAC6" d="M261.021 128.094v2.024a6.84 6.84 0 00-.321-.009c-2.716 0-4.916 1.649-4.916 3.682h9.831s1.704-.111 0-5.697c-.315-1.035-4.594 0-4.594 0z"/>
    <path fill="#ECEFF2" d="M263.244 131.783a.087.087 0 00.032-.006c.037-.017.054-.057.036-.093a2.952 2.952 0 00-1.432-1.405c-.469-.212-.84-.231-.855-.233a.073.073 0 00-.078.067.07.07 0 00.07.072c.014.001 1.429.086 2.16 1.556a.072.072 0 00.067.042z"/>
    <path fill="#31313B" d="M238.066 89.429l4.744 39.602h6.72s.413-6.776-.026-15.829c-.279-5.723-.35-11.393-.35-11.393s2.446 4.088 5.413 11.537c1.785 4.484 5.5 15.685 5.5 15.685h6.92s-2.435-12.053-6.698-27.304c-1.721-6.158-4.503-15.362-4.503-15.362l-17.72 3.064z"/>
    <path fill="#fff" d="M247.635 72.177l-1.883.186c-.332 0-4.015-1.377-4.341-2.323-.514-1.496 2.078-1.857 2.939-1.934a.288.288 0 00.271-.28V65.75c0-.629.549-1.143 1.22-1.143h.691c.671 0 1.219.514 1.219 1.143v2.044c0 .17.124.318.299.36.55.13 1.661.43 1.61.734-.174 1.045-1.653 3.288-2.025 3.288z"/>
    <path fill="#31313A" d="M249.264 68.55a.09.09 0 00.087-.063c.013-.046-.015-.092-.065-.105l-1.445-.363v-2.272c0-.677-.589-1.228-1.31-1.228h-.692c-.723 0-1.309.551-1.309 1.228v2.268l-1.103.218c-.05.01-.08.054-.07.1.01.046.058.075.108.066l1.175-.231a.087.087 0 00.072-.084v-2.337c0-.583.507-1.058 1.129-1.058h.691c.622 0 1.128.475 1.128 1.058v2.337c0 .038.028.072.067.082l1.514.38a.07.07 0 00.023.004z"/>
    <path fill="#2B478B" d="M257.302 90.111c-14.226 5.048-19.236 1.97-19.236 1.97l.108-16.473s17.344-.321 17.556 1.009c1.313 8.23 1.572 13.494 1.572 13.494z"/>
    <path fill="#2B478B" d="M256.309 80.522c.169 2.028-8.522-2.828-8.522-2.828l-.234-.025-7.514 1.312-1.974-1.019s-.869-3.361-1.161-5.017c-.751-4.252.545-6.07.545-6.07s2.42.837 6.378 1.279c.135.015-.591.916-.422 1.76.014.075.033.147.055.22.117.386.343.74.751.964.068.038.141.07.219.1.3.113.679.167 1.155.134.215-.016.418-.042.61-.08a5.11 5.11 0 00.22-.049c2.363-.59 2.836-2.833 2.836-2.833s.634.044 1.649.246l.035.008a6.144 6.144 0 014.914 5.617c.125 1.922.289 4.233.46 6.281z"/>
    <path fill="#fff" d="M248.793 64.117c-1.035 1.984-3.121 3.02-4.659 2.313-1.537-.706-1.735-3.22-.908-4.874 1.001-2 3.121-3.02 4.659-2.313 1.537.706 1.945 2.89.908 4.874z"/>
    <path fill="#31313A" d="M245.955 62.284a.063.063 0 01-.043-.04c-.013-.035.006-.07.043-.082.021-.006.495-.207.877.23a.063.063 0 01-.008.092c-.029.023-.066.014-.097-.008-.303-.215-.71-.197-.728-.192a.074.074 0 01-.044 0zM243.902 61.799a.063.063 0 01-.043-.041c-.013-.034.006-.07.043-.081.021-.007.495-.207.877.23a.063.063 0 01-.008.091c-.029.023-.066.014-.097-.008-.303-.214-.71-.196-.728-.191a.086.086 0 01-.044 0zM246.455 63.02c-.003.154-.102.277-.222.274-.119-.002-.212-.13-.208-.283.004-.154.103-.277.222-.274.12.002.212.128.208.283zM244.49 62.657c-.004.153-.103.277-.222.274-.12-.002-.213-.13-.209-.283.004-.154.103-.277.223-.275.118.003.212.13.208.284zM244.968 64.003c.029 0 .056-.02.061-.048a.058.058 0 00-.051-.066.578.578 0 01-.413-.263c-.015-.028-.052-.04-.083-.026a.055.055 0 00-.026.078c.006.011.15.27.502.324l.01.001zM245.636 64.606s-.069.245-.26.446a.817.817 0 01-.777.236.666.666 0 01-.396-.225c-.249-.285-.249-.724-.249-.724.841.391 1.682.267 1.682.267z"/>
    <path fill="#FF2C9E" d="M245.374 65.052c-.161.167-.409.303-.776.236a.663.663 0 01-.396-.225c.261-.14.789-.347 1.172-.011z"/>
    <path fill="#31313A" d="M244.097 66.5c-1.575-.723-1.802-3.27-.947-4.977.576-1.151 1.573-2.053 2.664-2.413.752-.248 1.481-.226 2.108.062 1.576.726 2.001 2.96.946 4.98-.508.974-1.282 1.757-2.177 2.201-.51.253-1.023.38-1.514.38a2.61 2.61 0 01-1.08-.232zm4.62-2.42c1.014-1.942.624-4.08-.869-4.767-.586-.269-1.269-.288-1.977-.054-1.051.345-2.01 1.217-2.568 2.33a4.79 4.79 0 00-.425 2.747c.148.988.607 1.706 1.294 2.021.718.33 1.586.278 2.441-.146.864-.428 1.611-1.185 2.104-2.13z"/>
    <g>
      <path fill="#163560" d="M245.82 58.375s-.71 2.77 2.841 6.499c0 0 1.071-1.456 1.094-3.515.022-2.058-3.935-2.984-3.935-2.984z"/>
    </g>
    <g>
      <path fill="#163560" d="M249.755 58.35s.514-1.726 3.076-1.49c2.563.236 1.862 3.99 3.757 3.955 1.896-.034 3.757 1.724 3.16 3.465 0 0 1.053 1.673-.773 2.754-1.825 1.082-4.352-.168-4.248-1.622 0 0-2.142.653-2.457-1.06-.317-1.712.561-6.526-2.177-5.37l-.338-.633z"/>
    </g>
    <g>
      <path fill="#163560" d="M246.79 59.833s-2.475 1.517-3.666 1.288c0 0 .939-1.747 2.052-2.181 1.113-.435 1.327-.274 1.327-.274l.287 1.167z"/>
    </g>
    <g>
      <path fill="#fff" d="M248.565 64.824c-.392.194-.83.135-.98-.133-.15-.269.116-.671.436-.837.387-.199.83-.134.979.134.15.268-.045.641-.435.836z"/>
    </g>
    <g>
      <path fill="#fff" d="M248.259 92.552l.077-.006c-.208-2.243-1.096-3.882-2.641-4.873-3.017-1.934-7.56-.719-7.606-.706l.022.07c.046-.013 4.555-1.218 7.539.697 1.525.977 2.403 2.598 2.609 4.818z"/>
    </g>
    <g>
      <path fill="#fff" d="M250.177 86.4c-1.748-.621-2.922-2.744-3.349-4.815-3.316 1.36-8.638 1.22-8.703 1.217l.002-.073c.066.003 5.395.143 8.687-1.217a8.535 8.535 0 01-.154-1.223c-.071-1.374.257-2.366.877-2.653.924-.428 1.834-.398 2.214.074.446.552.055 1.538-1.071 2.706-.447.463-1.068.838-1.789 1.14.491 2.519 1.971 4.296 3.313 4.773 3.303 1.174 6.734-.112 6.768-.125l.029.068c-.024.008-1.663.623-3.767.623-.958.003-2.014-.124-3.057-.495zm-2.606-8.698c-.592.274-.903 1.24-.833 2.584.021.416.07.816.141 1.2.702-.298 1.308-.664 1.745-1.117 1.561-1.619 1.266-2.367 1.066-2.615-.184-.227-.514-.343-.913-.343a2.945 2.945 0 00-1.206.29z"/>
    </g>
    <g>
      <path fill="#fff" d="M244.999 73.326c.38 0 .763-.032 1.144-.1 2.165-.39 3.925-1.905 5.229-4.502l-.069-.03c-1.295 2.575-3.036 4.076-5.175 4.462-4.103.74-8.33-2.91-8.373-2.946l-.053.053c.04.033 3.552 3.063 7.297 3.063z"/>
    </g>
    <g>
      <path fill="#fff" d="M240.048 76.193c-.211-.798-.655-2.153-.592-2.98-.008-.636-.083-3.064-.602-2.942-.562.13-.718 1.684-.738 2.729-.572-.44-1.555-.921-2.116-1.003-.587-.085-1.031.17-1.063.617-.62.004-.877.216-.963.418-.216.5.242.86.969.98-.425.067-.734.055-1.012.2-.187.096-.391.37-.424.573-.033.203.31.434.585.5.345.084.809.123 1.081.118.178-.004.062.006.245.07.018.287.159 1.023.179 1.157.077.495.758.857 1.243 1.127.233.128 3.406-.816 3.208-1.564z"/>
      <path fill="#31313A" d="M234.862 72.641a.09.09 0 01-.005-.033.077.077 0 01.084-.07c1.397.092 2.442 1.107 2.485 1.15a.075.075 0 01-.002.107c-.03.03-.08.03-.109.001-.01-.01-1.049-1.019-2.388-1.106a.08.08 0 01-.065-.049zM235.065 74.063a.09.09 0 01-.005-.033.078.078 0 01.084-.07c.888.057 1.491.572 1.517.593a.074.074 0 01.005.107.08.08 0 01-.109.008c-.007-.005-.592-.503-1.427-.557a.082.082 0 01-.065-.048z"/>
      <path fill="#fff" d="M239.606 75.163s3.339 3.718 6.741 4.986c.751.28 5.266-7.396 5.266-7.396l2.405 1.155 2.316 1.714s-3.972 10.754-9.001 10.43c-5.341-.343-10.428-8.22-10.428-8.22l2.701-2.669z"/>
      <path fill="#31313A" d="M246.27 80.18a.074.074 0 010-.06.083.083 0 01.107-.046c1.26.459 1.828 1.32 1.852 1.357a.08.08 0 01-.027.112.083.083 0 01-.113-.023c-.005-.01-.565-.854-1.772-1.294a.086.086 0 01-.047-.047zM235.544 76.693c-.131-.335-.177-.727-.137-1.17a.084.084 0 01.089-.075c.046.002.079.04.075.085-.062.704.101 1.263.486 1.663.685.71 1.852.684 1.863.684a.078.078 0 01.083.077.083.083 0 01-.082.083c-.051.001-1.25.029-1.984-.732a1.867 1.867 0 01-.393-.615z"/>
      <path fill="#31313A" d="M236.921 77.867a.08.08 0 01.035-.098.082.082 0 01.113.025 28.17 28.17 0 003.313 4.151c3.31 3.404 5.911 4.077 7.51 4.042 4.358-.097 8.376-10.24 8.416-10.342a.085.085 0 01.107-.049.078.078 0 01.047.103c-.01.026-1.028 2.611-2.578 5.174-2.092 3.458-4.109 5.233-5.99 5.275-2.958.066-5.784-2.189-7.634-4.092-1.997-2.056-3.318-4.153-3.332-4.175l-.007-.014z"/>
      <path fill="#31313A" d="M233.459 74.984a.447.447 0 01-.012-.263c.094-.398.423-.655.951-.746.014-.002.027-.005.041-.006-.186-.065-.367-.157-.483-.292a.501.501 0 01-.126-.393c.026-.25.127-.443.301-.574.261-.196.608-.192.752-.18.11-.302.303-.499.574-.585.847-.27 2.213.642 2.622.935.039-.65.188-2.515.605-2.653a.409.409 0 01.382.042c.323.226.469 1.03.461 2.531-.002.38.017.732.057 1.046.081.636.249 1.442.857 2.025 2.566 2.47 4.941 3.806 5.938 4.207.104.042.615-.092 2.839-3.546 1.2-1.867 2.318-3.798 2.33-3.817a.078.078 0 01.105-.03c.037.02.05.066.029.102-.011.02-1.13 1.953-2.334 3.822-2.467 3.833-2.876 3.67-3.03 3.609-2.639-1.059-5.652-3.916-5.986-4.239-.722-.694-.852-1.724-.9-2.113a8.007 8.007 0 01-.057-1.066c.007-1.409-.127-2.22-.398-2.409-.068-.048-.146-.054-.245-.023-.235.078-.442 1.413-.506 2.66a.078.078 0 01-.126.057c-.016-.013-1.691-1.289-2.598-.999-.24.076-.4.255-.491.545a.08.08 0 01-.088.053c-.004 0-.424-.064-.699.143-.137.103-.217.26-.239.467a.359.359 0 00.092.282c.222.258.763.346.979.373a.952.952 0 01.097.01c.041.005.07.042.065.082a.079.079 0 01-.084.068c-.007 0-.041-.003-.094-.01-.301-.02-1.277-.037-1.44.653a.269.269 0 00.045.241c.09.114.342.254 1.025.267.775.015 1.229.36 1.248.375a.073.073 0 01.011.105.078.078 0 01-.108.014c-.004-.004-.434-.329-1.156-.343-.597-.011-.981-.12-1.142-.324a.321.321 0 01-.064-.103z"/>
      <g>
        <path fill="#2B478B" d="M251.69 68.827s2.87.79 4.255 3.319c1.385 2.53.228 6.707.228 6.707s-5.279-1.404-6.365-4.169l1.882-5.857z"/>
      </g>
    </g>
    <g>
      <path fill="#31313A" d="M255.42 196.084c-.33 0-.675-.279-.773-.625L236.5 131.442a.573.573 0 01.552-.73h.002c.256 0 .482.17.552.418l18.235 64.329c.098.344-.09.625-.421.625zM285.97 196.084c-.33 0-.676-.279-.775-.625l-18.145-64.017a.573.573 0 111.105-.312l18.236 64.329c.096.344-.09.625-.421.625z"/>
      <path fill="#31313A" d="M269.216 135.237h-31.142l-.366-1.445h31.142l.366 1.445zM272.829 150.356h-30.16l-.354-1.451h30.16l.354 1.451zM277.187 165.537H246.75l-.358-1.546h30.437l.358 1.546zM281.426 180.697H251.06l-.357-1.66h30.366l.357 1.66z"/>
    </g>
    <g>
      <path fill="#31313B" d="M238.947 194.013a.592.592 0 01-.572-.754l7.803-27.882a.593.593 0 111.144.321l-7.804 27.881a.594.594 0 01-.571.434z"/>
    </g>
  </g>
  <g>
    <path fill="#31313B" d="M204.559 24.36h-8.146l-52.785 76.461-34.129-38.435h-8.147l.966 6.377L81.081 87.62l59.973 77.051h7.961l86.196-117.845-30.652-22.467z"/>
  </g>
  <g>
    <path fill="#fff" d="M140.994 164.262l-68.059-76.64 28.417-25.236 36.81 41.451 58.251-79.477 30.653 22.467-86.072 117.435z"/>
  </g>
  <g>
    <path fill="#31313B" d="M141.014 164.681l-.217-.244-68.234-76.838 28.812-25.586.175.197 36.593 41.206 58.213-79.426 31.079 22.778-.157.214-86.264 117.699zM73.308 87.644l67.666 76.199 85.722-116.96-30.227-22.153-58.288 79.527-36.85-41.498-28.023 24.885z"/>
  </g>
  <g>
    <path fill="#31313A" d="M186.081 60.671l.248-2.08 3.442-.822 7.424 4.553-11.114-1.65zm.495-1.862l-.195 1.633 9.543 1.417-6.199-3.801-3.149.75z"/>
    <path fill="#0CE2A2" d="M197.399 62.515l-10.757-6.982-10.212-.326 20.969 7.308zM189.978 55.057l7.421 7.458-4.486-12.188-2.935 4.73z"/>
    <path fill="#31313A" d="M189.978 55.057l-.202 2.512 7.623 4.946-7.421-7.458z"/>
    <g>
      <path fill="#31313A" d="M134.154 71.275c-1.661-.393-2.873-1.216-3.438-2.45-.753-1.643-.185-3.817 1.597-6.12 2.017-2.608 5.563-5.37 10.257-7.988 5.105-2.847 10.579-4.702 16.27-5.514 1.47-.21 2.957-.35 4.453-.422 1.299-3.406 1.977-6.497 2.179-8.752l.27.024c-.201 2.25-.873 5.326-2.154 8.716 3.042-.127 6.128.03 9.221.472 8.032 1.149 13.402 3.859 13.455 3.887l-.123.24c-.053-.027-5.391-2.72-13.38-3.861a49.925 49.925 0 00-9.277-.464 43.515 43.515 0 01-3.725 7.441c-2.907 4.629-8.029 10.752-15.918 13.63-3.779 1.377-7.225 1.743-9.687 1.16zm29.031-22.218c-1.449.074-2.889.21-4.315.415-5.655.809-11.095 2.653-16.17 5.483-4.661 2.6-8.179 5.336-10.174 7.916-1.718 2.221-2.273 4.296-1.565 5.842.616 1.347 2.157 2.23 4.339 2.486 2.367.276 5.286-.186 8.445-1.338 7.817-2.852 12.896-8.926 15.781-13.519a43.316 43.316 0 003.659-7.285z"/>
    </g>
  </g>
</svg>
