<svg xmlns="http://www.w3.org/2000/svg" width="600" height="313" fill="none" viewBox="0 0 600 313">
  <path fill="url(#paint0_linear_362_1259)" fill-rule="evenodd" d="M599.827 312.405V179.266H600c-58.557-29.635-89.002-16.296-151.541 11.105-33.235 14.562-75.533 33.095-135.932 51.26C174.194 283.235 53.31 210.259 0 159.767v152.638h599.827z" clip-rule="evenodd"/>
  <path fill="#000" d="M108.514 255.53c13.313 0 24.106-2.383 24.106-5.323 0-2.94-10.793-5.323-24.106-5.323-13.313 0-24.106 2.383-24.106 5.323 0 2.94 10.793 5.323 24.106 5.323z" opacity=".3"/>
  <path fill="#4D0100" d="M112.658 69.528a3.69 3.69 0 003.688-3.689c0-.112-.01-.224-.019-.336a2.63 2.63 0 004.603-1.746v-.019a3.69 3.69 0 005.601-3.157 3.73 3.73 0 00-.905-2.428 2.63 2.63 0 002.52-2.624c0-.15-.018-.299-.037-.439a3.687 3.687 0 002.203-3.38c0-.972-.373-1.859-.989-2.513a3.147 3.147 0 001.624-2.755 3.148 3.148 0 00-1.568-2.717 3.683 3.683 0 001.064-2.587 3.682 3.682 0 00-2.418-3.465 2.625 2.625 0 00-2.39-3.446c.57-.644.906-1.494.906-2.428a3.69 3.69 0 00-5.602-3.156v-.019a2.63 2.63 0 00-2.633-2.634 2.64 2.64 0 00-1.97.888c.01-.113.019-.224.019-.337a3.69 3.69 0 00-3.688-3.689c-1.578 0-2.913.99-3.445 2.373a2.632 2.632 0 00-2.194-1.186 2.626 2.626 0 00-2.39 1.54 3.685 3.685 0 00-6.684 2.148v.047a2.595 2.595 0 00-.934-.177 2.63 2.63 0 00-2.614 2.96 3.69 3.69 0 00-4.033 5.286 2.628 2.628 0 00-1.924 2.53c0 .87.43 1.644 1.083 2.12-1.204.197-2.604 1.86-1.932 3.69a2.618 2.618 0 00.504 3.651c-1.307 0-1.933 4.118 1.316 4.118a2.636 2.636 0 00-.97 2.036c0 1.205.812 2.223 1.923 2.531a3.69 3.69 0 004.033 5.286 2.63 2.63 0 002.614 2.96c.327 0 .644-.065.934-.177v.047a3.685 3.685 0 006.684 2.148 2.626 2.626 0 004.584.354 3.648 3.648 0 003.436 2.391z"/>
  <path fill="#3D0000" d="M109.073 32.257c-8.141 0-14.742 5.855-14.742 15.418 0 11.935 3.65 17.875 7.721 20.64a3.697 3.697 0 002.567-1.514 2.626 2.626 0 002.39 1.541c.915 0 1.728-.467 2.194-1.186a3.69 3.69 0 003.445 2.372 3.69 3.69 0 003.688-3.689c0-.112-.009-.224-.018-.336a2.636 2.636 0 001.969.887h.028c3.081-3.296 5.49-9.03 5.49-18.715.009-9.572-6.591-15.418-14.732-15.418z"/>
  <path fill="#A25742" d="M129.043 75.355c-.737-.812-1.578-1.457-2.493-1.849l-11.922-5.034V49.066h-11.194v19.397l-11.922 5.034c-.906.383-1.755 1.037-2.493 1.849h40.024v.01z"/>
  <path fill="#893D30" d="M103.434 64.793c2.082 2.493 4.593 3.212 6.47 3.212 1.372 0 3.09-.392 4.724-1.578v-17.36h-11.194v15.726z"/>
  <path fill="#AD5D4B" d="M120.622 47.796c0 15.232-7.235 18.286-11.502 18.286s-11.502-3.045-11.502-18.286c0-7.667 5.153-12.355 11.502-12.355 6.349 0 11.502 4.688 11.502 12.355z"/>
  <path fill="#003E4D" d="M119.119 47.656c-.056-.205-.177-.346-.392-.346h-7.235c-.607 0-1.532.43-2.353.43-.822 0-1.746-.43-2.353-.43h-7.235c-.215 0-.336.131-.392.346H97.15v.71h1.998c.234 1.615 1.027 4.548 1.429 4.548h5.601c.654 0 1.606-1.41 1.961-2.316.215-.56.672-.803.999-.803.327 0 .784.242.999.803.355.896 1.307 2.316 1.96 2.316h5.602c.402 0 1.195-2.923 1.429-4.548h1.997v-.71h-2.007zm-12.921 5.034l-5.331.01c-.439 0-1.83-4.81-.672-4.81h6.068c3.231 0 .449 4.8-.065 4.8zm11.213.01l-5.331-.01c-.523 0-3.296-4.8-.066-4.8h6.069c1.148 0-.234 4.81-.672 4.81z"/>
  <path fill="#E7EAE1" d="M106.198 52.69l-5.331.01c-.439 0-1.83-4.81-.672-4.81h6.068c3.231 0 .449 4.8-.065 4.8zM117.411 52.7l-5.331-.01c-.523 0-3.296-4.8-.066-4.8h6.069c1.148 0-.234 4.81-.672 4.81z" opacity=".3"/>
  <path fill="#3D0000" d="M109.12 35.441c-6.358 0-11.502 4.688-11.502 12.355 0 .477.01.934.019 1.383.13-.262.242-.533.298-.84a2.74 2.74 0 00.01-.916 2.899 2.899 0 002.25-2.073c.056.009.102.028.158.037a4.175 4.175 0 003.52-1.037c.42.449.98.776 1.634.888a2.854 2.854 0 002.175-.505 3.965 3.965 0 002.717 1.859 3.957 3.957 0 003.268-.916 2.855 2.855 0 001.942 1.29 2.914 2.914 0 001.913-.337 3.973 3.973 0 003.007 2.419c.018 0 .028 0 .046.01 0 .14.019.28.038.42.018-.542.037-1.102.037-1.681-.028-7.668-5.181-12.356-11.53-12.356z"/>
  <path fill="#4D0100" d="M127.466 49.122c-.654-7.471-6.554-18.341-13.211-19.471-4.603-.785-9.98-1.102-13.976 1.755-4.108 2.942-4.556 5.893-5.872 10.413-.318 1.093-.168 1.466-.645 2.39-.401.785-1.325.935-1.521 2.046a2.887 2.887 0 002.362 3.334 2.886 2.886 0 003.333-2.363c.056-.308.056-.616.009-.915a2.898 2.898 0 002.25-2.073c.056.01.103.028.159.037a4.174 4.174 0 003.519-1.036c.42.448.981.775 1.634.887a2.853 2.853 0 002.175-.505 3.965 3.965 0 002.717 1.859 3.955 3.955 0 003.268-.915 2.855 2.855 0 001.942 1.288 2.862 2.862 0 001.914-.336 3.972 3.972 0 003.006 2.42c.019 0 .028 0 .047.008a2.873 2.873 0 001.437 2.475 2.887 2.887 0 002.064 4.203 2.887 2.887 0 003.333-2.363c.13-.953.149-2.008.056-3.138z"/>
  <path fill="#DDD" d="M109.54 20.172a20.958 20.958 0 00-14.667 5.958l3.595 12.682c1.587-2.932 5.937-5.043 11.072-5.043 4.902 0 9.094 1.924 10.849 4.642l3.557-12.542c-3.772-3.521-8.832-5.697-14.406-5.697z"/>
  <path fill="#16C4B3" d="M112.995 26.41h-2.652v-2.652h-1.606v2.652h-2.651v1.616h2.651v2.652h1.606v-2.652h2.652V26.41z"/>
  <path fill="#F4F4F4" d="M108.597 21.657c-2.399-.28-10.148 1.662-12.398 4.95 0 0 .317 2.24 1.354 4.631 4.453-3.754 11.044-9.581 11.044-9.581z"/>
  <path fill="#5B0909" d="M104.107 37.561c-1.457 1.709 6.199 3.231 10.755 3.642 3.65.336 6.778.551 4.182-2.587-4.668-5.622-13.574-2.661-14.937-1.055z"/>
  <path fill="#A25742" d="M95.117 126.99l13.546 5.426 13.258-4.763s3.519 10.254 3.519 20.49c0 5.108-5.135 45.723-5.135 46.031l-6.18 48.291-4.127 2.718.271-28.661.196-28.848s-.504-24.449-.27-30.837c.074-2.092.709-8.34.709-8.34l-1.419-.046-2.567-.01s.69 6.183.784 8.247c.261 6.397-.299 30.874-.299 30.874l.299 28.67-.178 28.82-4.107-1.728-6.022-48.431c0-2.111-5.051-43.192-5.294-46.863-.364-5.099 3.016-21.04 3.016-21.04z"/>
  <path fill="#16C4B3" d="M123.722 127.223l-.224-5.874h-30.09l-.14 5.37c-.168.57-4.36 14.541-4.201 19.397.056 1.84 1.914 13.354 3.809 25.103.859 5.332 2.53 12.579 2.53 15.885 0 6.743 26.617 6.733 26.953 0 .588-11.711 6.265-37.215 6.087-40.923-.448-9.582-4.686-18.864-4.724-18.958z"/>
  <path fill="#0EAF9C" d="M98.132 177.746c-2.493-10.029-5.499-22.105-5.844-24.29-.691-4.342-.234-16.651.112-23.73-1.251 4.483-3.445 12.86-3.333 16.38.056 1.84 1.382 13.224 3.277 24.973.859 5.332 1.783 10.982 2.511 15.829.514 3.399 5.957 4.342 5.957 4.342-.682-2.736-1.858-10.198-2.68-13.504zM124.749 129.745c.598 5.463 1.354 15.204.467 23.795-.495 4.763-6.675 28.129-9.205 37.897 0 0 4.173-.747 5.76-2.811 2.203-2.867 6.853-38.728 6.675-42.445-.308-6.593-2.408-13.046-3.697-16.436zM102.1 240.672s-2.493 4.099-2.698 5.472c-.206 1.373-.645 5.23.485 5.716 1.13.485 5.863.569 6.507.158.645-.401 2.017-3.128 2.138-4.669.122-1.541-.803-7.686-.803-7.686l-5.629 1.009z"/>
  <path fill="#A25742" d="M102.212 240.168s-2.567 5.127-.896 7.153c.672.813 6.675-.738 6.414-7.611-.252-6.864-5.518.458-5.518.458z"/>
  <path fill="#0EAF9C" d="M115.395 240.672s2.492 4.099 2.698 5.472c.205 1.373.644 5.23-.486 5.716-1.129.485-5.863.569-6.507.158-.644-.401-2.016-3.128-2.138-4.669-.121-1.541.803-7.686.803-7.686l5.63 1.009z"/>
  <path fill="#A25742" d="M115.292 240.168s2.567 5.127.896 7.153c-.672.813-6.675-.738-6.414-7.611.252-6.864 5.518.458 5.518.458z"/>
  <g>
    <path fill="#16C4B3" d="M123.405 123.255l8.57-42.474c0-3.296-2.287-6.929-5.106-8.115l-11.997-5.043c-2.68 4.744-5.845 6.93-5.845 6.93s-3.146-2.326-5.751-6.93l-11.997 5.043c-2.82 1.186-5.106 4.819-5.106 8.115l9.27 42.474h27.962z"/>
    <path fill="#DDD" d="M133.833 158.247c-1.158-10.786-7.73-32.919-7.814-41.39-.094-9.423 6.778-36.561 6.778-36.561 0-3.157-2.857-7.257-5.798-8.396l-9.364-3.605-7.758 39.223.28 61.254s24.488-2.904 23.676-10.525z"/>
    <g>
      <path fill="#F4F4F4" d="M121.435 73.806l-.625-3.876 6.684 2.68c2.867 1.102-6.059 1.196-6.059 1.196z"/>
    </g>
    <path fill="#F4F4F4" d="M122.135 84.274l-2.016-3.119 1.092-3.203-1.279-8.77-2.306-.896-7.404 37.477 11.913-21.489z"/>
  </g>
  <g>
    <path fill="#003E4D" d="M128.876 88.925h-9.794v4.912h9.794v-4.912z"/>
    <path fill="#F4F4F4" d="M128.624 89.186h-9.271v4.38h9.271v-4.38z"/>
    <path fill="#B7BDBD" d="M124.628 88.402h-1.289v1.083h1.289v-1.083zM122.901 89.616h-2.932v3.614h2.932v-3.614z"/>
  </g>
  <g opacity=".2">
    <path fill="#48545B" d="M128.782 133.471c-1.381 3.008-3.155 6.323-5.387 10.049-2.025 1.345 2.521 7.023 4.006 6.07a71.46 71.46 0 003.818-5.304c-.784-3.549-1.643-7.256-2.437-10.815z" opacity=".2"/>
  </g>
  <path fill="#A25742" d="M124.983 141.157c-1.653.803-5.032 2.568-4.519 3.371.682 1.055-1.484 3.007-2.371 4.119-.887 1.111 6.591 5.64 8.356 3.483.896-1.102 1.932-4.128 2.735-6.827-1.148-.196-3.146-2.241-4.201-4.146z"/>
  <path fill="#F4F4F4" d="M118.111 142.726s-1.157 20.695.747 20.424c1.905-.271 9.794-2.466 11.428-5.715 1.634-3.26-1.634-10.619-1.634-10.619l-10.541-4.09z"/>
  <path fill="#DDD" d="M129.697 145.247c-1.484.944-7.002-5.78-4.976-7.125 14.62-24.459 10.531-27.111 4.93-44.341 1.12-6.659-3.436-16.324-1.307-16.931l-.019-4.016c7.758 4.492 7.889 9.45 10.82 17.156 4.444 11.701 7.647 33.675-9.448 55.257zM84.52 158.247c1.158-10.787 7.73-32.92 7.814-41.39.094-9.423-6.778-36.562-6.778-36.562 0-3.156 2.857-7.256 5.798-8.395l9.373-3.605 10.485 41.408-1.064 59.078c.009-.009-26.44-2.914-25.628-10.534z"/>
  <g>
    <path fill="#F4F4F4" d="M96.927 73.805l.626-3.875-6.685 2.68c-2.866 1.102 6.06 1.195 6.06 1.195z"/>
  </g>
  <path fill="#F4F4F4" d="M96.218 84.274l2.026-3.12-1.102-3.203 1.28-8.769 2.306-.896 10.484 41.408-14.994-25.42z"/>
  <g opacity=".2">
    <path fill="#48545B" d="M89.571 133.471c1.382 3.008 3.156 6.323 5.387 10.049 2.026 1.345-2.52 7.023-4.005 6.07a71.439 71.439 0 01-3.819-5.304c.794-3.549 1.653-7.256 2.437-10.815z" opacity=".2"/>
  </g>
  <path fill="#A25742" d="M93.37 141.157c1.653.803 5.033 2.568 4.52 3.371-.682 1.055 1.484 3.007 2.371 4.119.887 1.111-6.592 5.64-8.356 3.483-.896-1.102-1.933-4.128-2.736-6.827 1.149-.196 3.147-2.241 4.202-4.146z"/>
  <path fill="#F4F4F4" d="M100.242 142.726s1.158 20.695-.747 20.424c-1.905-.271-9.794-2.466-11.427-5.715-1.634-3.26 1.633-10.619 1.633-10.619l10.541-4.09z"/>
  <path fill="#DDD" d="M88.656 145.247c1.484.944 7.002-5.78 4.976-7.125-14.62-24.459-10.54-27.111-4.93-44.341-1.12-6.659 3.436-16.324 1.308-16.931l.018-4.016c-7.749 4.483-7.889 9.432-10.81 17.137-4.454 11.72-7.656 33.694 9.438 55.276z"/>
  <path fill="#000" d="M535.845 250.207c0-3.511-12.893-6.36-28.801-6.36-15.909 0-28.802 2.849-28.802 6.36s12.893 6.36 28.802 6.36c15.899 0 28.801-2.839 28.801-6.36z" opacity=".3"/>
  <g>
    <path fill="#994D3C" d="M536.966 103.653V73.647c0-3.53-2.969-7.425-6.62-8.695l-15.134-4.95V39.197h-15.89v20.807l-15.133 4.95c-3.66 1.27-6.62 5.164-6.62 8.694v30.006h59.397z"/>
    <path fill="#AD5D4B" d="M520.497 34.965c0 17.968-8.263 21.564-13.136 21.564-4.873 0-13.136-3.596-13.136-21.564 0-9.04 5.882-14.578 13.136-14.578s13.136 5.53 13.136 14.578z"/>
    <path fill="#AD5D4B" d="M496.615 38.468c.532 2.839-.093 5.35-1.41 5.594-1.307.242-2.801-1.859-3.342-4.707-.532-2.84.093-5.351 1.41-5.594 1.316-.234 2.81 1.868 3.342 4.707zM517.911 38.468c-.533 2.839.093 5.35 1.409 5.594 1.307.242 2.801-1.859 3.343-4.707.532-2.84-.094-5.351-1.41-5.594-1.317-.234-2.81 1.868-3.342 4.707z"/>
    <path fill="#E7EAE1" d="M522.924 136.283l14.126-62.636c0-3.549-2.997-7.48-6.676-8.76l-15.115-4.977-7.805 4.884-8.178-4.894-15.115 4.978c-3.679 1.28-6.676 5.201-6.676 8.76l11.222 64.858 34.217-2.213z"/>
    <path fill="#893D30" d="M499.313 41.811v11.543c2.427 4.062 5.704 5.762 7.945 6.164 2.241.401 5.518.121 7.945-2.923V44.65l-7.945-3.418-7.945.58z"/>
    <path fill="#E7EAE1" d="M519.143 40.55l-11.885-2.661-11.885 2.661c.402 3.839 1.503 9.377 1.503 9.377 2.829 5.22 7.395 6.742 10.382 6.742 2.988 0 7.553-1.177 10.382-6.266 0 0 1.111-6.07 1.503-9.853z"/>
    <path fill="#F6F7F5" d="M507.258 38.458v5.155s-9.682 2.335-11.194-2.54l11.194-2.615z"/>
    <path fill="#003E4D" d="M510.292 64.84h-5.62v3.503l1.391 1.298-1.027 29.912 2.437 1.868 2.446-1.868-1.027-29.922 1.4-1.288V64.84z"/>
    <path fill="#F6F7F5" d="M507.445 64.803l-4.454 5.81-6.628-9.573 2.95-2.858 8.132 6.621z"/>
    <path fill="#F6F7F5" d="M507.445 64.803l4.631 5.81 6.087-9.573-2.969-2.858-7.749 6.621z"/>
    <path fill="#994D3C" d="M518.891 30.063c.271-.103.551-.168.85-.196-1.821-5.856-6.676-9.293-12.389-9.293-6.62 0-12.072 4.586-13.006 12.225.047.439.075.897.075 1.364 0 0 1.541-3.129 1.475-6.043-.037-1.513 4.155-4.697 11.325-.906 7.581-1.746 11.054 1.392 11.67 2.849z"/>
    <path fill="#3A3A3A" d="M496.419 19.94c-4.864 6.406-2.008 9.282-2.008 14.138 0 0 1.541-3.278 1.476-6.191-.038-1.513 4.154-5.109 11.324-2.027 8.449-2.783 11.801.99 11.801 2.101 0 2.223-.691 1.588 1.139 6.519 1.568-6.22 2.194-10.002-2.241-15.362-4.388-5.305-15.572-6.986-21.491.821z"/>
    <path fill="#E7EAE1" d="M494.346 32.771l-.597 1.074 1.783 8.031.392-1.344-1.578-7.761zM520.123 32.771l.598 1.074-1.784 8.031-.392-1.344 1.578-7.761z"/>
    <path fill="#494949" d="M512.234 18.828c-10.998.486-15.059 6.192-15.059 3.091 0-3.1 3.949-6.024 8.832-6.528 4.883-.504 9.327 3.306 6.227 3.437z"/>
    <g>
      <path fill="#0269AF" d="M525.258 129.307l-17.804.532-17.412.187s-1.186 11.253-1.186 22.479c0 5.603 5.173 90.549 5.173 90.549l8.729-.224 3.576-89.952.046-.047 1.821-.009 4.182 91.138 9.243.159s4.827-88.635 5.154-92.66c.466-5.585-1.522-22.152-1.522-22.152z"/>
      <path fill="#DDD" d="M532.614 165.934c0-30.407 3.959-91.913 3.959-91.913 0-3.932-2.988-8.284-6.657-9.703l-12.65-4.912s-5.807 70.732 5.798 77.54c1.251 34.283 9.55 34.049 9.55 28.988z"/>
      <path fill="#F4F4F4" d="M522.952 78.522l-2.082-6.472 1.634-1.046-1.093-10.245s-3.977-2.717-4.145-1.615c-3.557 22.777-1.111 50.7-1.111 50.7l6.797-31.322z"/>
      <path fill="#F6F7F5" d="M530.159 64.803l-7.907-2.81.84 4.444c3.958-.28 9.112-.784 7.067-1.634z"/>
      <path fill="#003E4D" d="M530.701 81.735h-9.756v4.893h9.756v-4.893z"/>
      <path fill="#F4F4F4" d="M530.439 81.996h-9.233v4.37h9.233v-4.37z"/>
      <path fill="#B7BDBD" d="M526.462 81.212h-1.279v1.074h1.279v-1.074zM524.744 82.425h-2.922v3.596h2.922v-3.596z"/>
      <path fill="#003E61" d="M503.309 249.507c0 1.569-1.802 2.839-4.034 2.839h-2.688c-2.222 0-4.034-1.27-4.034-2.839v-6.052c0-1.569 1.802-1.821 4.034-1.821h2.688c2.222 0 4.034.252 4.034 1.821v6.052z"/>
      <path fill="#3F5E77" d="M503.309 247.873c0 1.177-1.802 2.12-4.034 2.12h-2.688c-2.222 0-4.034-.953-4.034-2.12v-4.53c0-1.176 1.802-3.698 4.034-3.698h2.688c2.222 0 4.034 2.522 4.034 3.698v4.53z"/>
      <path fill="#003E61" d="M522.392 249.507c0 1.569-1.802 2.839-4.034 2.839h-2.688c-2.222 0-4.034-1.27-4.034-2.839v-6.052c0-1.569 1.802-1.821 4.034-1.821h2.688c2.222 0 4.034.252 4.034 1.821v6.052z"/>
      <path fill="#3F5E77" d="M522.392 247.873c0 1.177-1.802 2.12-4.034 2.12h-2.688c-2.222 0-4.034-.953-4.034-2.12v-4.53c0-1.176 1.802-3.698 4.034-3.698h2.688c2.222 0 4.034 2.522 4.034 3.698v4.53z"/>
      <path fill="#B7BDBD" d="M530.047 90.784c2.035 16.959-.98 20.751-8.113 44.649a1.033 1.033 0 00-.28.289c.439.514.896.934 1.4 1.224.197 5.267.551 9.721 1.027 13.466 3.595-3.717 6.601-7.359 9.112-10.917.626-17.081 1.616-35.712 2.362-48.711h-5.508z"/>
      <path fill="#DDD" d="M529.702 141.84c-1.681 1.046-8.44-7.733-6.153-9.227 9.822-23.861 11.596-24.43 6.452-42.212 1.596-7.004-1.401-21.236.952-21.965l.177-3.53c8.207 4.38 8.104 8.881 10.858 16.81 4.201 12.066 10.27 31.948-12.286 60.124z"/>
      <path fill="#EAB794" d="M516.333 143.511c2.455 1.569 4.901 3.157 7.487 4.529.822-1.531 3.66-5.295 4.397-7.331-1.241-.158-3.295-2.213-4.341-4.165-1.848.906-5.228 1.896-5.723 2.727-.99 1.653-1.27 3.512-1.82 4.24z"/>
      <path fill="#DDD" d="M481.294 165.934c0-30.408-3.958-91.913-3.958-91.913 0-3.932 2.987-8.284 6.656-9.704l12.651-4.912s5.807 70.733-5.798 77.541c-1.26 34.283-9.551 34.049-9.551 28.988z"/>
      <path fill="#F4F4F4" d="M490.957 78.522l2.082-6.472-1.634-1.046 1.092-10.245s3.977-2.717 4.145-1.615c3.558 22.777 1.111 50.7 1.111 50.7l-6.796-31.322z"/>
      <path fill="#F6F7F5" d="M483.75 64.803l7.907-2.81-.84 4.444c-3.968-.28-9.112-.784-7.067-1.634z"/>
      <path fill="#B7BDBD" d="M483.852 90.784c-2.035 16.959.981 20.751 8.113 44.649.103.065.196.168.28.289-.438.514-.896.934-1.4 1.224-.196 5.267-.551 9.721-1.027 13.466-3.594-3.717-6.601-7.359-9.112-10.917-.625-17.081-1.615-35.712-2.362-48.711h5.508z"/>
      <path fill="#DDD" d="M484.198 141.84c1.68 1.046 8.44-7.733 6.152-9.227-9.821-23.861-11.595-24.43-6.451-42.212-1.597-7.004 1.4-21.236-.952-21.965l-.178-3.53c-8.206 4.38-8.103 8.881-10.858 16.81-4.192 12.066-10.269 31.948 12.287 60.124z"/>
      <path fill="#EAB794" d="M497.576 143.511c-2.455 1.569-4.901 3.157-7.487 4.529-.822-1.531-3.66-5.295-4.398-7.331 1.242-.158 3.296-2.213 4.342-4.165 1.848.906 5.228 1.896 5.723 2.727.98 1.653 1.269 3.512 1.82 4.24z"/>
    </g>
  </g>
  <g>
    <path fill="#000" d="M450.205 263.44c15.907 0 28.802-2.847 28.802-6.36 0-3.512-12.895-6.359-28.802-6.359s-28.802 2.847-28.802 6.359c0 3.513 12.895 6.36 28.802 6.36z" opacity=".3"/>
    <path fill="#494949" d="M464.966 39.617l-27.775 1.186c0 6.855.187 13.821-1.149 18.64 4.743 5.398 22.062 5.585 30.352-.075-2.633-8.74-1.428-19.751-1.428-19.751z"/>
    <path fill="#3A3A3A" d="M460.167 62.16c2.334-3.184 4.061-8.274 4.061-16.258 0-2.316-.411-4.4-1.148-6.21l-24.713 1.054c-.495 1.55-.775 3.27-.775 5.155 0 8.359 1.877 13.542 4.388 16.689 5.191 1.391 12.305 1.28 18.187-.43z"/>
    <path fill="#E29A59" d="M451.419 85.555l17.132-17.137-11.698-4.511V46.78h-12.455v17.127l-10.559 4.062 17.58 17.586z"/>
    <path fill="#DDD" d="M455.499 92.577l19.736-15.698c0-3.25-2.455-6.827-5.489-7.995l-8.916-3.436c-2.885 4.67-7.012 5.911-9.943 5.911-2.96 0-7.161-1.27-10.046-6.089l-9.373 3.605c-3.035 1.167-5.49 4.744-5.49 7.994l19.27 14.597 10.251 1.111z"/>
    <path fill="#017DE1" d="M470.549 158.099s4.798-25.486.326-36.338c-9.252-22.46 4.762-44.892 4.762-44.892 0-3.39-2.577-7.144-5.742-8.367l-10.074-3.876-8.971 24.486-9.43-24.486-10.074 3.876c-3.165 1.223-5.741 4.968-5.741 8.367 0 0 14.125 25.159 5.489 45.947-4.845 11.674-.653 35.89-.653 35.89l40.108-.607z"/>
    <path fill="#31ACFF" d="M458.524 72.08l2.147-6.174 9.635 3.866c3.071 1.187-11.782 2.307-11.782 2.307z"/>
    <path fill="#D67F43" d="M444.398 59.294c2.521 2.97 5.583 3.828 7.871 3.828a9.873 9.873 0 004.593-1.158v-12.42h-12.464v9.75z"/>
    <path fill="#EFAF6A" d="M464.228 38.991c0 17.641-8.374 21.171-13.322 21.171-4.939 0-13.323-3.53-13.323-21.171 0-8.881 5.966-14.307 13.323-14.307 7.356 0 13.322 5.435 13.322 14.307z"/>
    <path fill="#E29A59" d="M450.905 24.684c-7.114 0-12.902 5.08-13.285 13.438 10.046-.775 14.62-2.615 16.646-6.192 2.176 3.25 5.434 4.875 9.869 5.258-.757-7.798-6.386-12.504-13.23-12.504z"/>
    <path fill="#494949" d="M467.234 37.263c1.662-11.505-5.424-21.591-13.78-19.322-6.059-4.37-20.493-4.016-19.438 20.405 12.604-.607 18-5.127 20.25-9.105 2.661 3.969 6.928 8.209 12.968 8.022z"/>
    <path fill="#EFAF6A" d="M439.086 41.596c.579 3.072-.103 5.771-1.522 6.033-1.41.261-3.025-2.008-3.604-5.08-.578-3.073.103-5.772 1.522-6.033 1.419-.262 3.034 2.008 3.604 5.08zM462.071 41.596c-.578 3.072.103 5.771 1.522 6.033 1.41.261 3.025-2.008 3.604-5.08.579-3.073-.103-5.772-1.522-6.033-1.419-.262-3.034 2.008-3.604 5.08z"/>
    <path fill="#606060" d="M439.833 20.126c-.616.663-2.773 4.343-3.119 7.275-.158 1.345 17.3-7.742 14.966-8.853-1.391-.663-7.478-3.129-11.847 1.578z"/>
    <g>
      <path fill="#003E4D" d="M466.581 86.815H456.05v5.276h10.531v-5.276z"/>
      <path fill="#F4F4F4" d="M466.291 87.095h-9.961v4.716h9.961v-4.716z"/>
      <path fill="#B7BDBD" d="M462.006 86.254h-1.382v1.158h1.382v-1.158zM460.158 87.562h-3.156v3.885h3.156v-3.885z"/>
    </g>
    <path fill="#0269AF" d="M472.714 138.739c-6.311 2.465-13.406 3.847-21.911 3.847-8.225 0-15.834-1.363-22.033-3.679 0 10.076 1.68 19.789 1.68 19.807l12.314 95.621h6.984l-.374-95.901 2.176-.037-.374 95.938h6.984l13.705-103.297c.504-3.502.943-7.901.849-12.299z"/>
    <g>
      <path fill="#003E61" d="M450.214 256.352c0 1.242-1.428 2.241-3.192 2.241h-2.129c-1.765 0-3.193-1.008-3.193-2.241v-4.791c0-1.242 1.428-1.438 3.193-1.438h2.129c1.764 0 3.192.205 3.192 1.438v4.791z"/>
      <path fill="#DDD" d="M450.214 255.063c0 .925-1.428 1.681-3.192 1.681h-2.129c-1.765 0-3.193-.756-3.193-1.681v-3.586c0-.925 1.428-2.923 3.193-2.923h2.129c1.764 0 3.192 1.998 3.192 2.923v3.586z"/>
    </g>
    <g>
      <path fill="#003E61" d="M459.262 256.352c0 1.242-1.429 2.241-3.193 2.241h-2.129c-1.764 0-3.193-1.008-3.193-2.241v-4.791c0-1.242 1.429-1.438 3.193-1.438h2.129c1.764 0 3.193.205 3.193 1.438v4.791z"/>
      <path fill="#DDD" d="M459.262 255.063c0 .925-1.429 1.681-3.193 1.681h-2.129c-1.764 0-3.193-.756-3.193-1.681v-3.586c0-.925 1.429-2.923 3.193-2.923h2.129c1.764 0 3.193 1.998 3.193 2.923v3.586z"/>
    </g>
    <path fill="#F4F4F4" d="M461.493 133.257l-20.754.009-3.035-35.114 26.804-.01-3.015 35.115z"/>
    <path fill="#EAB794" d="M443.577 111.777c-1.326.056-3.847.056-4.463-.896-.616-.953-7.413 1.662-7.413 1.662l-.093 4.838s5.406 1.298 8.01 1.26c9.495-.13 16.787-7.424 3.959-6.864z"/>
    <path fill="#017DE1" d="M430.936 118.249c1.988-.103 3.893-7.742 1.148-7.658-5.004-1.812-8.122-3.642-8.935-5.995-1.129-3.26 5.798-12.347 9.962-17.38 3.622-8.741-3.594-16.987-3.594-16.987-5.798 3.679-19.382 31.91-17.151 40.418.924 3.502 9.29 5.249 18.57 7.602z"/>
    <path fill="#EAB794" d="M458.748 111.777c1.335.056 3.846.056 4.462-.896.617-.953 7.423 1.662 7.423 1.662l.093 4.838s-5.415 1.298-8.01 1.26c-9.495-.13-16.796-7.424-3.968-6.864z"/>
    <path fill="#017DE1" d="M471.398 118.249c-1.988-.102-3.902-7.742-1.148-7.658 5.004-1.811 8.122-3.642 8.935-5.995 1.129-3.259-5.798-12.346-9.962-17.38-3.622-8.741 2.259-17.146 2.259-17.146 5.798 3.68 20.727 32.07 18.495 40.568-.915 3.511-9.289 5.258-18.579 7.611z"/>
    <path fill="#31ACFF" d="M430.506 69.724l9.831-3.82 3.221 7.341s-21.473.915-13.052-3.52z"/>
    <path fill="#B7BDBD" d="M464.378 99.665l.13-1.522-26.804.009.131 1.513h26.543z"/>
  </g>
  <path fill="#000" d="M173.605 264.869c19.485 0 35.281-3.487 35.281-7.789 0-4.301-15.796-7.788-35.281-7.788s-35.281 3.487-35.281 7.788c0 4.302 15.796 7.789 35.281 7.789z" opacity=".3"/>
  <g>
    <path fill="#E29A59" d="M200.4 78.904v-4.781c0-3.586-2.707-7.537-6.059-8.826l-13.043-5.024V39.15h-16.132v21.124l-13.043 5.024c-3.342 1.29-6.059 5.24-6.059 8.826v4.781H200.4z"/>
    <path fill="#D67F43" d="M165.165 41.801v11.72c2.465 4.119 5.789 5.856 8.067 6.258 2.278.41 5.601.12 8.066-2.97V44.687l-8.066-3.474-8.067.588z"/>
    <path fill="#EFAF6A" d="M186.601 34.993c0 18.248-8.412 21.89-13.369 21.89-4.958 0-13.369-3.651-13.369-21.89 0-9.18 5.984-14.802 13.369-14.802 7.385.01 13.369 5.622 13.369 14.802z"/>
    <path fill="#EFAF6A" d="M162.43 38.42c.541 2.886-.094 5.426-1.429 5.678-1.325.252-2.847-1.886-3.389-4.772-.541-2.886.094-5.426 1.429-5.678 1.335-.252 2.847 1.877 3.389 4.772zM184.043 38.42c-.542 2.886.093 5.426 1.428 5.678 1.326.252 2.848-1.886 3.389-4.772.542-2.886-.093-5.426-1.428-5.678-1.326-.261-2.848 1.877-3.389 4.772z"/>
    <path fill="#E29A59" d="M186.536 33.452c-5.294-7.125-20.941-8.601-26.608.093v.028c-.009.01 10.867-9.899 26.608-.121z"/>
    <path fill="#474747" d="M185.705 29.305c-.607 16.764-3.949 25.085-12.473 25.085-8.561 0-11.866-8.321-12.473-25.085-.57 1.7-.896 3.596-.896 5.697 0 18.248 8.411 22.74 13.369 22.74 4.957 0 13.369-4.492 13.369-22.74 0-2.101-.327-3.997-.896-5.697z"/>
    <path fill="#017DE1" d="M159.872 21.919v11.71c5.629-8.797 21.389-7.321 26.682-.158V21.536c-2.707-3.68-8.159-9.34-13.593-9.349-5.182-.009-10.344 5.436-13.089 9.732z"/>
    <path fill="#31ACFF" d="M172.998 12.934c-3.417-.037-9.634 4.857-12.202 9.46v4.353c9.831-5.697 12.202-13.813 12.202-13.813z"/>
    <path fill="#474747" d="M171.692 52.252l-2.045 2.045 1.951 1.952h3.455l1.951-1.952-2.045-2.045h-3.267z"/>
    <path fill="#474747" d="M168.48 46.956c-1.391 1.392 0 7.891 0 7.891h.971s-1.121-5.201 0-6.313c1.354-1.354 6.32-1.354 7.683 0 1.121 1.121 0 6.313 0 6.313h.971s1.391-6.5 0-7.89c-1.699-1.7-7.926-1.7-9.625 0z"/>
    <path fill="#0269AF" d="M153.43 184.163c-.654-.01-1.307-.028-1.961-.038 1.699 18.164 3.118 32.705 4.416 46.022.112 1.186.448 6.649.551 7.695.093.962-1.624 6.108-1.54 6.939.42 4.259 2.418 5.585 2.418 5.585l11.259.738 1.12-5.305-.887-5.771 1.149-55.548c-5.509-.093-11.017-.205-16.525-.317zM174.875 184.564l2.567 56.014-1.139 5.034 1.606 5.192 10.111.169s1.914-1.607 2.297-5.893c.103-1.158-1.485-6.846-1.363-8.237 1.186-13.093 3.277-32.509 5.032-52.027-6.358-.047-12.734-.14-19.111-.252z"/>
    <path fill="#017DE1" d="M197.076 196.425c0-15.269-.112-50.841 1.961-79.745 1.68-23.45 5.629-42.566 5.629-42.566 0-3.885-3.164-8.181-7.058-9.582l-15.059-5.445-9.625 19.64-9.15-19.64-15.059 5.445c-3.893 1.4-7.058 5.697-7.058 9.582 0 0 3.501 15.157 5.312 43.042 1.662 25.552 1.653 63.243 1.653 79.194 0 7.023 48.454 6.836 48.454.075z"/>
    <path fill="#31ACFF" d="M180.729 66.39l2.334-6.257 14.228 5.146c3.352 1.205-16.562 1.111-16.562 1.111zM149.023 65.279l14.219-5.136 4.65 9.88s-31.052 1.233-18.869-4.744z"/>
    <path fill="#003E4D" d="M192.707 81.08h-10.671v5.352h10.671V81.08z"/>
    <path fill="#F4F4F4" d="M192.427 81.37h-10.102v4.771h10.102V81.37z"/>
    <path fill="#B7BDBD" d="M188.076 80.51h-1.4v1.177h1.4v-1.176zM186.2 81.836h-3.203v3.932h3.203v-3.932z"/>
    <path fill="#003E61" d="M168.583 257.846c0 1.709-1.97 3.1-4.407 3.1h-2.941c-2.437 0-4.407-1.391-4.407-3.1v-6.612c0-1.709 1.97-1.989 4.407-1.989h2.941c2.437 0 4.407.28 4.407 1.989v6.612z"/>
    <path fill="#3F5E77" d="M168.583 256.062c0 1.28-1.97 2.326-4.407 2.326h-2.941c-2.437 0-4.407-1.037-4.407-2.326v-4.959c0-1.279 1.97-4.043 4.407-4.043h2.941c2.437 0 4.407 2.755 4.407 4.043v4.959z"/>
    <path fill="#003E61" d="M188.888 257.846c0 1.709-1.97 3.1-4.406 3.1h-2.941c-2.437 0-4.407-1.391-4.407-3.1v-6.612c0-1.709 1.97-1.989 4.407-1.989h2.941c2.436 0 4.406.28 4.406 1.989v6.612z"/>
    <path fill="#3F5E77" d="M188.888 256.062c0 1.28-1.97 2.326-4.406 2.326h-2.941c-2.437 0-4.407-1.037-4.407-2.326v-4.959c0-1.279 1.97-4.043 4.407-4.043h2.941c2.436 0 4.406 2.755 4.406 4.043v4.959z"/>
    <path fill="#0269AF" d="M197.067 91.185c2.082 17.37-.999 21.255-8.309 45.723-.103.065-3.725 3.707-3.809 3.829 2.838 1.727 5.247 5.248 5.723 9.086 1.895-1.615 4.406-1.242 6.974-4.884.635-17.492 4.294-40.437 5.06-53.764h-5.639v.01z"/>
    <path fill="#017DE1" d="M196.712 143.464c-1.718 1.074-8.645-7.92-6.293-9.451 10.055-24.44 11.876-25.028 6.61-43.23 1.634-7.172-1.437-21.75.981-22.497l.177-3.614c8.402 4.482 8.3 9.096 11.129 17.22 4.285 12.365 10.503 32.724-12.604 61.572z"/>
    <path fill="#EAB794" d="M183.016 145.182c2.511 1.606 5.013 3.231 7.665 4.641.84-1.569 4.136-4.445 4.892-6.537-.924-.439-3.735-3.633-4.799-5.631-1.895.924-5.387 2.335-5.891 3.184-1.008 1.691-1.298 3.596-1.867 4.343z"/>
    <path fill="#0269AF" d="M149.761 91.185c-3.025 18.463 1.382 25.766 12.669 50.579.103.065-5.798 4.231-6.283 8.069-1.914.224-5.481-1.784-8.048-5.426-.635-17.492-3.221-39.905-3.986-53.222h5.648z"/>
    <path fill="#017DE1" d="M150.116 143.464c1.717 1.074 8.645-7.92 6.292-9.451-10.055-24.44-11.875-25.028-6.61-43.23-1.634-7.172 1.438-21.75-.98-22.497l-.177-3.614c-8.403 4.482-8.3 9.096-11.129 17.22-4.285 12.365-10.503 32.724 12.604 61.572z"/>
    <path fill="#EAB794" d="M163.812 145.182c-2.512 1.607-5.014 3.232-7.665 4.642-.84-1.569-4.127-4.464-4.874-6.547 1.784-1.251 3.623-3.941 4.781-5.603 1.895.924 5.396 2.316 5.9 3.166.999 1.69 1.288 3.595 1.858 4.342z"/>
    <path fill="#31ACFF" d="M162.859 161.964c1.149-5.603.934-14.858.934-24.916-3.025 3.446-13.901 8.676-13.901 8.676 0 7.956.55 13.027 1.559 16.249h11.408v-.009zM183.604 161.964c-1.148-5.603-.934-14.858-.934-24.916 3.025 3.446 13.902 8.676 13.902 8.676 0 7.956-.551 13.027-1.559 16.249h-11.409v-.009z"/>
  </g>
  <path fill="#000" d="M309.772 288.702c25.853 0 46.811-4.629 46.811-10.338 0-5.71-20.958-10.339-46.811-10.339s-46.811 4.629-46.811 10.339c0 5.709 20.958 10.338 46.811 10.338zM241.077 273.993c19.485 0 35.281-3.487 35.281-7.789 0-4.301-15.796-7.788-35.281-7.788s-35.281 3.487-35.281 7.788c0 4.302 15.796 7.789 35.281 7.789zM378.168 273.993c19.485 0 35.281-3.487 35.281-7.789 0-4.301-15.796-7.788-35.281-7.788s-35.281 3.487-35.281 7.788c0 4.302 15.796 7.789 35.281 7.789z" opacity=".3"/>
  <g>
    <path fill="#EAB794" d="M226.457 129.138l15.124 6.061 14.798-5.323s3.93 11.459 3.93 22.88c0 5.706-5.741 51.056-5.741 51.401l-6.9 53.923-4.602 3.035.298-32.004.215-32.219s-.569-27.307-.299-34.433c.084-2.334.794-9.311.794-9.311l-1.578-.046-2.866-.01s.775 6.902.868 9.208c.299 7.145-.326 34.48-.326 34.48l.326 32.022-.205 32.182-4.584-1.924-6.731-54.081c0-2.353-5.639-48.235-5.91-52.335-.383-5.697 3.389-23.506 3.389-23.506z"/>
    <path fill="#0569B5" d="M258.405 129.409l-.252-6.556h-33.61l-.159 5.995c-.196.635-4.864 16.231-4.696 21.657.065 2.055 2.138 14.914 4.248 28.035.962 5.949 2.829 14.046 2.829 17.735 0 7.527 29.726 7.518 30.099 0 .654-13.075 6.993-41.558 6.806-45.705-.485-10.692-5.219-21.059-5.265-21.161z"/>
    <path fill="#0766A0" d="M229.827 185.825c-2.792-11.197-6.143-24.683-6.535-27.12-.766-4.847-.262-18.594.121-26.504-1.4 4.996-3.846 14.363-3.725 18.295.065 2.055 1.54 14.765 3.66 27.886.961 5.949 1.998 12.262 2.81 17.669.569 3.801 6.656 4.856 6.656 4.856-.746-3.054-2.063-11.384-2.987-15.082zM259.563 132.22c.663 6.098 1.512 16.978.513 26.569-.551 5.323-7.45 31.406-10.279 42.314 0 0 4.659-.831 6.433-3.138 2.464-3.203 7.655-43.248 7.459-47.404-.345-7.349-2.689-14.559-4.126-18.341z"/>
    <path fill="#0468B4" d="M234.262 256.09s-2.782 4.576-3.006 6.108c-.224 1.532-.719 5.846.541 6.388 1.261.541 6.545.635 7.264.177.719-.448 2.259-3.502 2.39-5.211.14-1.718-.896-8.582-.896-8.582l-6.293 1.12z"/>
    <path fill="#EAB794" d="M234.383 255.53s-2.866 5.725-.999 7.994c.747.915 7.45-.822 7.17-8.498-.289-7.677-6.171.504-6.171.504z"/>
    <path fill="#0468B4" d="M249.116 256.09s2.782 4.576 3.006 6.108c.224 1.532.719 5.846-.542 6.388-1.26.541-6.544.635-7.263.177-.719-.448-2.26-3.502-2.39-5.211-.131-1.718.896-8.582.896-8.582l6.293 1.12z"/>
    <path fill="#EAB794" d="M248.994 255.53s2.866 5.725.999 7.994c-.747.915-7.45-.822-7.17-8.498.289-7.677 6.171.504 6.171.504z"/>
    <path fill="#FFB048" d="M249.676 15.39c-6.536-5.407-27.458-1.009-27.458 24.953 0 19.705 7.656 21.564-2.418 33.788 7.189 6.145 28.242 8.826 33.181 4.782 4.938-4.044 9.158-17.781 9.709-31.453.579-14.588-3.118-29.623-13.014-32.07z"/>
    <path fill="#EF9A33" d="M258.386 45.013c0-9.852-7.179-15.885-16.039-15.885-8.86 0-16.039 6.033-16.039 15.885 0 19.584 10.092 23.506 16.039 23.506 5.947 0 16.039-3.922 16.039-23.506z"/>
    <path fill="#EAB794" d="M257.201 113.131l10.419-36.824c0-3.37-2.549-7.097-5.704-8.302l-13.398-5.164V45.05h-12.94v17.79l-13.397 5.164c-3.146 1.214-5.704 4.931-5.704 8.302l10.419 36.824h30.305z"/>
    <path fill="#31ACFF" d="M258.05 124.972l9.57-47.432c0-3.68-2.549-7.742-5.704-9.068l-13.398-5.631c-2.997 5.295-6.526 7.732-6.526 7.732s-3.51-2.605-6.414-7.732l-13.397 5.63c-3.146 1.327-5.704 5.38-5.704 9.069l10.354 47.432h31.219z"/>
    <path fill="#DDD" d="M239.612 176.205l-7.124-112.617-10.466 4.034c-3.286 1.27-5.965 5.165-5.965 8.685 0 0 6.171 30.903 6.171 41.203 0 9.377-7.226 31.22-7.852 43.8-.457 9.339 25.236 14.895 25.236 14.895zM269.702 164.046c-1.289-12.047-8.636-36.758-8.72-46.218-.103-10.525 7.562-40.83 7.562-40.83 0-3.52-3.193-8.106-6.479-9.376l-10.466-4.034-5.611 112.309c.009 0 24.629-3.343 23.714-11.851z"/>
    <path fill="#D19A75" d="M235.578 58.05c2.624 3.082 5.807 3.979 8.179 3.979 1.4 0 3.08-.318 4.77-1.205V47.917h-12.94V58.05h-.009z"/>
    <path fill="#F4F4F4" d="M255.856 69.742l-.7-4.333 7.469 2.998c3.193 1.242-6.769 1.335-6.769 1.335z"/>
    <path fill="#F4C3A2" d="M256.174 36.963c0 18.323-8.701 21.993-13.836 21.993s-13.836-3.66-13.836-21.993c0-9.218 6.19-14.867 13.836-14.867s13.836 5.64 13.836 14.867z"/>
    <path fill="#F4C3A2" d="M253.933 39.662c-.597 3.185.103 5.996 1.578 6.276 1.466.28 3.146-2.083 3.744-5.277.597-3.184-.103-5.995-1.578-6.275-1.466-.271-3.146 2.091-3.744 5.276z"/>
    <path fill="#F4F4F4" d="M237.277 139.345l-4.789-75.757-2.614 1.009-1.494 9.227 2.007 3.82-3.174 3.39 10.064 58.311zM256.64 81.435l-2.259-3.484 1.223-3.576-1.428-9.797-2.568-.99-3.706 74.085 8.738-56.238z"/>
    <path fill="#F4C3A2" d="M253.933 39.662c-.597 3.185.103 5.996 1.578 6.276 1.466.28 3.146-2.083 3.744-5.277.597-3.184-.103-5.995-1.578-6.275-1.466-.271-3.146 2.091-3.744 5.276z"/>
    <path fill="#6CCBFF" d="M242.058 70.574c-1.298 1.345-8.562 3.969-7.964-7.611 1.232-.617 1.428-.85 1.428-.85l6.536 8.46z"/>
    <path fill="#6CCBFF" d="M241.992 70.574c1.298 1.345 8.561 3.969 7.964-7.611-1.232-.617-1.429-.85-1.429-.85l-6.535 8.46z"/>
    <path fill="#EF9A33" d="M242.338 19.602c-7.637 0-15.312 10.516-15.312 16.633 6.685 1.317 22.108 4.1 25.152-8.75.149-.626 2.735 2.362 3.902 7.545 6.47-2.55-7.786-15.428-13.742-15.428z"/>
    <path fill="#F4C3A2" d="M230.061 39.662c.597 3.185-.103 5.996-1.578 6.276-1.466.28-3.146-2.083-3.744-5.277-.597-3.184.103-5.995 1.578-6.275 1.475-.271 3.146 2.091 3.744 5.276z"/>
    <path fill="#FFB048" d="M258.853 43.902h2.502c2.997-6.024-1.176-13.336-10.185-26.999-1.737-1.158-19.41-6.145-25.283 9.264-3.454 9.059-1.755 9.395-1.755 9.395s23.378 6.976 27.047-10.16c.317-1.485 8.001 9.815 7.674 18.5z"/>
    <path fill="#FFC176" d="M232.862 17.641c-.831.691-6.806 8.377-3.791 8.993 6.704 1.364 20.932-10.16 17.804-11.318-1.858-.692-8.15-2.569-14.013 2.325z"/>
    <g>
      <path fill="#003E4D" d="M264.175 86.637h-10.942v5.482h10.942v-5.482z"/>
      <path fill="#F4F4F4" d="M263.876 86.927h-10.354v4.893h10.354v-4.893z"/>
      <path fill="#B7BDBD" d="M259.423 86.049h-1.438v1.204h1.438V86.05zM257.499 87.403h-3.277v4.034h3.277v-4.034z"/>
    </g>
    <g>
      <path fill="#B7BDBD" d="M248.714 96.376c-2.39-2.792-4.014-7.975-4.024-13.933h.486c.009 5.52 1.419 10.347 3.538 13.102v.831zM256.911 95.396c2.054-2.774 3.408-7.537 3.417-12.953h.486c-.01 5.855-1.578 10.964-3.912 13.793v-.84h.009z"/>
      <path fill="#B7BDBD" d="M256.379 96.33a.345.345 0 10.691 0v-1.046a.345.345 0 10-.691 0v1.046zM248.537 96.33a.345.345 0 10.691 0v-1.046a.345.345 0 10-.691 0v1.046z"/>
      <path fill="#B7BDBD" d="M255.156 95.919c0 .346.28.635.635.635h.084a.635.635 0 000-1.27h-.084a.636.636 0 00-.635.635zM249.06 95.919c0 .346.28.635.635.635h.084a.636.636 0 000-1.27h-.084a.636.636 0 00-.635.635z"/>
      <path fill="#003E4D" d="M245.419 82.798v-.243c.018-8.424 3.304-15.278 7.338-15.278 4.024 0 7.31 6.855 7.338 15.278v.243h.98v-.243c-.019-9.03-3.753-16.38-8.318-16.38-4.566 0-8.291 7.35-8.319 16.38v.243h.981z"/>
      <path fill="#003E4D" d="M248.509 61.207c2.185 1.485 3.837 3.483 4.687 5.8h-.812c-.766-1.887-2.12-3.54-3.875-4.829v-.971z"/>
      <g>
        <path fill="#003E4D" d="M231.078 92.1h.906c-1.223-11.506 1.858-28.596 3.604-29.885v-.97c-2.176 1.475-5.359 15.063-4.51 30.855z"/>
        <path fill="#003E4D" d="M231.555 102.269a5.272 5.272 0 005.265-5.267 5.272 5.272 0 00-5.265-5.267 5.272 5.272 0 00-5.266 5.267 5.272 5.272 0 005.266 5.267z"/>
        <path fill="#B7BDBD" d="M236.484 97.002a4.921 4.921 0 00-4.92-4.921 4.921 4.921 0 000 9.843 4.928 4.928 0 004.92-4.922z"/>
        <path fill="#6A686B" d="M232.75 97.002c0-.663-.532-1.195-1.195-1.195s-1.195.532-1.195 1.195.532 1.196 1.195 1.196 1.195-.542 1.195-1.196z"/>
        <path fill="#DDD" d="M229.501 97.908a2.586 2.586 0 002.054 1.018c.84 0 1.577-.402 2.053-1.018h1.569a3.638 3.638 0 01-3.622 3.371 3.638 3.638 0 01-3.623-3.371h1.569z"/>
      </g>
    </g>
    <path fill="#D19A75" d="M244.793 46.013c-.42.607-1.279 1.027-2.278 1.027-.999 0-1.858-.42-2.278-1.027h4.556z"/>
    <path fill="#48545B" d="M222.237 117.222c0 .093.009.196.009.289 0 2.624-.485 6.724-1.185 11.263l13.584-.019-.458-11.627-11.95.094z" opacity=".2"/>
    <path fill="#69452B" d="M245.153 101.188l-24.635 3.868 5.656 36.037 24.635-3.869-5.656-36.036z"/>
    <path fill="#EAB794" d="M248.116 113.719c-1.475.589-4.257 2.279-5.162 1.214-.915-1.064-5.779 4.558-5.779 4.558l-1.821 4.865s10.942.607 13.808-.588c2.876-1.177.439-10.637-1.046-10.049z"/>
    <path fill="#DDD" d="M237.781 126.112c1.924-.401 1.074-10.086-1.596-9.581-30.015 3.726-22.677-9.713-16.413-28.96.906-2.783 3.931-18.958 1.559-19.64-10.549 6.528-12.968 16.212-15.311 25.112-5.191 19.743-8.206 35.581 31.761 33.069z"/>
    <path fill="#F4F4F4" d="M221.154 68.884l7.516-2.914-1.158 7.275c.009-.01-13.22-.626-6.358-4.361zM233.515 146.405s1.522 23.105-.607 22.806c-2.129-.308-10.942-2.755-12.762-6.388-1.83-3.633 1.82-11.86 1.82-11.86l11.549-4.558z"/>
    <g opacity=".2">
      <path fill="#48545B" d="M264.063 136.385c-1.55 3.353-3.52 7.06-6.013 11.225-2.269 1.504 2.81 7.836 4.472 6.78a79.822 79.822 0 004.267-5.921c-.887-3.978-1.849-8.115-2.726-12.084z" opacity=".2"/>
    </g>
    <path fill="#EAB794" d="M259.815 144.958c-1.849.896-5.621 2.867-5.051 3.763.756 1.177-1.662 3.353-2.652 4.604-.989 1.242 7.367 6.295 9.327 3.895 1.008-1.233 2.166-4.604 3.053-7.621-1.27-.224-3.492-2.512-4.677-4.641z"/>
    <path fill="#F4F4F4" d="M252.15 146.714s-1.289 23.104.84 22.805c2.129-.308 10.942-2.746 12.762-6.388 1.83-3.632-1.82-11.86-1.82-11.86l-11.782-4.557z"/>
    <path fill="#DDD" d="M265.08 149.534c-1.661 1.055-7.823-6.453-5.555-7.966 16.329-27.316 11.764-30.277 5.499-49.524 1.251-7.434-3.837-18.23-1.465-18.911l-.019-4.492c8.664 5.024 8.813 10.553 12.081 19.154 4.976 13.093 8.561 37.635-10.541 61.739z"/>
  </g>
  <g>
    <path fill="#3F5E77" d="M397.802 131.015l-20.129 6.733-19.69-5.912s-1.344 12.729-1.344 25.421c0 6.341 5.854 102.41 5.854 102.41l9.868-.252 4.052-101.729.056-.056 2.063-.009 4.733 103.073 10.457.177s5.461-100.243 5.826-104.8c.504-6.323-1.746-25.056-1.746-25.056z"/>
    <path fill="#EAB794" d="M398.764 119.22l12.37-48.067c0-4.352-3.342-9.152-7.469-10.712l-16.086-6.098V28.68h-19.904v25.654l-16.087 6.098c-4.126 1.569-7.468 6.36-7.468 10.712l12.37 48.067h42.274v.009z"/>
    <path fill="#31ACFF" d="M397.008 145.07l13.575-74.188c0-4.417-3.314-9.31-7.385-10.898l-15.75-6.192-10.064 22.339-9.569-22.339-15.75 6.192c-4.071 1.587-7.385 6.472-7.385 10.898l13.574 74.188h38.754z"/>
    <path fill="#FFB048" d="M377.795 41.4c-1.54 0-2.988-.234-4.323-.59.598-.84 1.858-1.083 4.416-1.083 2.512 0 3.772.234 4.379 1.037-1.382.383-2.885.635-4.472.635z"/>
    <path fill="#FED1AA" d="M392.144 23.927c0 20.069-8.972 23.347-14.256 23.347-5.284 0-14.256-3.895-14.256-23.348 0-9.787 6.386-15.782 14.256-15.782 7.88 0 14.256 5.986 14.256 15.783z"/>
    <path fill="#FED1AA" d="M365.368 27.569c.579 3.081-.102 5.79-1.521 6.06-1.419.271-3.035-2.017-3.613-5.09-.579-3.081.102-5.79 1.521-6.06 1.41-.27 3.035 2.008 3.613 5.09zM390.174 27.569c-.578 3.081.103 5.79 1.522 6.06 1.419.271 3.034-2.017 3.613-5.09.579-3.081-.102-5.79-1.521-6.06-1.42-.27-3.035 2.008-3.614 5.09z"/>
    <path fill="#D19A75" d="M367.786 45.2c.841 6.164 5.35 9.19 11.334 9.19 3.8 0 6.489-1.065 8.468-3.007v-5.155L367.786 45.2z"/>
    <path fill="#474747" d="M384.265 40.307c-.299-2.036-1.643-3.231-6.367-3.231-4.78 0-6.097 1.223-6.377 3.296-5.508 0-8.029-15.007-8.029-15.007-.084 15.325 2.334 25.878 14.406 25.878 12.603 0 15.451-14.065 14.256-27.102-.01.01-1.793 16.166-7.889 16.166zm-6.47 1.317c-1.541 0-2.988-.234-4.323-.589.598-.84 1.858-1.083 4.416-1.083 2.512 0 3.772.233 4.379 1.037-1.382.383-2.885.635-4.472.635z"/>
    <path fill="#EAB794" d="M390.791 17.857c.102-.122.186-.243.289-.355-2.129-5.921-7.226-9.358-13.192-9.358-5.573 0-10.391 3.017-12.734 8.246.205.3.439.57.737.766 3.072 2.101 18.841 7.34 24.9.7z"/>
    <path fill="#474747" d="M365.172 16.325c-3.109-1.943-1.391-9.069 6.498-10.983 9.962-2.428 18.738 3.213 18.607-2.848 2.96 1.886 6.003 9.105.607 14.484-6.255 6.257-22.547 1.326-25.712-.654z"/>
    <path fill="#DDD" d="M406.746 174.347c0-34.385 4.481-103.95 4.481-103.95 0-4.446-3.379-9.368-7.524-10.974L389.4 53.876s-6.573 79.997 6.554 87.701c1.419 38.775 10.792 38.504 10.792 32.77z"/>
    <path fill="#F4F4F4" d="M395.823 75.496l-2.353-7.322 1.849-1.186-1.233-11.59s-4.5-3.072-4.696-1.83c-4.024 25.766-1.26 57.35-1.26 57.35l7.693-35.422z"/>
    <path fill="#606060" d="M381.669 9.395c-12.445.542-17.029 7.004-17.029 3.502s4.472-6.808 9.99-7.387c5.518-.579 10.54 3.727 7.039 3.885z"/>
    <path fill="#F6F7F5" d="M403.973 59.974l-8.944-3.175.952 5.024c4.482-.308 10.307-.887 7.992-1.849z"/>
    <g>
      <path fill="#003E4D" d="M404.589 79.128h-11.035v5.529h11.035v-5.529z"/>
      <path fill="#F4F4F4" d="M404.291 79.427h-10.438v4.94h10.438v-4.94z"/>
      <path fill="#B7BDBD" d="M399.8 78.54h-1.447v1.214h1.447V78.54zM397.858 79.904h-3.305v4.071h3.305v-4.071z"/>
    </g>
    <g>
      <path fill="#003E61" d="M373.612 268.876c0 1.774-2.044 3.203-4.556 3.203h-3.043c-2.521 0-4.556-1.438-4.556-3.203v-6.837c0-1.774 2.044-2.063 4.556-2.063h3.043c2.521 0 4.556.289 4.556 2.063v6.837z"/>
      <path fill="#DDD" d="M373.612 267.026c0 1.326-2.044 2.4-4.556 2.4h-3.043c-2.521 0-4.556-1.074-4.556-2.4v-5.127c0-1.326 2.044-4.174 4.556-4.174h3.043c2.521 0 4.556 2.848 4.556 4.174v5.127z"/>
    </g>
    <g>
      <path fill="#003E61" d="M394.609 268.876c0 1.774-2.044 3.203-4.556 3.203h-3.043c-2.521 0-4.556-1.438-4.556-3.203v-6.837c0-1.774 2.044-2.063 4.556-2.063h3.043c2.521 0 4.556.289 4.556 2.063v6.837z"/>
      <path fill="#DDD" d="M394.609 267.026c0 1.326-2.044 2.4-4.556 2.4h-3.043c-2.521 0-4.556-1.074-4.556-2.4v-5.127c0-1.326 2.044-4.174 4.556-4.174h3.043c2.521 0 4.556 2.848 4.556 4.174v5.127z"/>
    </g>
    <path fill="#B7BDBD" d="M403.852 89.364c2.306 19.182-1.102 23.468-9.168 50.495-.122.074-.215.196-.309.327.495.588 1.018 1.055 1.578 1.391.215 5.958.626 10.992 1.158 15.232 4.071-4.203 7.469-8.331 10.307-12.346.7-19.322 1.83-40.391 2.67-55.1h-6.236z"/>
    <path fill="#DDD" d="M403.46 147.096c-1.896 1.187-9.542-8.75-6.956-10.431 11.11-26.98 13.118-27.634 7.292-47.74 1.811-7.92-1.587-24.02 1.083-24.842l.196-3.987c9.28 4.95 9.168 10.039 12.286 19.014 4.752 13.644 11.614 36.132-13.901 67.986z"/>
    <path fill="#EAB794" d="M388.335 149.002c2.773 1.774 5.536 3.576 8.468 5.127.924-1.737 4.136-5.996 4.967-8.293-1.401-.178-3.735-2.503-4.911-4.707-2.091 1.027-5.91 2.148-6.47 3.082-1.102 1.858-1.428 3.959-2.054 4.791z"/>
    <path fill="#DDD" d="M348.713 174.347c0-34.385-4.482-103.95-4.482-103.95 0-4.446 3.38-9.368 7.525-10.974l14.303-5.547s6.573 79.997-6.554 87.701c-1.409 38.775-10.792 38.504-10.792 32.77z"/>
    <path fill="#F4F4F4" d="M359.645 75.496l2.353-7.322-1.849-1.186 1.233-11.59s4.5-3.072 4.696-1.83c4.024 25.766 1.26 57.35 1.26 57.35l-7.693-35.422z"/>
    <path fill="#F6F7F5" d="M351.495 59.974l8.944-3.175-.952 5.024c-4.491-.308-10.307-.887-7.992-1.849z"/>
    <path fill="#B7BDBD" d="M351.607 89.364c-2.306 19.182 1.102 23.468 9.168 50.495.122.074.215.196.308.327-.495.588-1.017 1.055-1.578 1.391-.214 5.958-.625 10.992-1.157 15.232-4.071-4.203-7.469-8.331-10.307-12.346-.7-19.322-1.83-40.391-2.67-55.1h6.236z"/>
    <path fill="#DDD" d="M351.999 147.096c1.895 1.187 9.542-8.75 6.956-10.431-11.11-26.98-13.118-27.634-7.292-47.74-1.811-7.92 1.587-24.02-1.083-24.842l-.196-3.987c-9.28 4.95-9.168 10.039-12.286 19.014-4.743 13.644-11.605 36.132 13.901 67.986z"/>
    <path fill="#EAB794" d="M367.124 149.002c-2.773 1.774-5.537 3.576-8.468 5.127-.925-1.737-4.136-5.996-4.967-8.293 1.4-.178 3.734-2.503 4.911-4.707 2.091 1.027 5.909 2.148 6.47 3.082 1.111 1.858 1.428 3.959 2.054 4.791z"/>
    <g>
      <path fill="#B7BDBD" d="M367.46 90.914c2.67-3.12 4.481-8.91 4.5-15.568h-.551c-.019 6.164-1.587 11.561-3.949 14.634v.934zM358.301 89.821c-2.287-3.1-3.809-8.414-3.819-14.475h-.55c.018 6.546 1.764 12.252 4.369 15.41v-.935z"/>
      <path fill="#B7BDBD" d="M358.898 90.867a.394.394 0 01-.392.392.394.394 0 01-.392-.392V89.7c0-.215.177-.393.392-.393.215 0 .392.178.392.393v1.167zM367.655 90.867a.394.394 0 01-.392.392.394.394 0 01-.392-.392V89.7c0-.215.177-.393.392-.393.215 0 .392.178.392.393v1.167z"/>
      <path fill="#B7BDBD" d="M360.261 90.41c0 .392-.317.71-.709.71h-.093a.71.71 0 110-1.42h.093c.392 0 .709.317.709.71zM367.067 90.41c0 .392-.317.71-.709.71h-.094a.709.709 0 110-1.42h.094c.392 0 .709.317.709.71z"/>
      <path fill="#003E4D" d="M371.138 75.748v-.271c-.019-9.404-3.697-17.062-8.188-17.062-4.5 0-8.169 7.658-8.188 17.062v.27h-1.092v-.27c.019-10.086 4.192-18.295 9.29-18.295 5.097 0 9.261 8.209 9.289 18.295v.27h-1.111z"/>
      <path fill="#003E4D" d="M367.684 52.718c-1.961 1.438-3.473 3.287-4.332 5.388h-.906c.943-2.577 2.801-4.818 5.238-6.48v1.092zm19.904-1.074v1.083c1.951 1.438 5.387 20.527 4.024 33.377h1.008c.953-17.632-2.604-32.807-5.032-34.46z"/>
      <path fill="#003E4D" d="M392.088 97.47a5.888 5.888 0 01-5.882-5.884 5.888 5.888 0 015.882-5.883 5.888 5.888 0 015.882 5.883 5.888 5.888 0 01-5.882 5.884z"/>
      <path fill="#B7BDBD" d="M386.589 91.586c0-3.035 2.465-5.5 5.499-5.5a5.503 5.503 0 015.499 5.5c0 3.035-2.465 5.5-5.499 5.5a5.504 5.504 0 01-5.499-5.5z"/>
      <path fill="#6A686B" d="M390.753 91.586a1.335 1.335 0 112.67 0 1.335 1.335 0 01-2.67 0z"/>
      <path fill="#DDD" d="M394.385 92.595a2.896 2.896 0 01-2.297 1.14 2.896 2.896 0 01-2.297-1.14h-1.755a4.067 4.067 0 004.052 3.764 4.067 4.067 0 004.052-3.764h-1.755z"/>
    </g>
  </g>
  <g>
    <path fill="#DDD" d="M288.598 196.004c-.719-.018-1.438-.028-2.166-.046 1.876 20.059 3.435 36.113 4.882 50.822.131 1.316.495 7.34.607 8.498.103 1.055-1.792 6.743-1.699 7.658.467 4.707 2.67 6.173 2.67 6.173l12.436.812 1.232-5.855-.98-6.379 1.27-61.347c-6.087-.093-12.175-.205-18.252-.336zM312.274 196.452l2.838 61.861-1.251 5.566 1.774 5.734 11.166.187s2.11-1.765 2.539-6.509c.112-1.28-1.643-7.556-1.503-9.096 1.307-14.466 3.613-35.899 5.564-57.453-7.039-.065-14.088-.168-21.127-.29z"/>
    <path fill="#E29A59" d="M341.617 69.985c-1.27-2.68-3.529-5.005-6.115-5.995l-15.517-5.977v-25.14H300.79v25.14l-15.516 5.977c-2.577.99-4.836 3.324-6.106 5.995l30.884 13.047 31.565-13.047z"/>
    <path fill="#EFAF6A" d="M326.287 27.923c0 21.703-10.008 26.046-15.909 26.046-5.9 0-15.908-4.343-15.908-26.046 0-10.927 7.123-17.604 15.908-17.604 8.795-.01 15.909 6.677 15.909 17.604z"/>
    <path fill="#EFAF6A" d="M297.532 31.995c.644 3.436-.112 6.462-1.699 6.761-1.578.299-3.389-2.25-4.033-5.678-.645-3.437.112-6.462 1.699-6.761 1.577-.308 3.389 2.241 4.033 5.678zM323.253 31.995c-.644 3.436.112 6.462 1.699 6.761 1.587.299 3.389-2.25 4.033-5.678.644-3.427-.112-6.462-1.699-6.761-1.587-.308-3.389 2.241-4.033 5.678z"/>
    <path fill="#16C4B3" d="M294.489 7.36v18.93c6.703-10.47 25.44-8.714 31.742-.188V6.912c-6.302-8.555-25.039-10.012-31.742.447zM336.79 209.555c0-16.857-.121-56.136 2.166-88.066 1.858-25.896 6.218-47.002 6.218-47.002 0-4.296-3.492-9.04-7.796-10.58l-16.627-6.015-10.625 21.685-10.101-21.685-16.628 6.014c-4.294 1.541-7.795 6.285-7.795 10.581 0 0 3.865 16.735 5.863 47.525 1.839 28.222 1.82 69.836 1.82 87.449.009 7.761 53.505 7.556 53.505.094z"/>
    <path fill="#29D6C1" d="M310.108 1.672c-5.742-.019-11.465 1.961-14.518 6.425v5.174l14.518-11.599zM318.743 65.96l2.577-6.91 15.713 5.678c3.697 1.326-18.29 1.233-18.29 1.233zM283.733 64.728l15.694-5.678 5.135 10.908c.009.009-34.282 1.372-20.829-5.23z"/>
    <path fill="#E29A59" d="M326.212 26.093c-6.292-8.48-24.908-10.235-31.658.112v.037s12.94-11.795 31.658-.149z"/>
    <path fill="#D67F43" d="M300.79 36.02v13.943c2.932 4.903 6.89 6.967 9.598 7.453 2.707.485 6.666.14 9.597-3.53v-14.43l-9.597-4.127-9.598.691z"/>
    <path fill="#E7EAE1" d="M294.488 25.542l-.69.747 2.418 9.816.485-1.625-2.213-8.938zM326.231 25.542l.691.747-2.418 9.816-.486-1.625 2.213-8.938z"/>
    <path fill="#003E4D" d="M324.121 25.318c-.084-.27-.243-.439-.541-.439h-10.037c-.849 0-2.128.551-3.267.551-1.139 0-2.428-.55-3.268-.55h-10.036c-.299 0-.467.167-.542.438h-2.782v.915h2.773c.327 2.092 1.428 5.884 1.989 5.884h7.777c.905 0 2.231-1.83 2.716-2.998.299-.72.934-1.037 1.391-1.037.458 0 1.083.318 1.392 1.037.485 1.167 1.811 2.998 2.716 2.998h7.777c.56 0 1.662-3.792 1.989-5.884h2.773v-.915h-2.82zm-17.934 6.519l-7.404.009c-.607 0-2.539-6.238-.924-6.238h8.421c4.481.009.625 6.229-.093 6.229zm15.563.009l-7.404-.01c-.719 0-4.574-6.22-.093-6.22h8.421c1.606 0-.317 6.23-.924 6.23z"/>
    <path fill="#E7EAE1" d="M306.187 31.836l-7.404.01c-.607 0-2.539-6.239-.924-6.239h8.421c4.481.01.625 6.23-.093 6.23zM321.75 31.846l-7.404-.01c-.719 0-4.575-6.22-.093-6.22h8.421c1.606 0-.317 6.23-.924 6.23z" opacity=".3"/>
    <path fill="#E7EAE1" d="M324.737 34.508l-14.359-3.213-14.349 3.212c.485 4.633 1.811 11.329 1.811 11.329 3.417 6.303 8.935 8.143 12.538 8.143 3.604 0 9.122-1.42 12.539-7.574.009 0 1.344-7.33 1.82-11.898z"/>
    <path fill="#F6F7F5" d="M310.388 31.977v6.229s-11.689 2.82-13.528-3.073l13.528-3.156z"/>
    <g>
      <path fill="#003E4D" d="M331.982 82.182h-11.791v5.912h11.791v-5.912z"/>
      <path fill="#F4F4F4" d="M331.665 82.49h-11.157v5.277h11.157v-5.276z"/>
      <path fill="#B7BDBD" d="M326.857 81.547h-1.55v1.299h1.55v-1.299zM324.784 83.013h-3.529v4.343h3.529v-4.343z"/>
    </g>
    <g>
      <path fill="#003E61" d="M305.328 277.374c0 1.895-2.185 3.427-4.874 3.427h-3.249c-2.689 0-4.873-1.532-4.873-3.427v-7.303c0-1.896 2.184-2.204 4.873-2.204h3.249c2.689 0 4.874.308 4.874 2.204v7.303z"/>
      <path fill="#3F5E77" d="M305.328 275.403c0 1.42-2.185 2.569-4.874 2.569h-3.249c-2.689 0-4.873-1.149-4.873-2.569v-5.472c0-1.42 2.184-4.464 4.873-4.464h3.249c2.689 0 4.874 3.044 4.874 4.464v5.472z"/>
    </g>
    <g>
      <path fill="#003E61" d="M327.753 277.374c0 1.895-2.184 3.427-4.873 3.427h-3.249c-2.689 0-4.874-1.532-4.874-3.427v-7.303c0-1.896 2.185-2.204 4.874-2.204h3.249c2.689 0 4.873.308 4.873 2.204v7.303z"/>
      <path fill="#3F5E77" d="M327.753 275.403c0 1.42-2.184 2.569-4.873 2.569h-3.249c-2.689 0-4.874-1.149-4.874-2.569v-5.472c0-1.42 2.185-4.464 4.874-4.464h3.249c2.689 0 4.873 3.044 4.873 4.464v5.472z"/>
    </g>
    <path fill="#0EAF9C" d="M275.872 75.263c-.028.102-.065.205-.093.308.775 4.903 3.968 25.831 5.938 49.262 14.863-1.97 47.894-11.328 52.403-12.701-1.139-5.528-12.043-10.3-12.043-10.3s-36.234 3.361-36.047.504c.187-2.858 2.045-18.36 2.045-18.36l-12.203-8.713z"/>
    <path fill="#16C4B3" d="M275.872 72.404c-4.621 15.279-12.435 45.583-6.329 49.403 6.096 3.81 52.907-8.965 59.19-10.871-1.139-5.528-6.852-7.321-6.852-7.321s-39.193 5.426-39.006 2.568c.186-2.858 5.527-23.44 5.527-23.44l-12.53-10.339z"/>
    <path fill="#0EAF9C" d="M344.829 75.263c.028.102.065.205.093.308-.775 4.903-4.435 28.987-6.395 52.428-14.863-1.971-40.024-16.633-44.533-17.996 1.139-5.529 2.969-7.536 2.969-7.536s39.155 9.245 38.959 6.387c-.187-2.857-3.296-24.85-3.296-24.85l12.203-8.742z"/>
    <path fill="#16C4B3" d="M344.829 72.404c4.621 15.279 12.436 45.583 6.339 49.403-6.096 3.81-49.304-11.113-55.596-13.019 1.139-5.528 2.315-10.347 2.315-10.347s37.765 7.957 39.921 8.396c2.493.513-.093-3.204-5.508-24.095l12.529-10.338z"/>
    <path fill="#29D6C1" d="M298.634 100.066c.784.532 34.076 6.407 40.331 7.051 19.317 9.096-23.909 1.84-40.331-7.051z"/>
    <path fill="#F4F4F4" d="M346.883 102.924c-5.144-4.38-10.578-4.557-10.578-4.557l-.355-1.457c-1.858-.122-14.079 6.705-14.079 6.705s18.019 2.858 21.912 5.052c1.765.981 5.994-3.287 3.1-5.743z"/>
    <path fill="#fff" d="M336.557 98.852c5.21 2.213 10.69 6.855 10.569 5.426-.122-1.429-4.93-5.071-10.569-5.426z"/>
    <path fill="#F4F4F4" d="M292.285 95.649l-4.182.999s-.831-.448-3.249.112c-.831 3.53-1.485 6.519-1.55 7.49-.009.112.056.215.168.308 4.995-.346 12.66 1.597 12.66 1.597l1.764-7.714c0-.01-3.79-2.41-5.611-2.792z"/>
    <path fill="#fff" d="M284.62 97.517l-.373 1.615c2.063-.597 4.519-1.27 6.815-1.56-2.25-.494-4.518-.41-6.442-.055z"/>
  </g>
  <defs>
    <linearGradient id="paint0_linear_362_1259" x1="0" x2="599.15" y1="230.882" y2="207.427" gradientUnits="userSpaceOnUse">
      <stop stop-color="#17C79A"/>
      <stop offset="1" stop-color="#00FFBE"/>
    </linearGradient>
  </defs>
</svg>
