<svg xmlns="http://www.w3.org/2000/svg" width="48" height="46" fill="none" viewBox="0 0 48 46">
  <g filter="url(#filter0_d_108:149)">
    <path fill="url(#paint0_linear_108:149)" d="M42.214 20.705L24.948 3.395a1.338 1.338 0 00-1.895 0L5.788 20.704A2.701 2.701 0 005 22.61a2.69 2.69 0 002.683 2.692h1.819v12.352c0 .745.6 1.346 1.341 1.346h10.475v-9.42h4.695V39h11.145c.742 0 1.342-.601 1.342-1.346V25.302h1.819c.712 0 1.396-.282 1.899-.79a2.7 2.7 0 00-.005-3.807z"/>
  </g>
  <defs>
    <linearGradient id="paint0_linear_108:149" x1="5" x2="43" y1="19.773" y2="19.373" gradientUnits="userSpaceOnUse">
      <stop stop-color="#17C79A"/>
      <stop offset="1" stop-color="#00FFBE"/>
    </linearGradient>
    <filter id="filter0_d_108:149" width="48" height="46" x="0" y="0" color-interpolation-filters="sRGB" filterUnits="userSpaceOnUse">
      <feFlood flood-opacity="0" result="BackgroundImageFix"/>
      <feColorMatrix in="SourceAlpha" result="hardAlpha" values="0 0 0 0 0 0 0 0 0 0 0 0 0 0 0 0 0 0 127 0"/>
      <feOffset dy="2"/>
      <feGaussianBlur stdDeviation="2.5"/>
      <feComposite in2="hardAlpha" operator="out"/>
      <feColorMatrix values="0 0 0 0 0.0745098 0 0 0 0 0.823529 0 0 0 0 0.631373 0 0 0 0.25 0"/>
      <feBlend in2="BackgroundImageFix" result="effect1_dropShadow_108:149"/>
      <feBlend in="SourceGraphic" in2="effect1_dropShadow_108:149" result="shape"/>
    </filter>
  </defs>
</svg>
