<svg xmlns="http://www.w3.org/2000/svg" width="32" height="26" fill="none" viewBox="0 0 32 26">
  <path fill="#252525" d="M24.566 6.11L32 13.026l-7.434 6.864v-4.602H13.44v-4.576h11.125V6.11zm-4.472 13.312l2.855 2.782C20.15 24.734 17.114 26 13.846 26 9.948 26 6.667 24.756 4 22.269c-2.667-2.487-4-5.594-4-9.321 0-2.34.61-4.507 1.832-6.5C3.052 4.455 4.7 2.882 6.774 1.729 8.848.576 11.098 0 13.522 0c3.304 0 6.438 1.283 9.4 3.848l-2.828 2.756C18.047 4.801 15.865 3.9 13.55 3.9c-2.676 0-4.934.901-6.775 2.704-1.84 1.803-2.76 4.004-2.76 6.604 0 2.427.947 4.515 2.841 6.266 1.895 1.75 4.117 2.626 6.667 2.626 2.352 0 4.543-.893 6.572-2.678z"/>
</svg>
