<svg xmlns="http://www.w3.org/2000/svg" width="170" height="46" fill="none" viewBox="0 0 170 46">
  <path fill="#16C79A" d="M70.846 31.492h-3.46V20.214l-6.088 10.71c-.15.273-.361.48-.634.62-.264.142-.55.212-.859.212-.299 0-.58-.07-.845-.211a1.53 1.53 0 01-.607-.621l-6.115-10.71v11.278h-3.433V14.02c0-.396.114-.748.343-1.056.238-.309.546-.516.924-.621.185-.044.37-.057.555-.04.185.01.361.049.528.12.176.06.335.153.476.276.14.115.26.256.356.423l7.818 13.59 7.818-13.59c.203-.335.48-.572.832-.713.361-.141.736-.163 1.123-.066.37.105.673.312.911.62.238.309.357.66.357 1.057v17.472zM90.127 32.865c0 .59-.075 1.118-.225 1.585-.15.475-.348.89-.594 1.241-.247.361-.533.665-.859.911-.325.256-.669.463-1.03.621a4.88 4.88 0 01-1.07.344 4.81 4.81 0 01-1.03.118h-6.193v-3.433h6.194c.457 0 .8-.12 1.03-.357.229-.238.343-.58.343-1.03v-15.65h3.434v15.65zm-4.807-1.373h-6.194a5.581 5.581 0 01-1.585-.251 4.739 4.739 0 01-1.558-.819 4.606 4.606 0 01-1.202-1.492c-.317-.617-.475-1.37-.475-2.258v-9.456h3.433v9.456c0 .448.12.792.357 1.03.238.237.59.356 1.056.356h6.168v3.434z"/>
  <path fill="#19456B" d="M115.826 31.492h-3.46V20.214l-6.088 10.71c-.15.273-.361.48-.634.62-.264.142-.55.212-.858.212-.3 0-.582-.07-.846-.211a1.532 1.532 0 01-.607-.621l-6.115-10.71v11.278h-3.433V14.02c0-.396.114-.748.343-1.056.238-.309.546-.516.925-.621.184-.044.37-.057.554-.04.185.01.361.049.528.12.177.06.335.153.476.276.14.115.26.256.356.423l7.819 13.59 7.818-13.59c.202-.335.479-.572.832-.713.361-.141.735-.163 1.122-.066.37.105.674.312.911.62.238.309.357.66.357 1.057v17.472zM134.698 21.944c0 .475-.084.99-.251 1.545a4.646 4.646 0 01-.819 1.532c-.37.466-.859.858-1.466 1.175-.599.317-1.329.476-2.192.476h-6.194V23.41h6.194c.466 0 .827-.141 1.083-.423.255-.29.383-.647.383-1.07 0-.449-.146-.801-.436-1.056a1.48 1.48 0 00-1.03-.383h-6.194c-.467 0-.828.145-1.083.436-.255.281-.383.633-.383 1.056v4.794c0 .458.141.814.423 1.07.29.255.647.383 1.069.383h6.168v3.275h-6.194c-.475 0-.99-.084-1.545-.251a4.744 4.744 0 01-1.532-.806 4.663 4.663 0 01-1.175-1.466c-.317-.607-.476-1.342-.476-2.205v-4.82c0-.476.084-.986.251-1.532a4.568 4.568 0 01.806-1.532 4.573 4.573 0 011.466-1.189c.607-.317 1.342-.475 2.205-.475h6.194c.475 0 .986.083 1.532.25.554.168 1.065.44 1.532.82.475.37.871.858 1.188 1.465.317.6.476 1.33.476 2.193zM152.671 26.672a5.33 5.33 0 01-.224 1.598c-.15.466-.348.88-.595 1.24a4.214 4.214 0 01-.858.912 5.11 5.11 0 01-1.03.608 5.374 5.374 0 01-1.083.356c-.361.07-.704.106-1.03.106h-6.194a5.17 5.17 0 01-1.584-.225 4.77 4.77 0 01-1.242-.594 4.515 4.515 0 01-.911-.872 5.269 5.269 0 01-.608-1.016 5.784 5.784 0 01-.356-1.083 5.482 5.482 0 01-.106-1.03v-4.65c0-.88.159-1.623.476-2.23.325-.617.726-1.115 1.201-1.493a4.598 4.598 0 011.572-.832 5.503 5.503 0 011.558-.251h6.194v3.433h-6.167c-.458 0-.806.12-1.044.357-.237.229-.356.568-.356 1.017v4.622c0 .467.114.819.343 1.057.238.237.581.356 1.03.356h6.194c.467 0 .814-.119 1.043-.356.229-.238.344-.582.344-1.03V11.18h3.433v15.49zM169.747 26.672c0 .59-.075 1.122-.225 1.597-.149.467-.347.88-.594 1.242a4.236 4.236 0 01-.858.911 5.11 5.11 0 01-1.03.607 5.416 5.416 0 01-1.083.357c-.361.07-.705.106-1.03.106h-9.298v-3.434h9.271c.467 0 .819-.119 1.057-.357.237-.237.356-.58.356-1.03-.044-.915-.506-1.373-1.386-1.373h-5.322c-.758 0-1.4-.132-1.929-.396a4.022 4.022 0 01-1.294-.99 3.933 3.933 0 01-.713-1.282 4.367 4.367 0 01-.211-1.28c0-.767.136-1.41.409-1.929a3.843 3.843 0 012.377-1.98c.485-.15.938-.225 1.361-.225h8.438v3.433h-8.412a1.12 1.12 0 00-.423.066.473.473 0 00-.224.159.433.433 0 00-.079.211c-.009.07-.014.141-.014.212.009.14.036.25.08.33.044.079.096.136.158.171.07.036.145.058.225.066h5.573c.88 0 1.628.159 2.245.476.616.317 1.113.717 1.492 1.202.379.475.651.994.819 1.558.176.563.264 1.087.264 1.572z"/>
  <path fill="#16C79A" d="M23.001 0A11.5 11.5 0 0134.5 11.501V23h-23V11.501A11.502 11.502 0 0123.001 0z"/>
  <path fill="#19456B" d="M22.999 46A11.5 11.5 0 0111.5 34.499V23h23v11.499A11.502 11.502 0 0122.999 46z"/>
  <path fill="#fff" d="M22.381 18.555h1.238a1.014 1.014 0 011.014 1.014v6.862a1.014 1.014 0 01-1.014 1.014H22.38a1.015 1.015 0 01-1.014-1.014v-6.862a1.014 1.014 0 011.014-1.014z"/>
  <path fill="#fff" d="M27.445 22.381v1.238a1.013 1.013 0 01-1.014 1.014h-6.862a1.014 1.014 0 01-1.014-1.014V22.38a1.014 1.014 0 011.014-1.014h6.862a1.014 1.014 0 011.014 1.014z"/>
  <path fill="#19456B" d="M35.65 11.565v1.35a10.345 10.345 0 018.05 10.08v.01a10.345 10.345 0 01-8.05 10.063v1.367A11.5 11.5 0 0046 23.063a11.562 11.562 0 00-10.35-11.498zm-25.3.001A11.5 11.5 0 000 22.938 11.562 11.562 0 0010.35 34.43v-1.36A10.346 10.346 0 012.3 23.005v-.01a10.345 10.345 0 018.05-10.062v-1.368z"/>
</svg>
