<svg xmlns="http://www.w3.org/2000/svg" width="300" height="82" fill="none" viewBox="0 0 300 82">
  <path fill="#0ce2a2ff" d="M125.208 55.656h-6.115V35.724l-10.759 18.929a2.629 2.629 0 01-1.121 1.097 3.174 3.174 0 01-1.517.373 3.13 3.13 0 01-1.494-.373 2.7 2.7 0 01-1.073-1.097L92.323 35.724v19.932h-6.069V24.778c0-.7.202-1.323.607-1.867.42-.545.965-.91 1.634-1.097.326-.078.653-.102.98-.07.327.015.638.085.934.21.31.108.59.272.84.49.249.202.459.451.63.747l13.817 24.016 13.817-24.016a2.974 2.974 0 011.471-1.26 3.197 3.197 0 011.984-.117c.653.186 1.19.552 1.61 1.097.42.544.63 1.166.63 1.867v30.878zM159.284 58.084c0 1.042-.132 1.976-.396 2.8-.265.84-.615 1.572-1.051 2.195a6.804 6.804 0 01-1.517 1.61 8.458 8.458 0 01-1.82 1.097 8.635 8.635 0 01-1.891.607c-.638.14-1.245.21-1.82.21h-10.947v-6.068h10.947c.809 0 1.416-.21 1.82-.63.405-.42.607-1.028.607-1.821V30.426h6.068v27.658zm-8.495-2.427h-10.947c-.871 0-1.805-.148-2.801-.444a8.38 8.38 0 01-2.754-1.447c-.855-.685-1.563-1.564-2.124-2.637-.56-1.09-.84-2.42-.84-3.991V30.426h6.069v16.712c0 .793.21 1.4.63 1.82.42.42 1.042.63 1.867.63h10.9v6.069z"/>
  <path fill="#19456B" d="M204.704 55.656h-6.116V35.724l-10.759 18.929a2.632 2.632 0 01-1.12 1.097 3.178 3.178 0 01-1.518.373 3.123 3.123 0 01-1.493-.373 2.702 2.702 0 01-1.074-1.097l-10.806-18.929v19.932h-6.069V24.778c0-.7.203-1.323.607-1.867.42-.545.965-.91 1.634-1.097.327-.078.654-.102.98-.07.327.015.638.085.934.21.311.108.591.272.84.49.249.202.459.451.63.747l13.817 24.016 13.818-24.016a2.971 2.971 0 011.47-1.26 3.197 3.197 0 011.984-.117c.653.186 1.19.552 1.61 1.097.42.544.631 1.166.631 1.867v30.878zM238.056 38.782c0 .84-.148 1.75-.443 2.73a8.174 8.174 0 01-1.447 2.708c-.654.825-1.518 1.517-2.591 2.077-1.058.56-2.35.84-3.875.84h-10.946v-5.764H229.7c.825 0 1.463-.25 1.914-.747.452-.514.677-1.144.677-1.89 0-.794-.257-1.417-.77-1.868-.498-.451-1.105-.677-1.821-.677h-10.946c-.825 0-1.463.257-1.914.77-.451.498-.677 1.12-.677 1.868V47.3c0 .81.249 1.44.747 1.89.514.452 1.144.677 1.891.677H229.7v5.789h-10.946c-.84 0-1.75-.148-2.731-.444a8.395 8.395 0 01-2.707-1.424c-.825-.669-1.517-1.532-2.077-2.59-.56-1.074-.841-2.373-.841-3.898v-8.52c0-.84.148-1.742.444-2.706.296-.98.77-1.883 1.424-2.708.669-.84 1.532-1.54 2.59-2.1 1.074-.56 2.373-.84 3.898-.84H229.7c.841 0 1.743.147 2.708.443.98.295 1.883.778 2.707 1.447.84.653 1.541 1.517 2.101 2.59.56 1.059.84 2.35.84 3.875zM269.821 47.138c0 1.042-.132 1.983-.396 2.824a8.437 8.437 0 01-1.051 2.194 7.459 7.459 0 01-1.517 1.61 9 9 0 01-1.82 1.074c-.623.28-1.261.49-1.914.63a9.525 9.525 0 01-1.821.187h-10.946c-1.042 0-1.976-.133-2.801-.397a8.44 8.44 0 01-2.194-1.05 7.988 7.988 0 01-1.61-1.54 9.283 9.283 0 01-1.074-1.798c-.28-.638-.49-1.276-.63-1.914a9.812 9.812 0 01-.187-1.82v-8.216c0-1.556.28-2.87.841-3.944.575-1.09 1.283-1.969 2.124-2.638a8.107 8.107 0 012.777-1.47c.996-.296 1.914-.444 2.754-.444h10.946v6.069h-10.899c-.809 0-1.424.21-1.844.63-.42.404-.63 1.004-.63 1.797v8.169c0 .825.202 1.447.607 1.867.42.42 1.026.63 1.82.63h10.946c.825 0 1.44-.21 1.844-.63.405-.42.607-1.027.607-1.82V19.76h6.068v27.378zM300 47.138c0 1.042-.132 1.983-.397 2.824a8.4 8.4 0 01-1.05 2.194 7.483 7.483 0 01-1.517 1.61 9.034 9.034 0 01-1.821 1.074c-.622.28-1.26.49-1.913.63a9.525 9.525 0 01-1.821.187H275.05v-6.069h16.384c.825 0 1.447-.21 1.868-.63.42-.42.63-1.027.63-1.82-.078-1.619-.895-2.428-2.451-2.428h-9.406c-1.338 0-2.474-.233-3.408-.7-.933-.467-1.696-1.05-2.287-1.75a6.932 6.932 0 01-1.26-2.264c-.249-.81-.374-1.564-.374-2.264 0-1.354.242-2.49.724-3.408.482-.934 1.089-1.688 1.82-2.264a6.977 6.977 0 012.381-1.237c.856-.265 1.657-.397 2.404-.397h14.914v6.069h-14.867c-.311 0-.56.038-.747.116a.838.838 0 00-.397.28.781.781 0 00-.14.374 3.118 3.118 0 00-.023.373c.015.25.062.444.14.584.078.14.171.241.28.303.124.062.257.101.397.117h9.849c1.556 0 2.879.28 3.968.84 1.089.56 1.968 1.268 2.637 2.124a8.072 8.072 0 011.447 2.754c.311.996.467 1.922.467 2.778z"/>
  <path fill="#0ce2a2ff" d="M40.651 0a20.324 20.324 0 0120.322 20.327v20.322H20.324V20.327A20.327 20.327 0 0140.651 0z"/>
  <path fill="#19456B" d="M40.646 81.297A20.324 20.324 0 0120.324 60.97V40.648h40.65V60.97a20.327 20.327 0 01-20.328 20.327z"/>
  <path fill="#fff" d="M39.556 32.793h2.186a1.792 1.792 0 011.793 1.793v12.127a1.793 1.793 0 01-1.793 1.792h-2.186a1.792 1.792 0 01-1.793-1.792V34.586a1.792 1.792 0 011.793-1.793z"/>
  <path fill="#fff" d="M48.505 39.556v2.186a1.792 1.792 0 01-1.793 1.793H34.585a1.792 1.792 0 01-1.793-1.793v-2.186a1.793 1.793 0 011.793-1.793h12.127a1.792 1.792 0 011.793 1.793z"/>
  <path fill="#19456B" d="M63.006 20.439v2.385A18.283 18.283 0 0177.232 40.64v.018a18.284 18.284 0 01-14.226 17.783v2.417A20.325 20.325 0 0081.297 40.76 20.434 20.434 0 0063.007 20.44zm-44.714.003A20.325 20.325 0 000 40.54a20.435 20.435 0 0018.292 20.308v-2.406A18.284 18.284 0 014.065 40.66v-.018a18.283 18.283 0 0114.227-17.783v-2.416z"/>
</svg>
