<svg xmlns="http://www.w3.org/2000/svg" width="32" height="30" fill="none" viewBox="0 0 32 30">
  <path fill="#1F1F1F" d="M0 2.143C0 1.575.21 1.029.586.628A1.935 1.935 0 012 0h28c.53 0 1.04.226 1.414.628.375.401.586.947.586 1.515s-.21 1.113-.586 1.515A1.935 1.935 0 0130 4.286H2c-.53 0-1.04-.226-1.414-.628A2.223 2.223 0 010 2.143zM0 27.857c0-.568.21-1.113.586-1.515A1.935 1.935 0 012 25.714h28c.53 0 1.04.226 1.414.628.375.402.586.947.586 1.515 0 .569-.21 1.114-.586 1.515A1.935 1.935 0 0130 30H2c-.53 0-1.04-.226-1.414-.628A2.223 2.223 0 010 27.857zM2 12.857c-.53 0-1.04.226-1.414.628A2.223 2.223 0 000 15c0 .568.21 1.113.586 1.515.375.402.884.628 1.414.628h16c.53 0 1.04-.226 1.414-.628.375-.402.586-.947.586-1.515s-.21-1.113-.586-1.515A1.935 1.935 0 0018 12.857H2z"/>
</svg>
