<svg xmlns="http://www.w3.org/2000/svg" width="110" height="70" fill="none" viewBox="0 0 110 70">
  <path fill="#F3F3F3" d="M50.307 24.809h-.318v33.445h.319V24.809z"/>
  <path fill="#fff" d="M53.585 20.688h-3.437v.872h3.437v-.872zM52.898 22.299h-2.75v.872h2.75v-.872zM53.913 60.235h-3.605v1.162h3.605v-1.162z"/>
  <path fill="url(#paint0_linear_161_131)" d="M63.334 7.847s8.481 10.056 3.101 16.567c-5.38 6.512-6.86.127-6.86.127s-3.22.599 2.357-7.546c2.63-3.84 1.402-9.148 1.402-9.148z"/>
  <path fill="url(#paint1_linear_161_131)" d="M81.924 0s6.3 9.3-4.67 20.012C66.285 30.725 67.1 37.114 67.1 37.114S55.885 15.159 81.924 0z"/>
  <path fill="url(#paint2_linear_161_131)" d="M65.053 33.073c-4.602.415.737-12.03 7.927-15.278 7.19-3.249 13.274-2.973 17.478-6.4 0 0-2.742 19.632-25.405 21.678z"/>
  <path fill="#E0E0E0" d="M18.632 24.809h-.318v33.445h.318V24.809z"/>
  <path fill="#F3F3F3" d="M41.298 24.809h-.319v33.445h.319V24.809zM63.964 24.809h-.318v33.445h.318V24.809z"/>
  <path fill="#E0E0E0" d="M23.902 20.688h-5.429v.872h5.429v-.872zM26.174 22.299h-7.7v.872h7.7v-.872z"/>
  <path fill="#fff" d="M47.268 20.688h-6.373v.872h6.373v-.872zM44.97 22.299h-4.075v.872h4.075v-.872zM67.914 20.688h-3.95v.872h3.95v-.872zM68.568 22.299h-4.604v.872h4.604v-.872zM44.745 60.235h-3.606v1.162h3.606v-1.162zM67.57 60.235h-3.606v1.162h3.606v-1.162z"/>
  <path fill="url(#paint3_linear_161_131)" d="M58.846 47.938c-5.218 0-9.357-3.51-13.408-6.945-3.073-2.605-6.26-5.269-9.94-6.582-11.229-4.01-16.973 3.312-17.025 3.376V35.56c.06-.076 1.085-1.407 4.05-2.677 2.7-1.157 7.228-2.08 13.475.093 3.957 1.377 7.244 4.163 10.422 6.858 6.448 5.466 12.016 10.187 21.687 2.792 7.324-5.6 14.229-10.937 21.022-12.887 6.644-1.908 13.572-.511 20.056 5.973v2.034c-13.774-13.834-25.55-5.081-40.155 6.088-3.87 2.958-7.203 4.103-10.184 4.104z"/>
  <path fill="#E0E0E0" d="M6.433 37.25H5.344v4.704h1.09V37.25zM9.138 35.34h-1.09v6.614h1.09V35.34zM11.843 34.343h-1.09v7.61h1.09v-7.61zM14.547 33.927h-1.09v8.026h1.09v-8.026z"/>
  <path fill="url(#paint4_linear_161_131)" d="M6.433 39.003H5.344v2.95h1.09v-2.95z"/>
  <path fill="url(#paint5_linear_161_131)" d="M9.138 37.804h-1.09v4.15h1.09v-4.15z"/>
  <path fill="url(#paint6_linear_161_131)" d="M11.843 37.179h-1.09v4.775h1.09v-4.775z"/>
  <path fill="url(#paint7_linear_161_131)" d="M14.547 36.918h-1.09v5.035h1.09v-5.035z"/>
  <path fill="url(#paint8_linear_161_131)" d="M34.43 63.11h34.095a2.864 2.864 0 002.863-2.863v-46.96a2.864 2.864 0 00-2.863-2.864H34.429a2.864 2.864 0 00-2.864 2.863v46.96a2.864 2.864 0 002.864 2.864z"/>
  <path fill="#F5F5F5" d="M69.032 4.195H35.845c-1.062 0-1.923.86-1.923 1.922v54.336h35.11V4.195z"/>
  <path fill="url(#paint9_linear_161_131)" d="M65.76 15.158H55.408v1.309H65.76v-1.31z"/>
  <path fill="url(#paint10_linear_161_131)" d="M64.91 20.647h-9.502v1.31h9.502v-1.31z"/>
  <path fill="url(#paint11_linear_161_131)" d="M63.63 17.903h-8.222v1.309h8.222v-1.31z"/>
  <path fill="url(#paint12_linear_161_131)" d="M44.3 23.555a8.086 8.086 0 01-3.37-.727 8.176 8.176 0 01-4.783-7.428c0-4.496 3.658-8.154 8.154-8.154 4.497 0 8.155 3.658 8.155 8.154a8.175 8.175 0 01-4.785 7.428 8.093 8.093 0 01-3.37.727zm0-15.879c-4.258 0-7.723 3.466-7.723 7.724a7.746 7.746 0 004.531 7.036 7.656 7.656 0 003.192.689 7.656 7.656 0 003.192-.689 7.745 7.745 0 004.532-7.036c0-4.258-3.465-7.724-7.723-7.724z"/>
  <path fill="#4E7ED6" d="M48.041 26.837H36.146v1.168h11.895v-1.168z"/>
  <path fill="#E0E0E0" d="M48.041 29.979H36.146v1.167h11.895V29.98zM48.041 33.12H36.146v1.167h11.895V33.12z"/>
  <path fill="#4E7ED6" d="M52.455 26.837H50.47v1.168h1.986v-1.168z"/>
  <path fill="#E0E0E0" d="M52.455 29.979H50.47v1.167h1.986V29.98zM52.455 33.12H50.47v1.167h1.986V33.12z"/>
  <path fill="url(#paint13_radial_161_131)" d="M101.282 48.316c-7.07 0-13.216-3.056-19.622-6.242-7.91-3.933-16.088-8-26.986-6.887-6.958.712-11.325 3.545-15.18 6.045-3.488 2.264-6.787 4.255-11.255 4.425-7.22.275-9.725-2.805-9.767-2.993v-1.976c.01.034 1.586 3.49 9.76 3.45 4.025-.02 6.996-1.948 10.436-4.18 3.998-2.594 8.528-5.534 15.852-6.282 11.333-1.158 19.713 3.008 27.816 7.038 8.478 4.216 16.57 8.17 26.847 4.725v1.624c-2.963.993-5.295 1.253-7.901 1.253z"/>
  <path fill="#F5F5F5" d="M75.484 61.75H58.858a3.57 3.57 0 01-3.57-3.57V29.231a3.57 3.57 0 013.57-3.57h16.626a3.57 3.57 0 013.57 3.57v28.95a3.57 3.57 0 01-3.57 3.569z"/>
  <path fill="#E0E0E0" d="M76.276 31.029a3.892 3.892 0 00-4.973-2.353 3.885 3.885 0 00-2.353 4.973 3.854 3.854 0 00.699 1.21 3.892 3.892 0 006.627-3.83zm-2.68 4.056a2.918 2.918 0 11-1.967-5.494 2.918 2.918 0 011.966 5.494z"/>
  <path fill="#537FFD" d="M69.829 31.47l-.93-.291a3.886 3.886 0 013.597-2.73l.03.973a2.91 2.91 0 00-2.697 2.047z"/>
  <path fill="#4BA6F3" d="M69.939 33.503l-.893.388a3.872 3.872 0 01-.146-2.712l.93.29a2.906 2.906 0 00.109 2.034z"/>
  <path fill="#46BBED" d="M69.649 34.86a3.884 3.884 0 01-.604-.968l.893-.389c.117.27.27.513.452.727l-.741.63z"/>
  <g>
    <path fill="#5084FC" d="M72.578 53.602h-2.097v6.876h2.097v-6.876z"/>
  </g>
  <g>
    <path fill="#5084FC" d="M69.46 55.53h-2.096v4.948h2.097v-4.947z"/>
  </g>
  <g>
    <path fill="#5084FC" d="M75.603 50.416h-2.097v10.062h2.097V50.416z"/>
  </g>
  <g>
    <path fill="#5084FC" d="M58.463 52.894l-.182-.14 3.417-4.446 4.218.229 3.18-5.065 3.426-.354 2.059-4.071.205.103-2.116 4.184-3.439.355-3.193 5.085-4.231-.23-3.344 4.35z"/>
  </g>
  <path fill="#4E7ED6" d="M64.926 30.785h-5.963a.682.682 0 010-1.363h5.963a.682.682 0 010 1.363z"/>
  <path fill="#E0E0E0" d="M64.926 33.163h-5.963a.682.682 0 010-1.363h5.963a.682.682 0 010 1.363zM64.926 35.542h-5.963a.682.682 0 010-1.364h5.963a.682.682 0 010 1.364z"/>
  <g>
    <path fill="#B3B7C4" d="M45.558 53.614s-2.362-.668-5.248 0l1.385-7.092s3.456 3.664 3.863 7.092z"/>
    <path fill="#EEA987" d="M53.043 41.388s.53.38.687.332c.157-.048.42.03.57.014.148-.016.538-.203.694-.162.064.016.419.268.552.288.133.019.408.025.39.139-.019.113-.266.174-.266.174s.12.025.136.13c.029.205-.078.277-.078.277s.108.104.098.192c-.021.193-.127.26-.127.26s.047.101.003.226c-.055.16-.224.184-.224.184s-.022.217-.142.246c-.12.03-.223-.013-.322-.016-.099-.002-.947-.296-1.452-.737s-1.09-.699-1.09-.699l.571-.848z"/>
    <path fill="#FCCCA2" d="M42.168 26.88s-.791-.508-1.505.395c-.714.903-.457 1.77-.308 2.582.148.803.867 2.643.561 3.454-.305.81.085 1.232.085 1.232s2.456.629 2.17-3.064c-.287-3.693-1.003-4.6-1.003-4.6z"/>
    <path fill="#DBDFF0" d="M43.22 33.853s.935-.128 1.563.342c.628.47 1.057 1.352 1.248 1.628.192.277 2.433 2.75 2.544 2.795.111.044 1.506.814 2.446 1.435.939.623 2.419 1.371 2.419 1.371l-.803.984s-3.955-1.415-4.778-2.181c-.879-.818-4.942-4.875-4.942-4.875s-1.021-.826.304-1.5z"/>
    <path fill="#1D3B54" d="M50.022 68.25s1.011 1.36.873 1.577c-.139.216-1.202.246-1.85 0-.647-.247-.662-1.842-.955-2.528-.123-.287.14-1.134.509-1.195.368-.062.77.119.77.119s-.383.965.653 2.026z"/>
    <path fill="#EEA886" d="M49.375 66.21s.213.58.29 1.134c.065.459.721 1.434.69 1.557-.03.123-.863.235-1.202-.083-.339-.317-.557-1.242-.632-1.795-.07-.515-.157-.77-.157-.77s.688-.382 1.011-.042z"/>
    <path fill="#1D3B54" d="M48.063 67.178v1.426h.185v-1.102l-.185-.323zM41.22 68.272s.975 1.338.836 1.554c-.139.216-1.202.246-1.85 0-.647-.247-.662-1.842-.955-2.527-.123-.288.14-1.135.509-1.196.369-.062.801.132.801.132s-.377.975.659 2.037z"/>
    <path fill="#EEA886" d="M40.561 66.235s.077.632.2 1.079c.124.447.786 1.464.756 1.587-.031.124-.864.235-1.203-.082-.339-.318-.6-1.239-.632-1.796-.03-.556.077-.92.077-.92s.478-.207.802.132z"/>
    <path fill="#1D3B54" d="M39.224 67.178v1.426h.185v-1.102l-.185-.323z"/>
    <path fill="#3B3B40" d="M45.433 44.071s.868 4.037 1.067 5.054c.2 1.016.757 5.939.817 6.776.06.836.905 3.99.865 4.29-.04.298 1.301 6.23 1.301 6.23s-1.38.375-1.612.122c-.198-.215-2.18-5.639-2.18-7.134 0-2.065-1.56-4.696-1.756-5.158-1.832-4.294-1.44-5.674-1.68-5.953-.24-.279-.26.173-.4.79-.139.618-.437 5.96-.617 6.637-.179.677-.04 2.969-.14 4.125-.1 1.156-.214 6.335-.214 6.335s-1 .23-1.475.008c-.137-.064-.483-5.77-.503-7.144-.02-1.375-.04-3.272-.08-3.866-.369-5.699-.913-6.507.153-10.546 2.046-7.745 6.454-.566 6.454-.566z"/>
    <path fill="#E8734D" d="M43.186 33.316s.906.428 1.22.49c.314.064 1.535 1.649 1.749 2.227.214.579 0 1.447-.44 2.466-.441 1.019-.026 1.358-.227 2.377-.201 1.02-.01 3.408.027 3.974.038.566-4.628 1.285-6.422-.522 0 0 .973-1.829 1.124-2.08.151-.252.026-1.623-.113-1.975-.138-.353-1.06-3.348-1.06-3.348s-.753-2.3-.072-2.829c.591-.459 2.203-.623 2.492-.723.29-.101 1.13-.145 1.722-.057z"/>
    <path fill="#D6C5BE" d="M43.476 35.335l.55-.644-.478-1.697s-.16.945-.072 2.341z"/>
    <path fill="#EEA886" d="M43.618 32.271s-.18 1.661-.142 2.203c0 0-.941.943-2.012-1.101 0 0 .45-.843.111-1.991-.339-1.148 2.043.889 2.043.889z"/>
    <path fill="#EEA886" d="M43.476 34.473v.862l-1.084-.81 1.084-.052z"/>
    <path fill="#D6C5BE" d="M43.476 35.335l-.45-.557-1.515-1.51-.49.473 2.455 1.594z"/>
    <path fill="#FAE6DE" d="M44.026 34.69l.693.192-1.17-1.888.477 1.697zM43.026 34.778l-.634.83-1.294-2.209.451-.23 1.477 1.61z"/>
    <path fill="#A77860" d="M43.581 32.637l-.03.332s-.749.141-1.728-1.053c0 0 .694.846 1.758.72z"/>
    <path fill="#EEA987" d="M43.392 32.66c.294-.01 1.117-.106 1.523-2.001.496-2.316-.6-3.516-1.538-3.739-.938-.222-1.803.104-2.284 1.314 0 0-.35.943.22 2.624.569 1.68 1.763 1.814 2.078 1.803z"/>
    <path fill="#FCCCA2" d="M42.639 28.422s1.26.078 2.43 1.837c0 0 .548-2.116-.885-3.082-1.432-.966-2.435-.136-2.785.286 0 0-.501.115-.517 1.066-.016.95-.656 2.386.748 3.067 0 0-.134-1.086-.01-1.334.124-.249.553-.08 1.019-1.84z"/>
    <path fill="#EEA987" d="M41.69 29.84c-.064-.165-.237-.231-.332-.055-.095.177.018.862.272.936.254.075.188-.547.06-.881z"/>
    <path fill="#DBDFF0" d="M41.098 33.4s1.423 1.701 1.572 5.28c.15 3.578-1.12 15.006-1.042 16.4l-3.69-1.786s.022-5.766 1.257-9.394c1.45-4.256-.2-5.554-.35-8.173 0 0 .069-1.917 1.137-2.09 1.004-.165 1.116-.238 1.116-.238zM43.958 33.654s.579.068.761.284c.183.216 1.327 1.534 1.41 1.923.084.388.35.678-.199 2.485-.49 1.619-.367 3.432-.266 4.158.102.726 1.87 10.538 1.772 10.79-.097.252-.833.852-.833.852s-1.582-9.681-1.565-11.298c.017-1.617.65-6.43-1.08-9.194z"/>
    <path fill="#616161" d="M56.061 38.763l-1.233 6.352-4.077-.791 1.074-6.384 4.236.823z"/>
    <path fill="#E0CEC7" d="M55.756 39.072l-1.096 5.642-3.621-.703.954-5.67 3.763.731z"/>
    <path fill="#616161" d="M54.607 38.995l.077-.396-1.463-.284-.135.385 1.521.295z"/>
    <path fill="#DB9C7C" d="M55.603 42.122s-.73-.239-.946-.102c-.217.138.042.238.042.238s-.255-.104-.355.087c-.1.19.209.292.209.292s-.213-.028-.24.196c-.027.223.248.25.248.25s-.319.126-.117.33c.339.343.903.292.903.292s.14-.034.15-.25c0 0 .337-.058.23-.42 0 0 .27-.297.002-.456 0 0 .286-.34-.126-.457z"/>
    <path fill="#EEA886" d="M37.928 45.769s-.147.687.153 1.152c.115.177.005 1.52-.006 1.689-.009.14-.135.26-.188.231-.052-.029-.063-.772-.143-1.012-.066-.2-.125-.277-.161-.213-.037.065.086 1.144.157 1.502.07.357-.018 1.11-.203.988-.186-.122-.806-1.793-.76-2.352.046-.558.257-1.256.257-1.256l.894-.73z"/>
    <path fill="#DBDFF0" d="M40.88 33.5s-1.473-.09-2.212.769c-.74.86-.699 1.881-.887 2.325-.188.443-.618 2.351-.712 2.66-.095.31-.186 2.046-.32 3.444-.135 1.398-.108 4.007-.108 4.007l1.41-.256s.057-2.488.093-3.93c.036-1.442 1.21-3.99 1.653-5.106.443-1.115 2.209-3.213 1.083-3.913z"/>
  </g>
  <g>
    <path fill="#B3B7C4" d="M85.373 54.861s-2.362-.668-5.248 0l1.385-7.091s3.456 3.664 3.863 7.091z"/>
    <path fill="#2D2D30" d="M79.006 67.005s-1.076 1.824-1.53 2.122c-.617.404-.23.813.062.814.293 0 1.789.107 2.118-.267.33-.374.493-1.495.8-1.788.307-.293.587-1.375-.15-1.742-.807-.403-1.3.861-1.3.861z"/>
    <path fill="#EEA886" d="M79.41 66.049s-1.17 2.29-1.383 2.606c-.212.315.4.315.78.165.379-.15 1.364-1.67 1.47-1.961.107-.292.03-.715.03-.715l-.898-.095z"/>
    <path fill="#2D2D30" d="M80.72 67.352l-.284 2.19-.151.007.047-1.576.388-.62zM88.233 65.227s-.258 2.102-.556 2.556c-.404.618.114.838.383.721.269-.116 1.683-.616 1.835-1.09.153-.475-.145-1.568.02-1.96.163-.39-.012-1.494-.834-1.536-.9-.046-.848 1.309-.848 1.309z"/>
    <path fill="#EEA886" d="M88.22 64.188s-.157 2.567-.226 2.941c-.069.374.492.13.78-.16.288-.289.584-2.075.565-2.385-.018-.31-.258-.667-.258-.667l-.86.271z"/>
    <path fill="#2D2D30" d="M89.943 64.86l.614 2.121-.136.067-.586-1.463.108-.725z"/>
    <path fill="#EEA886" d="M78.05 45.986s-.034.398-.008.822c.013.206-.33 1.432-.386 1.587-.047.13-.11.024-.127-.076-.01-.058.04-.503.032-.75-.006-.208-.041-.295-.093-.245-.052.05-.354.812-.386 1.168-.032.355-.346 1.1-.487.935-.141-.165-.12-1.683.077-2.195.198-.513.588-1.11.588-1.11l.79-.136z"/>
    <path fill="#DBDFF0" d="M78.212 46.281c.058-.163 1.466-2.422 1.803-3.14.337-.72.633-1.38.791-1.662.01-.018.028-.05.05-.094.11-.21.35-.678.592-1.114l.05-.09.043-.174c.17-.302.071-.503.104-.757a.77.77 0 01.076-.247l.005-.01c.207-.407.368-.766.42-.973.169-.687.979-3.737.979-3.737s-1.309.461-1.512.93a24.856 24.856 0 00-.772 2.113c-.1.331-1.023 3.075-1.214 3.633-.19.557-.385 1.025-.597 1.382-.213.356-1.744 3.587-1.852 3.88 0 0 .976.223 1.034.06z"/>
    <path fill="#3B3B40" d="M83.74 49.266c-.053.259-.396 1.342-.78 2.546-.35 1.098-.735 2.295-.965 3.06-.086.284-.15.509-.184.646-.22.905.028 2.324.108 3.51s-.372 7.197-.372 7.197c-.302.141-2.237-.109-2.237-.109.221-.422.29-7.985.17-8.448-.122-.462-.202-1.748-.081-2.251.025-.104.037-.24.04-.404.01-.634-.12-1.682-.2-2.833-.1-1.447.462-5.045.542-5.367l.034-.123c.148-.504.625-1.937.625-1.937.967-.288 1.695-.34 2.239-.229.72.147 1.115.579 1.313 1.127.472 1.309-.182 3.28-.251 3.615z"/>
    <path fill="#3B3B40" d="M89.34 63.917l-1.55 1.255c-.166-.803-3.728-7.161-3.97-7.785-.243-.623-.501-1.829-.501-2.271 0-.079-.006-.212-.017-.385a29.969 29.969 0 00-.342-2.919 11.325 11.325 0 00-.103-.515c-.195-.85-.229-3.749-.23-5.454-.002-.758.003-1.28.003-1.28l.049-.038c.367-.278 2.718-1.969 3.537-.388.217.418.358.866.444 1.334.263 1.432.005 3.046-.207 4.517-.182 1.257-.53 3.035-.63 4.354-.055.726-.035 1.313.13 1.599.462.803.914 1.484 1.85 4.322.303.922 1.537 3.654 1.537 3.654z"/>
    <path fill="#2D3133" d="M82.052 29.926s-.512-3.308 2.228-3.248c2.74.061 2.704 1.697 2.655 3.32-.049 1.624-1.099 1.502.085 3.76 1.184 2.259-1.025 2.259-1.025 2.259L84.28 33.66l-2.228-3.735z"/>
    <path fill="#EEA886" d="M83.98 26.996s-1.855.293-1.929 2.93c-.073 2.637.501 3.198 2.124 2.65 1.624-.55 2.136-3.309 2.173-3.736.037-.428.135-2.161-2.368-1.844z"/>
    <path fill="#E55353" d="M87.239 36.167c.007.908-1.037 3.078-1.197 3.748-.161.67-.416.885-.201 1.743.214.858.879 3.76.852 4.014-.027.254-4.06 1.535-6.879 1.019 0 0 1.098-4.096 1.178-4.565.08-.47-.097-2.227-.138-2.724-.04-.496-.542-1.563-.525-2.06.017-.506.266-.944.613-1.485.108-.167.222-.338.335-.504.368-.54.737-1.032.917-1.201.135-.126.26-.223.37-.295.228-.152.38-.201.38-.201l1.596-.255s.994.36 1.566.494c0 0 1.116.163 1.133 2.272z"/>
    <path fill="#E55353" d="M82.566 33.857l-.925 1.457-.853 1.344c.002-.007.059-.21.155-.8.019-.112.038-.238.06-.379.006-.041.015-.083.026-.124.365-.842 1.495-1.477 1.536-1.498z"/>
    <path fill="#EEA886" d="M85.22 31.387c-.162.303-.331 2.189-.331 2.189s-2.27.858-2.037.372c.105-.22.136-.506.138-.752a3.64 3.64 0 00-.025-.458l-.01-.078s2.425-1.577 2.264-1.273z"/>
    <path fill="#2D3133" d="M83.224 28.888s.952 1.55 1.819 2.16c.866.611.427 1.1.427 1.1s2.261-4.761.111-5.09c-2.15-.33-3.468-.355-3.53 2.868 0 0 .977-1.062 1.173-1.038z"/>
    <path fill="#A77860" d="M84.259 32.544c-.349.514-1.269.652-1.269.652a3.603 3.603 0 00-.025-.458c.591.114 1.294-.194 1.294-.194z"/>
    <path fill="#DBDFF0" d="M81.033 35.345s-.05.102-.09.512l.335-.504s.597-.856.801-1.079c.205-.222.486-.417.486-.417s-1.175.565-1.532 1.488z"/>
    <path fill="#EEA886" d="M86.064 40.81s-.671.236-1.294.368.021.878.021.878 1.08-.1 1.598-.15c.251-.024-.325-1.096-.325-1.096z"/>
    <path fill="#E55353" d="M85.549 36.622s1.456-.571 1.887-.605c0 0-.293-2.339-1.724-2.091-1.43.248-.163 2.696-.163 2.696z"/>
    <path fill="#EEA886" d="M82.946 33.656s-1.07 1.644-.708 1.788c.362.144 2.322-.191 3.155-1.753 0 0-1.246-.64-2.447-.035z"/>
    <path fill="#DBDFF0" d="M84.895 33.51s-1.134 1.881-1.283 5.46c-.149 3.578 1.12 15.006 1.042 16.4l3.427-1.48s-1.291-9.346-1.72-11.128c-.429-1.783.925-4.127 1.076-6.745 0 0-.095-1.796-1.137-2.09-1.042-.296-1.405-.417-1.405-.417z"/>
    <path fill="#EEA886" d="M87.185 35.4s-.256-1.728-1.522-1.442c-1.217.273-.077 2.539.013 2.807.089.269.99 2.46 1.068 2.747.247.908.016.93-.356 1.144-1.098.632-3.354.59-3.614.764-.26.174-.245.714.192.733.57.024 3.82-.281 4.273-.326.44-.043 1.315-.08 1.085-1.642-.155-1.054-1.139-4.784-1.139-4.784z"/>
    <path fill="#DBDFF0" d="M82.946 33.656s-1.206 2.001-1.269 4.371c-.063 2.37-2.27 12.47-2.038 17.644l-.513-.497a.792.792 0 01-.24-.617c.088-1.486.48-7.161 1.45-10.27 1.124-3.6.18-5.985-.009-6.627-.189-.642.415-1.497.617-1.803.202-.305.686-1.71 2.002-2.201z"/>
    <path fill="#616161" d="M85.572 37.933l1.016 6.391-4.102.652-1.176-6.365 4.262-.678z"/>
    <path fill="#E0CEC7" d="M85.39 38.328l.902 5.677-3.643.578-1.044-5.653 3.785-.602z"/>
    <path fill="#616161" d="M84.285 38.649l-.063-.398-1.473.233.006.408 1.53-.243z"/>
    <path fill="#EEA886" d="M84.77 41.178s-.678.114-.741.103c-.063-.01-.331-.449-.641-.528-.311-.079-.699-.14-.794-.199-.096-.06-.122.245.176.37.298.123.373.29-.185.402-.309.062-1.464-.067-1.368.128.057.115 1.169.196 1.169.196s-1.2-.005-1.241.067c-.08.143 1.123.194 1.174.189 0 0-1.032.06-1.04.152-.012.115 1.033.066 1.023.085 0 0-.82.056-.812.126.011.092.733.103.872.087.14-.016 1.554-.177 1.79-.225.24-.047.638-.075.638-.075l-.02-.878z"/>
    <path fill="#DBDFF0" d="M87.382 35.588s1.163 4.404 1.066 5.488c-.096 1.084-4.287 1.287-4.287 1.287v-1.141s2.194-.487 2.606-.99c.214-.263-1.218-3.61-1.218-3.61s-1.281-2.094-.067-2.628c1.214-.534 1.737.958 1.9 1.594z"/>
  </g>
  <g>
    <path fill="#EEA886" d="M17.373 47.522s-.69.342-1.344.407c0 0-.617-.906-.979-1.584-.862-1.617-1.117-2.374-1.043-2.995.132-1.116 2.327-5.581 2.327-5.581l2.437.94-1.866 3.315c-.174.34-.398.892-.63 1.34-.305.59.062 1.936.279 2.499 0 0 .397 1.09.82 1.659z"/>
    <path fill="#353A3D" d="M9.758 65.915s-.071.404.208.943c.28.54 1.533 1.915 1.446 2.48-.086.564-1.534.498-2.443-.496-.909-.995-2.26-2.027-2.209-2.266.05-.238 1.413-1.479 1.887-1.644.474-.165 1.111.983 1.111.983z"/>
    <path fill="#EEA886" d="M10.259 65.383l-.512.552-1.152-.982.53-.613 1.134 1.043z"/>
    <path fill="#248C9E" d="M8.677 64.34c.562-.637 5.095-5.275 5.095-5.275 2.312-2.665 3.216-2.735 3.216-2.735s.584.012 1.377.12c.114.016.486.012.605.031 1.472.24 1.512.071.974 1.277-.885 1.983-9.759 7.704-9.759 7.704L8.677 64.34z"/>
    <path fill="#353A3D" d="M29.385 66.757s.727.317 1.367.404c.64.088 2.184-.166 2.622.254.438.421-.506 1.64-1.928 1.82-1.421.182-3.242.483-3.418.294-.177-.19-.325-1.894-.178-2.407.147-.514 1.535-.365 1.535-.365z"/>
    <path fill="#EEA886" d="M29.08 66.004l.305.753-1.535.365-.232-.807 1.462-.311z"/>
    <path fill="#248C9E" d="M26.776 56.48s-.625-2.383.842 3.23c0 0 1.547 5.99 1.717 6.33.04.081-1.939.443-1.976.429-.344-.137-3.425-7.811-4.19-9.229-.675-1.247 3.607-.76 3.607-.76z"/>
    <path fill="#248C9E" d="M26.776 56.48l-3.08 1.772s-1.211-1.489-2.014-2.096a15.614 15.614 0 01-.248-.19 21.88 21.88 0 01-.614-.478c-.586-.468-1.134-.941-1.436-1.29-.873-1.008 1.037-7.377 3.449-4.536-.001 0 3.232 3.035 3.943 6.818z"/>
    <path fill="#248C9E" d="M22.64 48.907s-1.518 6.973-3.014 9.345c0 0-2.54-.856-3.707-1.314 0 0-.114-5.04 0-6.356.104-1.229 6.72-1.675 6.72-1.675z"/>
    <path fill="#2AA3B8" d="M15.613 51.352s.64-6.266.11-9.181c-.352-1.939.158-5.084 1.32-6.781.14-.206.287-.39.438-.546 0 0 2.345.621 2.58.785.034.024.288.248.61.641.667.82 1.653 2.301 1.749 3.74.07 1.047.127 2.008.192 3l.062.917c.053.746.113 1.527.188 2.388.041.48.364 2 .577 3.402l-7.826 1.636z"/>
    <path fill="#196370" d="M21.433 55.967a21.747 21.747 0 01-.613-.479c.123-.393.793-2.184 1.055-3.463 0 0 .194 1.992-.442 3.942z"/>
    <path fill="#1D6F7D" d="M22.674 43.926s-1.365 2.075-1.607-3.05l1.545 2.133.062.917z"/>
    <path fill="#EEA886" d="M17.48 34.844s.245-1.356-.04-2.144c-.284-.787 2.335 1.328 2.335 1.328a11.587 11.587 0 00.026.733c.024.322.067.673.146.875.175.443-2.466-.792-2.466-.792z"/>
    <path fill="#EEA886" d="M21.268 30.094s.552 1.04.274 1.2c-.23.13.26 1.151.324 1.318.064.167-.416.284-.52.39-.102.106-.412 1.42-.808 1.457-.395.037-2.17-.594-2.652-1.101-.482-.507-.864-2.786-.534-3.744.33-.957 2.942-1.337 3.916.48z"/>
    <path fill="#3B3B40" d="M21.378 30.32s.578-1.116-.453-1.953c-1.03-.837-2.951.607-3.167.662-.216.054-1.495.462-.853 2.365.582 1.726.657 1.921.657 1.921s.354-1.147.58-1.308c.35-.252 1.117-.186 1.117-.186s-.359-.973.213-1.107c.573-.134 1.33-.613 1.906-.394z"/>
    <path fill="#EEA886" d="M18.655 31.26c-.05-.132-.209-.706-.702-.373-.493.333.297 1.416.383 1.431.085.014.736.066.32-1.057z"/>
    <path fill="#A77860" d="M19.8 34.76c-.81-.218-1.507-1.1-1.507-1.1.222.217 1.486.642 1.486.642.003.128.01.289.022.458z"/>
    <path fill="#616161" d="M28.864 42.133l-1.322 6.805-4.368-.848 1.151-6.839 4.539.882z"/>
    <path fill="#E0CEC7" d="M28.536 42.464l-1.174 6.044-3.879-.753 1.022-6.074 4.031.783z"/>
    <path fill="#616161" d="M27.306 42.381l.082-.424-1.568-.304-.143.412 1.629.316z"/>
    <path fill="#EEA886" d="M28.353 46.91s-.192.08-.293.074c0 0-.184-.025-.315-.034-.042-.003-.079-.004-.102-.003-.099.006-.313.048-.554-.004-.241-.053-1.221-.546-1.221-.546l.116-.605.028-.582s1.429-.486 1.659-.463a.66.66 0 01.065.01c.193.038.32.148.419.18.036.012.389.153.423.261.048.15.02.274-.047.358 0 0 .08.298-.004.488 0 0 .083.273-.09.478.001 0 .054.286-.084.388z"/>
    <g>
      <path fill="#EEA886" d="M26.341 45.075s-.136.759-.473 1.322c0 0-1.096-.043-1.856-.157-1.812-.27-2.572-.517-3.027-.946-.817-.77-3.096-5.194-3.096-5.194l2.206-1.397 1.552 3.473c.169.342.479.852.701 1.306.292.595 1.592 1.103 2.173 1.264 0 0 1.112.33 1.82.33z"/>
    </g>
    <g>
      <path fill="#2AA3B8" d="M21.195 40.591l-2.508 1.304s-.498-.962-.643-1.275c-.418-.897-1.064-2.253-.252-2.826 1.754-1.236 2.508.815 2.938 1.94.133.348.465.857.465.857z"/>
    </g>
  </g>
  <g>
    <path fill="url(#paint14_linear_161_131)" d="M45.363 10.933h-2.125v8.936h2.125v-8.936z"/>
    <path fill="url(#paint15_linear_161_131)" d="M39.833 16.463v-2.125h8.935v2.125h-8.935z"/>
  </g>
  <g>
    <path fill="#E0E0E0" d="M13.195 18.563a5.072 5.072 0 00-6.752 2.415 5.062 5.062 0 00.092 4.522 5.047 5.047 0 002.635 2.365 5.072 5.072 0 004.024-9.302zm1.268 6.209a3.803 3.803 0 01-6.804.139 3.795 3.795 0 01.599-4.372 3.803 3.803 0 016.205 4.233z"/>
    <path fill="#2D5BAD" d="M7.659 24.91l-1.124.59a5.065 5.065 0 01-.093-4.523 5.07 5.07 0 01.892-1.309l.924.87a3.797 3.797 0 00-.599 4.372z"/>
    <path fill="#5D96FF" d="M9.634 26.683l-.465 1.181A5.05 5.05 0 016.534 25.5l1.124-.59a3.785 3.785 0 001.976 1.773zM10.617 28.201a5.039 5.039 0 01-1.448-.337l.465-1.18c.355.14.721.223 1.085.252l-.102 1.265z"/>
  </g>
  <g>
    <path fill="#5D96FF" d="M9.468 31.543H0v-.188h9.28v-4.011h.188v4.199z"/>
  </g>
  <g>
    <path fill="#E0E0E0" d="M4.984 29.396H0v1.13h4.984v-1.13z"/>
  </g>
  <defs>
    <linearGradient id="paint0_linear_161_131" x1="59.849" x2="65.204" y1="8.904" y2="26.544" gradientUnits="userSpaceOnUse">
      <stop stop-color="#40D5E6"/>
      <stop offset="1" stop-color="#57F"/>
    </linearGradient>
    <linearGradient id="paint1_linear_161_131" x1="70.042" x2="79.108" y1="3.607" y2="33.469" gradientUnits="userSpaceOnUse">
      <stop stop-color="#01FFBE"/>
      <stop offset="1" stop-color="#4C7EF2"/>
    </linearGradient>
    <linearGradient id="paint2_linear_161_131" x1="75.221" x2="79.323" y1="16.02" y2="29.535" gradientUnits="userSpaceOnUse">
      <stop stop-color="#01FFBE"/>
      <stop offset="1" stop-color="#4C7EF2"/>
    </linearGradient>
    <linearGradient id="paint3_linear_161_131" x1="18.473" x2="109.185" y1="38.445" y2="38.445" gradientUnits="userSpaceOnUse">
      <stop stop-color="#FF9F55"/>
      <stop offset="1" stop-color="#FFD255"/>
    </linearGradient>
    <linearGradient id="paint4_linear_161_131" x1="5.889" x2="5.889" y1="46.021" y2="35.049" gradientUnits="userSpaceOnUse">
      <stop stop-color="#FF9F55"/>
      <stop offset="1" stop-color="#FFD255"/>
    </linearGradient>
    <linearGradient id="paint5_linear_161_131" x1="8.593" x2="8.593" y1="46.021" y2="35.049" gradientUnits="userSpaceOnUse">
      <stop stop-color="#FF9F55"/>
      <stop offset="1" stop-color="#FFD255"/>
    </linearGradient>
    <linearGradient id="paint6_linear_161_131" x1="11.298" x2="11.298" y1="46.021" y2="35.049" gradientUnits="userSpaceOnUse">
      <stop stop-color="#FF9F55"/>
      <stop offset="1" stop-color="#FFD255"/>
    </linearGradient>
    <linearGradient id="paint7_linear_161_131" x1="14.002" x2="14.002" y1="46.021" y2="35.049" gradientUnits="userSpaceOnUse">
      <stop stop-color="#FF9F55"/>
      <stop offset="1" stop-color="#FFD255"/>
    </linearGradient>
    <linearGradient id="paint8_linear_161_131" x1="50.674" x2="52.065" y1="82.381" y2="3.386" gradientUnits="userSpaceOnUse">
      <stop offset=".229" stop-color="#01FFBE"/>
      <stop offset="1" stop-color="#57F"/>
    </linearGradient>
    <linearGradient id="paint9_linear_161_131" x1="55.408" x2="65.76" y1="15.812" y2="15.812" gradientUnits="userSpaceOnUse">
      <stop stop-color="#40D5E6"/>
      <stop offset="1" stop-color="#57F"/>
    </linearGradient>
    <linearGradient id="paint10_linear_161_131" x1="55.408" x2="64.911" y1="21.302" y2="21.302" gradientUnits="userSpaceOnUse">
      <stop stop-color="#40D5E6"/>
      <stop offset="1" stop-color="#57F"/>
    </linearGradient>
    <linearGradient id="paint11_linear_161_131" x1="55.408" x2="63.63" y1="18.557" y2="18.557" gradientUnits="userSpaceOnUse">
      <stop stop-color="#40D5E6"/>
      <stop offset="1" stop-color="#57F"/>
    </linearGradient>
    <linearGradient id="paint12_linear_161_131" x1="44.3" x2="44.3" y1="26.51" y2="15.141" gradientUnits="userSpaceOnUse">
      <stop stop-color="#7DB3E0"/>
      <stop offset="1" stop-color="#fff"/>
    </linearGradient>
    <linearGradient id="paint14_linear_161_131" x1="43.923" x2="44.827" y1="9.625" y2="23.463" gradientUnits="userSpaceOnUse">
      <stop stop-color="#01FFBE"/>
      <stop offset="1" stop-color="#57F"/>
    </linearGradient>
    <linearGradient id="paint15_linear_161_131" x1="43.923" x2="44.827" y1="9.625" y2="23.463" gradientUnits="userSpaceOnUse">
      <stop stop-color="#01FFBE"/>
      <stop offset="1" stop-color="#57F"/>
    </linearGradient>
    <radialGradient id="paint13_radial_161_131" cx="0" cy="0" r="1" gradientTransform="translate(63.828 40.898) scale(32.4972)" gradientUnits="userSpaceOnUse">
      <stop offset=".16" stop-color="#90C2E8"/>
      <stop offset=".581" stop-color="#47AFFF"/>
      <stop offset="1" stop-color="#6783F5"/>
    </radialGradient>
  </defs>
</svg>
