<svg xmlns="http://www.w3.org/2000/svg" width="213" height="137" fill="none" viewBox="0 0 213 137">
  <path fill="#F3F3F3" d="M98.14 48.397h-.62v65.245h.62V48.397z"/>
  <path fill="#fff" d="M104.534 40.357H97.83v1.701h6.704v-1.7zM103.194 43.501H97.83v1.7h5.364v-1.7zM105.175 117.507h-7.034v2.268h7.034v-2.268z"/>
  <path fill="url(#paint0_linear_258_58)" d="M123.553 15.308s16.546 19.617 6.05 32.32c-10.496 12.703-13.383.248-13.383.248s-6.282 1.167 4.598-14.722c5.129-7.49 2.735-17.846 2.735-17.846z"/>
  <path fill="url(#paint1_linear_258_58)" d="M159.819 0s12.291 18.142-9.109 39.04-19.81 33.363-19.81 33.363S109.021 29.572 159.819 0z"/>
  <path fill="url(#paint2_linear_258_58)" d="M126.906 64.518c-8.978.81 1.439-23.466 15.465-29.803 14.027-6.338 25.894-5.8 34.095-12.488 0 0-5.348 38.3-49.56 42.291z"/>
  <path fill="#E0E0E0" d="M36.348 48.397h-.621v65.245h.621V48.397z"/>
  <path fill="#F3F3F3" d="M80.565 48.397h-.621v65.245h.621V48.397zM124.782 48.397h-.621v65.245h.621V48.397z"/>
  <path fill="#E0E0E0" d="M46.629 40.357H36.038v1.701h10.59v-1.7zM51.06 43.501H36.038v1.7H51.06v-1.7z"/>
  <path fill="#fff" d="M92.212 40.357H79.778v1.701h12.434v-1.7zM87.729 43.501h-7.95v1.7h7.95v-1.7zM132.488 40.357h-7.705v1.701h7.705v-1.7zM133.763 43.501h-8.98v1.7h8.98v-1.7zM87.29 117.507h-7.036v2.268h7.035v-2.268zM131.817 117.507h-7.034v2.268h7.034v-2.268z"/>
  <path fill="url(#paint3_linear_258_58)" d="M114.799 93.517c-10.18.001-18.255-6.846-26.159-13.548-5.993-5.081-12.212-10.277-19.389-12.84-21.906-7.821-33.113 6.46-33.213 6.586v-4.344c.118-.148 2.117-2.744 7.901-5.223 5.266-2.256 14.1-4.056 26.286.182 7.72 2.685 14.132 8.12 20.332 13.378 12.579 10.665 23.441 19.874 42.307 5.448 14.288-10.926 27.758-21.338 41.01-25.142 12.962-3.72 26.476-.997 39.126 11.653v3.968c-26.87-26.988-49.843-9.912-78.336 11.876-7.548 5.772-14.05 8.005-19.865 8.006z"/>
  <path fill="#E0E0E0" d="M12.55 72.67h-2.124v9.174h2.124V72.67zM17.827 68.942h-2.125v12.902h2.125V68.942zM23.103 66.997h-2.125v14.846h2.125V66.997zM28.378 66.186h-2.125v15.657h2.125V66.186z"/>
  <path fill="url(#paint4_linear_258_58)" d="M12.55 76.087h-2.124v5.757h2.124v-5.757z"/>
  <path fill="url(#paint5_linear_258_58)" d="M17.827 73.749h-2.125v8.094h2.125V73.75z"/>
  <path fill="url(#paint6_linear_258_58)" d="M23.103 72.528h-2.125v9.315h2.125v-9.315z"/>
  <path fill="url(#paint7_linear_258_58)" d="M28.378 72.02h-2.125v9.823h2.125V72.02z"/>
  <path fill="url(#paint8_linear_258_58)" d="M67.165 123.116h66.514a5.586 5.586 0 005.587-5.586V25.918a5.586 5.586 0 00-5.587-5.586H67.165a5.586 5.586 0 00-5.587 5.587v91.611a5.586 5.586 0 005.587 5.586z"/>
  <path fill="#F5F5F5" d="M134.669 8.184H69.927a3.75 3.75 0 00-3.75 3.75v106h68.493V8.184h-.001z"/>
  <path fill="url(#paint9_linear_258_58)" d="M128.285 29.569H108.09v2.554h20.195V29.57z"/>
  <path fill="url(#paint10_linear_258_58)" d="M126.629 40.278H108.09v2.555h18.539v-2.555z"/>
  <path fill="url(#paint11_linear_258_58)" d="M124.13 34.925h-16.04v2.555h16.04v-2.555z"/>
  <path fill="url(#paint12_linear_258_58)" d="M86.423 45.95c-2.295 0-4.507-.477-6.575-1.417a15.95 15.95 0 01-9.332-14.49c0-8.771 7.136-15.907 15.908-15.907 8.771 0 15.907 7.136 15.907 15.908a15.949 15.949 0 01-9.333 14.489 15.788 15.788 0 01-6.575 1.417zm0-30.975c-8.309 0-15.069 6.76-15.069 15.069a15.11 15.11 0 008.841 13.725 14.936 14.936 0 006.227 1.343c2.173 0 4.268-.452 6.226-1.343a15.11 15.11 0 008.841-13.725c.001-8.309-6.759-15.069-15.066-15.069z"/>
  <path fill="#4E7ED6" d="M93.72 52.355H70.515v2.277H93.72v-2.277z"/>
  <path fill="#E0E0E0" d="M93.72 58.484H70.515v2.277H93.72v-2.277zM93.72 64.61H70.515v2.278H93.72V64.61z"/>
  <path fill="#4E7ED6" d="M102.33 52.355h-3.873v2.277h3.873v-2.277z"/>
  <path fill="#E0E0E0" d="M102.33 58.484h-3.873v2.277h3.873v-2.277zM102.33 64.61h-3.873v2.278h3.873V64.61z"/>
  <path fill="url(#paint13_radial_258_58)" d="M197.582 94.257c-13.791 0-25.781-5.962-38.279-12.178-15.429-7.673-31.385-15.607-52.643-13.434-13.575 1.387-22.095 6.915-29.613 11.792-6.806 4.416-13.242 8.3-21.957 8.632-14.085.536-18.972-5.472-19.054-5.838v-3.855c.018.066 3.093 6.809 19.039 6.729 7.853-.04 13.648-3.8 20.36-8.154 7.798-5.06 16.636-10.795 30.923-12.255 22.11-2.26 38.457 5.869 54.264 13.73 16.54 8.225 32.324 15.938 52.374 9.217v3.17c-5.779 1.936-10.329 2.443-15.414 2.444z"/>
  <path fill="#F5F5F5" d="M147.256 120.463h-32.435a6.964 6.964 0 01-6.964-6.964V57.025a6.964 6.964 0 016.964-6.964h32.435a6.964 6.964 0 016.964 6.964v56.474a6.964 6.964 0 01-6.964 6.964z"/>
  <path fill="#E0E0E0" d="M148.8 60.532a7.591 7.591 0 00-7.372-5.032 7.594 7.594 0 00-2.329.441 7.579 7.579 0 00-4.689 4.884 7.554 7.554 0 00.285 5.291 7.592 7.592 0 009.515 4.117 7.59 7.59 0 004.59-9.701zm-5.229 7.913a5.692 5.692 0 01-7.134-3.086 5.658 5.658 0 01-.214-3.967 5.679 5.679 0 013.516-3.662 5.69 5.69 0 017.273 3.441 5.69 5.69 0 01-3.441 7.274z"/>
  <path fill="#537FFD" d="M136.223 61.39l-1.813-.566a7.577 7.577 0 014.689-4.884 7.588 7.588 0 012.328-.441l.057 1.899a5.675 5.675 0 00-1.745.331 5.677 5.677 0 00-3.516 3.662z"/>
  <path fill="#4BA6F3" d="M136.437 65.358l-1.741.758a7.553 7.553 0 01-.285-5.291l1.813.566a5.664 5.664 0 00.213 3.967z"/>
  <path fill="#46BBED" d="M135.872 68.005a7.54 7.54 0 01-1.177-1.888l1.741-.758c.228.525.527 1 .882 1.416l-1.446 1.23z"/>
  <g>
    <path fill="#5084FC" d="M141.587 104.568h-4.091v13.413h4.091v-13.413z"/>
  </g>
  <g>
    <path fill="#5084FC" d="M135.506 108.33h-4.091v9.651h4.091v-9.651z"/>
  </g>
  <g>
    <path fill="#5084FC" d="M147.487 98.353h-4.091v19.629h4.091v-19.63z"/>
  </g>
  <g>
    <path fill="#5084FC" d="M114.051 103.186l-.355-.273 6.666-8.674 8.227.447 6.205-9.88 6.683-.69 4.016-7.944.401.203-4.127 8.162-6.71.692-6.228 9.919-8.256-.448-6.522 8.486z"/>
  </g>
  <path fill="#4E7ED6" d="M126.659 60.055h-11.633a1.33 1.33 0 010-2.66h11.633a1.33 1.33 0 110 2.66z"/>
  <path fill="#E0E0E0" d="M126.659 64.696h-11.633a1.33 1.33 0 010-2.66h11.633a1.33 1.33 0 110 2.66zM126.659 69.335h-11.633a1.33 1.33 0 010-2.66h11.633a1.33 1.33 0 110 2.66z"/>
  <g>
    <path fill="#B3B7C4" d="M88.875 104.59s-4.608-1.302-10.237 0l2.701-13.834c.001 0 6.743 7.148 7.536 13.834z"/>
    <path fill="#EEA987" d="M103.477 80.74s1.035.742 1.34.648c.306-.093.82.057 1.111.026.291-.03 1.05-.394 1.356-.315.125.031.816.524 1.076.561.26.038.796.05.76.272-.036.221-.518.34-.518.34s.235.05.265.254c.057.399-.152.539-.152.539s.21.203.191.374c-.041.378-.247.507-.247.507s.091.199.006.443c-.108.312-.437.359-.437.359s-.044.423-.277.48c-.233.056-.435-.025-.628-.031-.193-.006-1.849-.578-2.834-1.438-.985-.861-2.124-1.364-2.124-1.364l1.112-1.654z"/>
    <path fill="#FCCCA2" d="M82.263 52.437s-1.545-.99-2.938.77c-1.393 1.763-.892 3.456-.6 5.038.288 1.568 1.692 5.157 1.095 6.738-.596 1.581.166 2.404.166 2.404s4.79 1.226 4.231-5.978c-.558-7.204-1.954-8.972-1.954-8.972z"/>
    <path fill="#DBDFF0" d="M84.315 66.04s1.824-.249 3.049.669c1.224.918 2.06 2.636 2.434 3.176.374.54 4.745 5.364 4.963 5.451.217.088 2.938 1.589 4.77 2.801 1.833 1.213 4.721 2.674 4.721 2.674l-1.567 1.92s-7.715-2.762-9.32-4.255c-1.715-1.596-9.641-9.511-9.641-9.511s-1.993-1.61.591-2.924z"/>
    <path fill="#1D3B54" d="M97.584 133.142s1.973 2.656 1.703 3.077c-.27.421-2.346.481-3.609 0-1.262-.481-1.292-3.593-1.863-4.93-.24-.56.273-2.213.992-2.333.72-.12 1.502.232 1.502.232s-.747 1.883 1.275 3.954z"/>
    <path fill="#EEA886" d="M96.322 129.165s.415 1.131.567 2.21c.126.896 1.405 2.798 1.346 3.038-.061.241-1.684.459-2.346-.161-.662-.62-1.087-2.424-1.233-3.502-.136-1.005-.306-1.501-.306-1.501s1.34-.746 1.972-.084z"/>
    <path fill="#1D3B54" d="M93.762 131.054v2.78h.36v-2.148l-.36-.632zM80.413 133.185s1.902 2.612 1.63 3.033c-.27.421-2.345.481-3.608 0-1.262-.481-1.292-3.594-1.863-4.931-.24-.56.272-2.212.992-2.332.72-.12 1.564.258 1.564.258s-.736 1.902 1.285 3.972z"/>
    <path fill="#EEA886" d="M79.128 129.213s.15 1.233.39 2.104c.24.872 1.533 2.856 1.474 3.097-.061.24-1.684.458-2.346-.162-.662-.619-1.172-2.415-1.233-3.501-.06-1.087.15-1.796.15-1.796s.933-.404 1.565.258z"/>
    <path fill="#1D3B54" d="M76.52 131.054v2.78h.36v-2.148l-.36-.632z"/>
    <path fill="#3B3B40" d="M88.631 85.975s1.693 7.875 2.082 9.858c.388 1.983 1.477 11.586 1.593 13.219.117 1.632 1.767 7.785 1.689 8.368-.078.583 2.538 12.155 2.538 12.155s-2.693.732-3.146.239c-.385-.42-4.254-11.001-4.254-13.917 0-4.03-3.04-9.162-3.424-10.064-3.573-8.376-2.81-11.068-3.277-11.612-.467-.544-.507.337-.779 1.541-.272 1.205-.854 11.625-1.205 12.947-.35 1.321-.078 5.792-.273 8.047-.194 2.255-.418 12.359-.418 12.359s-1.95.448-2.878.016c-.267-.125-.942-11.256-.98-13.937-.04-2.683-.08-6.383-.156-7.543-.72-11.116-1.782-12.694.298-20.572 3.992-15.109 12.59-1.104 12.59-1.104z"/>
    <path fill="#E8734D" d="M84.248 64.993s1.767.834 2.38.957 2.994 3.215 3.412 4.344c.417 1.128 0 2.822-.86 4.81-.859 1.988-.049 2.65-.441 4.638-.392 1.987-.02 6.647.053 7.751.074 1.104-9.03 2.507-12.529-1.018 0 0 1.9-3.568 2.194-4.058.294-.49.05-3.165-.221-3.853-.27-.687-2.067-6.53-2.067-6.53s-1.47-4.488-.142-5.519c1.154-.895 4.297-1.215 4.862-1.412.564-.196 2.206-.281 3.36-.11z"/>
    <path fill="#D6C5BE" d="M84.813 68.933l1.073-1.257-.931-3.31c0-.001-.314 1.843-.142 4.567z"/>
    <path fill="#EEA886" d="M85.091 62.955s-.352 3.24-.278 4.296c0 0-1.836 1.84-3.924-2.148 0 0 .879-1.643.217-3.883-.662-2.239 3.986 1.735 3.986 1.735z"/>
    <path fill="#EEA886" d="M84.813 67.252v1.681l-2.113-1.58 2.113-.101z"/>
    <path fill="#D6C5BE" d="M84.813 68.932l-.878-1.086L80.98 64.9l-.956.92 4.79 3.111z"/>
    <path fill="#FAE6DE" d="M85.887 67.675l1.353.374-2.285-3.685.932 3.311zM83.935 67.846l-1.236 1.62-2.524-4.31.88-.45 2.88 3.14z"/>
    <path fill="#A77860" d="M85.019 63.667l-.06.65s-1.46.274-3.37-2.056c0 .001 1.354 1.651 3.43 1.406z"/>
    <path fill="#EEA987" d="M84.649 63.714c.575-.021 2.18-.208 2.972-3.905.967-4.517-1.17-6.858-3-7.293-1.83-.434-3.518.203-4.455 2.563 0 0-.685 1.84.427 5.119 1.11 3.278 3.44 3.539 4.056 3.516z"/>
    <path fill="#FCCCA2" d="M83.18 55.446s2.458.153 4.742 3.585c0 0 1.07-4.13-1.726-6.014-2.795-1.884-4.752-.264-5.434.558 0 0-.978.224-1.009 2.08-.03 1.855-1.278 4.655 1.46 5.983 0 0-.262-2.118-.02-2.603.242-.484 1.079-.157 1.987-3.59z"/>
    <path fill="#EEA987" d="M81.329 58.212c-.124-.321-.461-.45-.648-.106-.185.345.036 1.68.531 1.826.496.146.367-1.068.117-1.72z"/>
    <path fill="#DBDFF0" d="M80.175 65.156s2.776 3.32 3.067 10.301c.29 6.98-2.186 29.274-2.032 31.995l-7.2-3.484s.043-11.248 2.453-18.326c2.828-8.303-.389-10.836-.682-15.944 0 0 .133-3.74 2.217-4.08 1.96-.32 2.177-.462 2.177-.462zM85.753 65.653s1.13.132 1.486.554c.357.422 2.587 2.993 2.75 3.75.164.758.684 1.323-.387 4.85-.958 3.157-.718 6.694-.52 8.11.2 1.417 3.646 20.559 3.457 21.05-.189.491-1.624 1.661-1.624 1.661s-3.086-18.886-3.055-22.04c.034-3.153 1.269-12.545-2.107-17.935z"/>
    <path fill="#616161" d="M109.366 75.62l-2.407 12.391-7.954-1.544 2.096-12.453 8.265 1.605z"/>
    <path fill="#E0CEC7" d="M108.769 76.223l-2.138 11.006-7.064-1.372 1.862-11.06 7.34 1.426z"/>
    <path fill="#616161" d="M106.529 76.072l.15-.773-2.855-.554-.262.75 2.967.577z"/>
    <path fill="#DB9C7C" d="M108.471 82.172s-1.425-.465-1.846-.197c-.422.267.083.463.083.463s-.497-.203-.692.17c-.197.371.407.569.407.569s-.416-.054-.468.382c-.052.436.484.488.484.488s-.622.245-.229.643c.661.67 1.763.571 1.763.571s.272-.066.292-.489c0 0 .656-.113.447-.818 0 0 .53-.58.005-.89-.002 0 .557-.662-.246-.892z"/>
    <path fill="#EEA886" d="M73.99 89.286s-.287 1.341.3 2.248c.223.346.008 2.967-.013 3.295-.016.274-.263.509-.366.452-.102-.057-.124-1.507-.279-1.975-.129-.392-.245-.54-.315-.415-.071.125.17 2.231.307 2.928.138.697-.034 2.167-.397 1.93-.362-.238-1.571-3.5-1.481-4.59.089-1.089.5-2.449.5-2.449l1.744-1.424z"/>
    <path fill="#DBDFF0" d="M79.75 65.352s-2.875-.177-4.316 1.5c-1.442 1.678-1.364 3.67-1.73 4.536-.368.864-1.206 4.587-1.39 5.19-.184.603-.362 3.991-.624 6.718s-.21 7.816-.21 7.816l2.75-.498s.112-4.853.182-7.667c.07-2.814 2.359-7.785 3.224-9.961.865-2.175 4.31-6.269 2.114-7.634z"/>
  </g>
  <g>
    <path fill="#B3B7C4" d="M166.547 107.025s-4.608-1.303-10.237 0l2.701-13.834s6.743 7.148 7.536 13.834z"/>
    <path fill="#2D2D30" d="M154.126 130.715s-2.099 3.559-2.986 4.14c-1.203.789-.449 1.586.122 1.587.572.001 3.49.21 4.133-.52.643-.729.962-2.916 1.56-3.488.598-.573 1.145-2.683-.292-3.399-1.575-.785-2.537 1.68-2.537 1.68z"/>
    <path fill="#EEA886" d="M154.913 128.85s-2.283 4.468-2.696 5.083c-.414.615.78.615 1.52.323.74-.293 2.662-3.257 2.87-3.826.208-.57.056-1.394.056-1.394l-1.75-.186z"/>
    <path fill="#2D2D30" d="M157.47 131.392l-.554 4.272-.295.013.092-3.073.757-1.212zM172.126 127.246s-.503 4.101-1.084 4.987c-.788 1.204.222 1.635.746 1.406.525-.227 3.283-1.202 3.582-2.127.298-.925-.284-3.058.036-3.822.32-.763-.022-2.916-1.624-2.998-1.759-.09-1.656 2.554-1.656 2.554z"/>
    <path fill="#EEA886" d="M172.102 125.22s-.308 5.008-.442 5.737c-.134.73.961.252 1.523-.312.562-.564 1.138-4.049 1.102-4.654-.036-.604-.505-1.301-.505-1.301l-1.678.53z"/>
    <path fill="#2D2D30" d="M175.462 126.531l1.198 4.138-.264.13-1.144-2.855.21-1.413z"/>
    <path fill="#EEA886" d="M152.26 89.71s-.065.777-.014 1.605c.026.403-.644 2.793-.753 3.095-.091.254-.215.049-.248-.148-.02-.113.079-.98.063-1.462-.013-.405-.081-.576-.182-.478-.101.099-.691 1.584-.754 2.278-.062.694-.673 2.147-.949 1.825-.276-.322-.233-3.283.151-4.283.385-1 1.147-2.165 1.147-2.165l1.539-.266z"/>
    <path fill="#DBDFF0" d="M152.578 90.287c.113-.319 2.86-4.725 3.517-6.127.657-1.403 1.235-2.691 1.543-3.24.021-.037.054-.1.099-.185.214-.409.683-1.323 1.154-2.173l.098-.177.083-.338c.33-.588.139-.98.203-1.476.02-.15.062-.308.149-.483l.009-.019c.402-.794.718-1.493.818-1.897.33-1.34 1.91-7.292 1.91-7.292s-2.552.9-2.949 1.815c-.603 1.387-1.312 3.477-1.506 4.122-.194.646-1.996 5.999-2.368 7.087-.371 1.088-.752 2-1.165 2.696-.414.696-3.403 6.998-3.612 7.57-.001 0 1.903.436 2.017.117z"/>
    <path fill="#3B3B40" d="M163.363 96.11c-.105.504-.774 2.618-1.523 4.966-.683 2.142-1.433 4.477-1.882 5.968-.168.556-.294.994-.359 1.261-.432 1.765.054 4.534.21 6.847.157 2.314-.726 14.042-.726 14.042-.588.275-4.363-.213-4.363-.213.431-.824.565-15.578.33-16.48-.236-.902-.393-3.412-.157-4.393.048-.201.072-.467.077-.787.02-1.237-.235-3.283-.39-5.526-.196-2.824.902-9.844 1.058-10.472.015-.057.038-.139.067-.238.289-.984 1.218-3.78 1.218-3.78 1.887-.56 3.308-.663 4.368-.446 1.404.286 2.176 1.128 2.562 2.198.92 2.553-.354 6.397-.49 7.052z"/>
    <path fill="#3B3B40" d="M174.287 124.69l-3.024 2.45c-.324-1.569-7.272-13.972-7.746-15.188-.473-1.215-.977-3.568-.977-4.431 0-.154-.011-.414-.033-.751-.084-1.307-.323-3.774-.666-5.694a22.576 22.576 0 00-.202-1.006c-.381-1.656-.447-7.312-.45-10.638-.002-1.48.008-2.5.008-2.5l.094-.072c.716-.542 5.302-3.84 6.901-.757.423.815.698 1.69.866 2.602.514 2.795.009 5.943-.404 8.812-.354 2.453-1.033 5.922-1.228 8.494-.108 1.416-.069 2.561.252 3.118.902 1.569 1.784 2.897 3.608 8.432.592 1.799 3.001 7.129 3.001 7.129z"/>
    <path fill="#2D3133" d="M160.068 58.38s-.998-6.453 4.348-6.335c5.345.12 5.273 3.31 5.178 6.477-.095 3.168-2.143 2.93.167 7.335 2.31 4.406-2.001 4.406-2.001 4.406l-3.344-4.596-4.348-7.287z"/>
    <path fill="#EEA886" d="M163.83 52.666s-3.619.57-3.763 5.715c-.142 5.144.977 6.239 4.143 5.168 3.168-1.072 4.168-6.453 4.239-7.287.072-.834.263-4.216-4.619-3.596z"/>
    <path fill="#E55353" d="M170.187 70.556c.014 1.771-2.022 6.005-2.336 7.312-.314 1.307-.81 1.726-.392 3.4.419 1.673 1.716 7.333 1.663 7.83-.053.496-7.918 2.994-13.419 1.988 0 0 2.141-7.99 2.298-8.905.156-.915-.19-4.346-.27-5.314-.078-.967-1.057-3.049-1.025-4.019.034-.988.519-1.84 1.198-2.896.21-.327.431-.66.652-.984.72-1.055 1.438-2.013 1.79-2.344.262-.245.508-.433.721-.575h.001c.444-.296.742-.392.742-.392l3.112-.497s1.939.702 3.054.963c.001 0 2.179.319 2.211 4.433z"/>
    <path fill="#E55353" d="M161.07 66.05l-1.803 2.842-1.664 2.623c.004-.014.114-.41.303-1.562.035-.218.074-.464.115-.739.012-.08.03-.162.052-.242.712-1.642 2.915-2.88 2.995-2.921l.002-.001z"/>
    <path fill="#EEA886" d="M166.248 61.23c-.314.592-.645 4.27-.645 4.27s-4.427 1.674-3.975.727c.206-.43.266-.987.271-1.468a7.065 7.065 0 00-.05-.893c-.011-.097-.02-.153-.02-.153s4.733-3.076 4.419-2.483z"/>
    <path fill="#2D3133" d="M162.354 56.355s1.857 3.025 3.549 4.215c1.69 1.191.833 2.143.833 2.143s4.411-9.287.217-9.93c-4.194-.642-6.766-.69-6.885 5.596 0 0 1.905-2.071 2.286-2.024z"/>
    <path fill="#A77860" d="M164.374 63.488c-.68 1.003-2.475 1.272-2.475 1.272a7.263 7.263 0 00-.05-.893c1.154.222 2.525-.379 2.525-.379z"/>
    <path fill="#DBDFF0" d="M158.081 68.953s-.096.199-.175 1l.652-.985s1.165-1.67 1.563-2.104c.399-.434.947-.814.947-.814s-2.291 1.101-2.987 2.903z"/>
    <path fill="#EEA886" d="M167.895 79.614s-1.309.46-2.524.717c-1.215.257.041 1.714.041 1.714s2.105-.195 3.118-.294c.489-.047-.635-2.137-.635-2.137z"/>
    <path fill="#E55353" d="M166.891 71.443s2.841-1.114 3.681-1.18c0 0-.571-4.563-3.363-4.08-2.791.484-.318 5.26-.318 5.26z"/>
    <path fill="#EEA886" d="M161.812 65.657s-2.087 3.208-1.38 3.488c.706.28 4.529-.373 6.154-3.42 0 0-2.431-1.246-4.774-.067z"/>
    <path fill="#DBDFF0" d="M165.615 65.372s-2.212 3.67-2.503 10.65c-.291 6.981 2.186 29.275 2.032 31.995l6.686-2.889s-2.519-18.23-3.356-21.707c-.836-3.477 1.805-8.05 2.099-13.157 0 0-.185-3.504-2.218-4.08-2.033-.576-2.74-.812-2.74-.812z"/>
    <path fill="#EEA886" d="M170.082 69.06s-.499-3.371-2.97-2.815c-2.373.534-.149 4.954.026 5.478.174.523 1.932 4.798 2.084 5.358.482 1.771.031 1.812-.695 2.23-2.141 1.233-6.543 1.152-7.05 1.492-.508.339-.478 1.394.375 1.43 1.11.047 7.451-.549 8.336-.636.857-.083 2.565-.155 2.117-3.204-.303-2.055-2.223-9.333-2.223-9.333z"/>
    <path fill="#DBDFF0" d="M161.812 65.657s-2.353 3.904-2.475 8.528c-.122 4.624-4.429 24.328-3.975 34.42l-1.002-.97a1.546 1.546 0 01-.469-1.203c.174-2.9.939-13.97 2.831-20.036 2.191-7.02.35-11.675-.018-12.927-.368-1.253.808-2.921 1.204-3.518.393-.595 1.337-3.338 3.904-4.294z"/>
    <path fill="#616161" d="M166.935 74.001l1.982 12.468-8.002 1.272-2.295-12.418L166.935 74z"/>
    <path fill="#E0CEC7" d="M166.581 74.772l1.76 11.073-7.108 1.13-2.037-11.029 7.385-1.174z"/>
    <path fill="#616161" d="M164.425 75.398l-.123-.777-2.874.456.011.795 2.986-.474z"/>
    <path fill="#EEA886" d="M165.371 80.332s-1.323.221-1.446.2c-.123-.019-.645-.875-1.251-1.029-.606-.154-1.362-.272-1.549-.388-.186-.117-.237.477.344.72.581.242.727.567-.362.786-.602.12-2.854-.131-2.667.25.11.223 2.28.382 2.28.382s-2.342-.01-2.421.13c-.157.28 2.192.378 2.289.369 0 0-2.012.115-2.029.296-.022.225 2.016.129 1.998.166 0 0-1.6.11-1.584.247.021.179 1.428.2 1.701.169.273-.032 3.031-.346 3.493-.438.466-.094 1.244-.147 1.244-.147l-.04-1.713z"/>
    <path fill="#DBDFF0" d="M170.466 69.425s2.27 8.59 2.081 10.706c-.189 2.115-8.363 2.51-8.363 2.51v-2.225s4.279-.95 5.082-1.931c.417-.512-2.375-7.043-2.375-7.043s-2.5-4.085-.131-5.126c2.369-1.041 3.388 1.868 3.706 3.11z"/>
  </g>
  <g>
    <path fill="#EEA886" d="M33.892 92.707s-1.347.668-2.622.793c0 0-1.204-1.766-1.91-3.089-1.682-3.154-2.178-4.631-2.035-5.843.258-2.176 4.54-10.887 4.54-10.887l4.753 1.834-3.639 6.467c-.34.662-.778 1.74-1.23 2.615-.594 1.149.12 3.776.544 4.874 0 0 .776 2.126 1.599 3.236z"/>
    <path fill="#353A3D" d="M19.037 128.588s-.14.788.405 1.84c.546 1.053 2.99 3.736 2.821 4.837-.169 1.102-2.992.972-4.765-.968-1.774-1.94-4.408-3.954-4.31-4.419.097-.466 2.756-2.886 3.681-3.207.925-.322 2.168 1.917 2.168 1.917z"/>
    <path fill="#EEA886" d="M20.013 127.551l-1 1.077-2.246-1.915 1.034-1.198 2.212 2.036z"/>
    <path fill="#248C9E" d="M16.928 125.515c1.096-1.242 9.938-10.29 9.938-10.29 4.51-5.198 6.275-5.336 6.275-5.336s1.14.024 2.686.235c.222.031.947.024 1.179.061 2.872.466 2.951.138 1.902 2.491-1.727 3.868-19.039 15.029-19.039 15.029l-2.94-2.19z"/>
    <path fill="#353A3D" d="M57.324 130.23s1.419.619 2.668.79c1.25.17 4.26-.326 5.115.495.855.821-.987 3.198-3.76 3.552-2.774.354-6.325.941-6.67.571-.346-.37-.634-3.695-.348-4.696.288-1.001 2.995-.712 2.995-.712z"/>
    <path fill="#EEA886" d="M56.729 128.761l.595 1.469-2.994.712-.452-1.574 2.851-.607z"/>
    <path fill="#248C9E" d="M52.234 110.182s-1.218-4.648 1.644 6.302c0 0 3.017 11.685 3.349 12.349.078.158-3.782.864-3.854.836-.672-.268-6.682-15.239-8.176-18.003-1.315-2.434 7.037-1.484 7.037-1.484z"/>
    <path fill="#248C9E" d="M52.235 110.182l-6.007 3.457s-2.364-2.904-3.93-4.089a43.744 43.744 0 01-.485-.369 53.816 53.816 0 01-.693-.535c-.167-.132-.337-.265-.503-.399-1.144-.913-2.214-1.836-2.803-2.518-1.703-1.965 2.024-14.389 6.729-8.848-.002 0 6.306 5.922 7.692 13.301z"/>
    <path fill="#248C9E" d="M44.166 95.408s-2.96 13.604-5.88 18.232c0 0-4.955-1.671-7.232-2.564 0 0-.22-9.831 0-12.4.204-2.397 13.112-3.268 13.112-3.268z"/>
    <path fill="#2AA3B8" d="M30.459 100.179s1.248-12.224.214-17.912c-.688-3.782.308-9.917 2.574-13.228.275-.403.56-.76.854-1.064 0 0 4.577 1.211 5.035 1.53.066.046.56.484 1.188 1.251 1.302 1.597 3.226 4.489 3.413 7.296.136 2.041.248 3.916.375 5.85a288.46 288.46 0 00.486 6.45c.082.935.712 3.901 1.127 6.635l-15.266 3.192z"/>
    <path fill="#196370" d="M41.813 109.181a40.362 40.362 0 01-.694-.535 39.628 39.628 0 01-.503-.399c.24-.766 1.546-4.26 2.059-6.756-.001 0 .377 3.887-.862 7.69z"/>
    <path fill="#1D6F7D" d="M44.233 85.692s-2.663 4.048-3.136-5.95l3.015 4.16c.038.59.078 1.183.12 1.79z"/>
    <path fill="#EEA886" d="M34.102 67.973s.477-2.644-.079-4.181c-.555-1.536 4.554 2.59 4.554 2.59a22.582 22.582 0 00.052 1.429c.046.629.129 1.315.285 1.708.34.865-4.813-1.546-4.813-1.546z"/>
    <path fill="#EEA886" d="M41.49 58.708s1.077 2.029.534 2.34c-.448.256.508 2.247.633 2.572.125.325-.813.554-1.013.761-.2.207-.806 2.77-1.578 2.843-.77.072-4.235-1.159-5.174-2.148-.94-.99-1.685-5.435-1.042-7.304.645-1.868 5.74-2.608 7.64.936z"/>
    <path fill="#3B3B40" d="M41.705 59.148s1.127-2.176-.884-3.809c-2.01-1.632-5.758 1.185-6.178 1.291-.421.105-2.917.902-1.665 4.614 1.136 3.367 1.283 3.748 1.283 3.748s.69-2.239 1.13-2.553c.685-.49 2.18-.362 2.18-.362s-.7-1.898.416-2.16c1.118-.26 2.593-1.195 3.718-.77z"/>
    <path fill="#EEA886" d="M36.393 60.985c-.097-.26-.407-1.378-1.369-.73-.963.65.579 2.763.745 2.792.166.028 1.437.129.624-2.062z"/>
    <path fill="#A77860" d="M38.628 67.81c-1.584-.425-2.941-2.144-2.941-2.144.432.423 2.898 1.25 2.898 1.25.006.25.02.565.043.895z"/>
    <path fill="#616161" d="M56.308 82.194L53.729 95.47l-8.52-1.655 2.245-13.34 8.854 1.72z"/>
    <path fill="#E0CEC7" d="M55.669 82.84l-2.291 11.79-7.567-1.469 1.995-11.849 7.863 1.528z"/>
    <path fill="#616161" d="M53.269 82.678l.161-.828-3.06-.593-.28.804 3.179.617z"/>
    <path fill="#EEA886" d="M55.312 91.513s-.375.156-.573.145c0 0-.357-.049-.614-.067-.08-.006-.153-.009-.198-.006-.193.011-.611.094-1.082-.008-.47-.103-2.382-1.064-2.382-1.064l.227-1.181.055-1.136s2.787-.948 3.236-.903a1.3 1.3 0 01.127.02c.376.074.624.288.817.35.07.023.758.3.825.51.095.293.04.535-.092.699 0 0 .159.581-.007.951 0 0 .163.532-.175.934.001-.001.106.557-.164.755z"/>
    <g>
      <path fill="#EEA886" d="M51.386 87.933s-.264 1.48-.923 2.579c0 0-2.137-.085-3.62-.306-3.535-.528-5.017-1.009-5.905-1.846-1.595-1.504-6.04-10.132-6.04-10.132l4.303-2.726 3.028 6.776c.33.667.934 1.661 1.368 2.547.57 1.16 3.105 2.152 4.238 2.465 0 0 2.17.643 3.551.643z"/>
    </g>
    <g>
      <path fill="#2AA3B8" d="M41.348 79.186l-4.894 2.544s-.97-1.878-1.254-2.488c-.815-1.75-2.075-4.396-.49-5.513 3.42-2.412 4.891 1.59 5.73 3.785.26.678.908 1.672.908 1.672z"/>
    </g>
  </g>
  <g>
    <path fill="url(#paint14_linear_258_58)" d="M88.495 21.328H84.35V38.76h4.146V21.328z"/>
    <path fill="url(#paint15_linear_258_58)" d="M77.706 32.117V27.97h17.432v4.146H77.706z"/>
  </g>
  <g>
    <path fill="#E0E0E0" d="M25.74 36.213a9.896 9.896 0 00-11.432 2.157 9.89 9.89 0 00-1.739 2.554 9.875 9.875 0 00.18 8.823 9.845 9.845 0 005.14 4.612c.925.366 1.876.58 2.826.657a9.894 9.894 0 005.025-18.803zm2.473 12.112a7.419 7.419 0 01-7.301 4.223 7.379 7.379 0 01-2.575-.69 7.384 7.384 0 01-3.396-3.261 7.403 7.403 0 01-.136-6.615 7.399 7.399 0 011.304-1.914 7.42 7.42 0 018.571-1.617 7.416 7.416 0 013.533 9.874z"/>
    <path fill="#2D5BAD" d="M14.94 48.596l-2.192 1.149a9.88 9.88 0 01-.18-8.823 9.887 9.887 0 011.739-2.553l1.802 1.697a7.44 7.44 0 00-1.304 1.914 7.408 7.408 0 00.135 6.616z"/>
    <path fill="#5D96FF" d="M18.794 52.054l-.907 2.304a9.85 9.85 0 01-5.14-4.613l2.193-1.149a7.386 7.386 0 003.854 3.458zM20.712 55.015a9.83 9.83 0 01-2.825-.657l.907-2.303a7.382 7.382 0 002.118.493l-.2 2.467z"/>
  </g>
  <g>
    <path fill="#5D96FF" d="M18.47 61.535H0v-.367h18.103v-7.825h.367v8.192z"/>
  </g>
  <g>
    <path fill="#E0E0E0" d="M9.722 57.346H0v2.203h9.722v-2.203z"/>
  </g>
  <defs>
    <linearGradient id="paint0_linear_258_58" x1="116.755" x2="127.202" y1="17.371" y2="51.783" gradientUnits="userSpaceOnUse">
      <stop stop-color="#40D5E6"/>
      <stop offset="1" stop-color="#57F"/>
    </linearGradient>
    <linearGradient id="paint1_linear_258_58" x1="136.639" x2="154.324" y1="7.037" y2="65.291" gradientUnits="userSpaceOnUse">
      <stop stop-color="#01FFBE"/>
      <stop offset="1" stop-color="#4C7EF2"/>
    </linearGradient>
    <linearGradient id="paint2_linear_258_58" x1="146.742" x2="154.746" y1="31.252" y2="57.617" gradientUnits="userSpaceOnUse">
      <stop stop-color="#01FFBE"/>
      <stop offset="1" stop-color="#4C7EF2"/>
    </linearGradient>
    <linearGradient id="paint3_linear_258_58" x1="36.038" x2="212.999" y1="74.998" y2="74.998" gradientUnits="userSpaceOnUse">
      <stop stop-color="#FF9F55"/>
      <stop offset="1" stop-color="#FFD255"/>
    </linearGradient>
    <linearGradient id="paint4_linear_258_58" x1="11.488" x2="11.488" y1="89.779" y2="68.374" gradientUnits="userSpaceOnUse">
      <stop stop-color="#FF9F55"/>
      <stop offset="1" stop-color="#FFD255"/>
    </linearGradient>
    <linearGradient id="paint5_linear_258_58" x1="16.764" x2="16.764" y1="89.778" y2="68.374" gradientUnits="userSpaceOnUse">
      <stop stop-color="#FF9F55"/>
      <stop offset="1" stop-color="#FFD255"/>
    </linearGradient>
    <linearGradient id="paint6_linear_258_58" x1="22.04" x2="22.04" y1="89.778" y2="68.374" gradientUnits="userSpaceOnUse">
      <stop stop-color="#FF9F55"/>
      <stop offset="1" stop-color="#FFD255"/>
    </linearGradient>
    <linearGradient id="paint7_linear_258_58" x1="27.316" x2="27.316" y1="89.778" y2="68.373" gradientUnits="userSpaceOnUse">
      <stop stop-color="#FF9F55"/>
      <stop offset="1" stop-color="#FFD255"/>
    </linearGradient>
    <linearGradient id="paint8_linear_258_58" x1="98.856" x2="101.569" y1="160.71" y2="6.606" gradientUnits="userSpaceOnUse">
      <stop offset=".229" stop-color="#01FFBE"/>
      <stop offset="1" stop-color="#57F"/>
    </linearGradient>
    <linearGradient id="paint9_linear_258_58" x1="108.091" x2="128.286" y1="30.846" y2="30.846" gradientUnits="userSpaceOnUse">
      <stop stop-color="#40D5E6"/>
      <stop offset="1" stop-color="#57F"/>
    </linearGradient>
    <linearGradient id="paint10_linear_258_58" x1="108.091" x2="126.629" y1="41.555" y2="41.555" gradientUnits="userSpaceOnUse">
      <stop stop-color="#40D5E6"/>
      <stop offset="1" stop-color="#57F"/>
    </linearGradient>
    <linearGradient id="paint11_linear_258_58" x1="108.091" x2="124.131" y1="36.202" y2="36.202" gradientUnits="userSpaceOnUse">
      <stop stop-color="#40D5E6"/>
      <stop offset="1" stop-color="#57F"/>
    </linearGradient>
    <linearGradient id="paint12_linear_258_58" x1="86.422" x2="86.422" y1="51.716" y2="29.538" gradientUnits="userSpaceOnUse">
      <stop stop-color="#7DB3E0"/>
      <stop offset="1" stop-color="#fff"/>
    </linearGradient>
    <linearGradient id="paint14_linear_258_58" x1="85.686" x2="87.45" y1="18.777" y2="45.772" gradientUnits="userSpaceOnUse">
      <stop stop-color="#01FFBE"/>
      <stop offset="1" stop-color="#57F"/>
    </linearGradient>
    <linearGradient id="paint15_linear_258_58" x1="85.686" x2="87.45" y1="18.777" y2="45.772" gradientUnits="userSpaceOnUse">
      <stop stop-color="#01FFBE"/>
      <stop offset="1" stop-color="#57F"/>
    </linearGradient>
    <radialGradient id="paint13_radial_258_58" cx="0" cy="0" r="1" gradientTransform="translate(124.518 79.785) scale(63.3961)" gradientUnits="userSpaceOnUse">
      <stop offset=".16" stop-color="#90C2E8"/>
      <stop offset=".581" stop-color="#47AFFF"/>
      <stop offset="1" stop-color="#6783F5"/>
    </radialGradient>
  </defs>
</svg>
