<svg xmlns="http://www.w3.org/2000/svg" width="43" height="32" fill="none" viewBox="0 0 43 32">
  <path fill="#131313" d="M30.044 17.333l-2.683 2.331a1.33 1.33 0 00.809 2.297c.346.03.69-.075.96-.292l5.375-4.666A1.335 1.335 0 0034.963 16a1.324 1.324 0 00-.458-1.003l-5.375-4.666a1.344 1.344 0 00-.98-.342 1.351 1.351 0 00-.931.453 1.331 1.331 0 00-.188 1.482c.08.157.192.298.328.412l2.687 2.33h-9.89c-.356 0-.698.141-.95.391a1.328 1.328 0 000 1.886c.252.25.594.39.95.39h9.888zM0 26.667c0 1.414.566 2.77 1.574 3.77A5.396 5.396 0 005.375 32h32.25a5.396 5.396 0 003.8-1.562A5.312 5.312 0 0043 26.667V5.333a5.312 5.312 0 00-1.574-3.77A5.396 5.396 0 0037.625 0H5.375a5.396 5.396 0 00-3.8 1.562A5.312 5.312 0 000 5.333v21.334zm16.125 2.666V2.667h21.5c.713 0 1.396.28 1.9.78s.788 1.18.788 1.886v21.334c0 .707-.284 1.385-.788 1.885s-1.187.781-1.9.781h-21.5z"/>
</svg>
