<svg xmlns="http://www.w3.org/2000/svg" width="45" height="45" fill="none" viewBox="0 0 45 45">
  <path fill="#FF5252" fill-rule="evenodd" d="M22.5 5V0C34.926 0 45 10.073 45 22.5 45 34.926 34.926 45 22.5 45v-5C32.165 40 40 32.165 40 22.5S32.165 5 22.5 5z" clip-rule="evenodd"/>
  <path fill="#16C79A" fill-rule="evenodd" d="M22.5 40v5C10.074 45 0 34.926 0 22.5S10.074 0 22.5 0v5C12.835 5 5 12.835 5 22.5S12.835 40 22.5 40z" clip-rule="evenodd"/>
  <path fill="#1F1F1F" d="M26.231 23.405l-2.682 2.35a1.345 1.345 0 001.768 2.02l5.375-4.703a1.343 1.343 0 000-2.022l-5.375-4.704a1.343 1.343 0 10-1.77 2.022l2.687 2.35h-9.89a1.344 1.344 0 000 2.687h9.887z"/>
</svg>
