<svg xmlns="http://www.w3.org/2000/svg" width="27" height="20" fill="none" viewBox="0 0 27 20">
  <path fill="#8A8A8A" d="M26.946 9.69a15.153 15.153 0 00-5.286-6.879A14.924 14.924 0 0013.5 0a14.924 14.924 0 00-8.16 2.811 15.153 15.153 0 00-5.286 6.88.918.918 0 000 .618 15.153 15.153 0 005.286 6.88A14.924 14.924 0 0013.5 20a14.923 14.923 0 008.16-2.811 15.152 15.152 0 005.286-6.88.918.918 0 000-.618zM13.5 18.183c-4.77 0-9.81-3.573-11.637-8.182C3.69 5.39 8.73 1.818 13.5 1.818c4.77 0 9.81 3.573 11.637 8.182-1.827 4.61-6.867 8.182-11.637 8.182z"/>
  <path fill="#8A8A8A" d="M13.5 5a5.898 5.898 0 00-3.056.843A5.136 5.136 0 008.42 8.087a4.58 4.58 0 00-.313 2.889c.212.97.736 1.86 1.505 2.56a5.69 5.69 0 002.816 1.368 6.012 6.012 0 003.178-.285 5.42 5.42 0 002.468-1.841A4.683 4.683 0 0019 10c0-1.326-.58-2.598-1.61-3.536C16.357 5.527 14.958 5 13.5 5zm0 8.333a3.933 3.933 0 01-2.037-.561 3.425 3.425 0 01-1.35-1.496 3.053 3.053 0 01-.21-1.926c.142-.647.492-1.24 1.004-1.707a3.793 3.793 0 011.878-.912 4.008 4.008 0 012.118.19c.67.252 1.243.679 1.646 1.227.403.548.618 1.193.618 1.852 0 .884-.387 1.732-1.074 2.357-.688.625-1.62.976-2.593.976z"/>
</svg>
