<svg xmlns="http://www.w3.org/2000/svg" width="32" height="32" fill="none" viewBox="0 0 32 32">
  <path fill="#464646" stroke="#464646" stroke-width=".4" d="M16.006.8a15.174 15.174 0 00-8.039 2.292A15.213 15.213 0 003.974 25.3a15.185 15.185 0 0015.07 5.588 15.18 15.18 0 007.408-3.876 15.203 15.203 0 004.236-7.212l.064-.25H26.455l-.047.133a11.034 11.034 0 01-19.422 2.694 11.058 11.058 0 013.28-15.82 11.03 11.03 0 015.74-1.607 10.88 10.88 0 017.627 3.137l-5.886 5.897-.341.341H31.2V.517l-.341.342-4.263 4.265A15.118 15.118 0 0016.006.8zm0 0s0 0 0 0V1 .8s0 0 0 0z"/>
</svg>
