<svg xmlns="http://www.w3.org/2000/svg" width="40" height="40" fill="none" viewBox="0 0 40 40">
  <path fill="url(#paint0_linear_258_357)" fill-rule="evenodd" d="M20 40c11.046 0 20-8.954 20-20S31.046 0 20 0 0 8.954 0 20s8.954 20 20 20zm3.318-26.032h2.42a8.334 8.334 0 102.195 5.637H29.6a10 10 0 11-18.374-5.47 10 10 0 0115.142-1.898v-1.316a.833.833 0 111.667 0v3.88a.833.833 0 01-.834.833h-3.883a.833.833 0 010-1.667z" clip-rule="evenodd"/>
  <defs>
    <linearGradient id="paint0_linear_258_357" x1="0" x2="40" y1="20" y2="20" gradientUnits="userSpaceOnUse">
      <stop stop-color="#17C79A"/>
      <stop offset="1" stop-color="#00FFBE"/>
    </linearGradient>
  </defs>
</svg>
