<svg xmlns="http://www.w3.org/2000/svg" width="31" height="33" fill="none" viewBox="0 0 31 33">
  <path stroke="#1F1F1F" stroke-linecap="square" stroke-linejoin="round" stroke-width="2" d="M8.531 7.5c1.612-1.232 3.622-1.97 5.752-1.964l2.199.004c5.016.013 9.38 4.092 9.44 9.07v5.727c0 1.195.152 2.362.797 3.355l.43.663c.655 1.003-.049 2.35-1.226 2.35H4.878c-1.177 0-1.882-1.346-1.227-2.35l.43-.663c.647-.993.797-2.159.797-3.353v-5.73a8.76 8.76 0 011.414-4.686"/>
  <path stroke="#1F1F1F" stroke-linecap="round" stroke-linejoin="round" stroke-width="2" d="M19.9 26.704a4.554 4.554 0 01-1.318 3.208A4.482 4.482 0 0115.4 31.24a4.482 4.482 0 01-3.181-1.328 4.555 4.555 0 01-1.319-3.208M15.4 1c.796 0 1.56.319 2.122.886.562.567.879 1.336.879 2.138v1.512h-6V4.024c0-.802.316-1.571.878-2.138A2.988 2.988 0 0115.4 1z"/>
  <path stroke="#1F1F1F" stroke-width="2" d="M2.107 2.293l28 28"/>
  <path stroke="#F5F5F5" stroke-width="2" d="M.707 3.693l28 28"/>
</svg>
