<svg xmlns="http://www.w3.org/2000/svg" width="33" height="34" fill="none" viewBox="0 0 33 34">
  <path fill="#000" d="M19.242 33.399h-6.079a1.67 1.67 0 01-1.631-1.313l-.68-3.146A13.357 13.357 0 018.29 27.46l-3.068.977a1.67 1.67 0 01-1.954-.757L.221 22.417a1.68 1.68 0 01.323-2.069l2.38-2.17a13.526 13.526 0 010-2.96l-2.38-2.166a1.68 1.68 0 01-.323-2.07l3.04-5.266a1.67 1.67 0 011.953-.756l3.068.977c.408-.3.832-.581 1.27-.835.422-.237.856-.453 1.3-.645l.681-3.143A1.67 1.67 0 0113.163 0h6.079a1.67 1.67 0 011.63 1.314l.688 3.145a13.672 13.672 0 012.563 1.481l3.07-.977a1.67 1.67 0 011.952.757l3.04 5.265c.387.68.253 1.54-.323 2.069l-2.38 2.17a13.53 13.53 0 010 2.96l2.38 2.171c.576.531.71 1.39.322 2.07l-3.04 5.264a1.67 1.67 0 01-1.953.757l-3.068-.977a13.326 13.326 0 01-2.561 1.48l-.69 3.137a1.67 1.67 0 01-1.63 1.313zm-3.046-23.38a6.68 6.68 0 100 13.36 6.68 6.68 0 000-13.36z"/>
</svg>
