<svg xmlns="http://www.w3.org/2000/svg" width="32" height="32" fill="none" viewBox="0 0 32 32">
  <path fill="#0CE2A2" d="M19.002 32h-6.003a1.68 1.68 0 01-1.034-.353 1.594 1.594 0 01-.577-.905l-.671-3.014a13.297 13.297 0 01-2.532-1.42l-3.029.937c-.359.11-.746.1-1.096-.033a1.636 1.636 0 01-.833-.692L.219 21.478a1.569 1.569 0 01-.199-1.045c.058-.36.24-.69.517-.937l2.35-2.08a12.576 12.576 0 010-2.835l-2.35-2.075a1.596 1.596 0 01-.517-.938 1.57 1.57 0 01.199-1.046l3-5.045c.189-.317.483-.56.834-.693a1.697 1.697 0 011.096-.032l3.03.936c.402-.288.821-.557 1.253-.8.417-.227.846-.434 1.285-.618l.673-3.01c.08-.357.283-.676.576-.906A1.68 1.68 0 0112.999 0h6.003c.376 0 .74.125 1.033.354.293.23.496.549.576.905l.68 3.013a13.665 13.665 0 012.531 1.42l3.031-.937c.359-.11.745-.099 1.096.033.35.132.644.376.832.692l3.002 5.045c.382.651.25 1.475-.319 1.982l-2.35 2.08c.107.942.107 1.893 0 2.835l2.35 2.08c.57.51.701 1.332.319 1.983L28.78 26.53c-.188.316-.482.56-.833.692a1.697 1.697 0 01-1.096.032l-3.03-.936a13.265 13.265 0 01-2.53 1.418l-.68 3.006c-.081.357-.284.675-.577.904a1.68 1.68 0 01-1.033.354zM15.994 9.6a6.7 6.7 0 00-4.665 1.875A6.305 6.305 0 009.397 16c0 1.697.695 3.325 1.932 4.526a6.7 6.7 0 004.665 1.874 6.7 6.7 0 004.664-1.874A6.305 6.305 0 0022.59 16a6.305 6.305 0 00-1.932-4.525A6.7 6.7 0 0015.994 9.6z"/>
</svg>
