<svg xmlns="http://www.w3.org/2000/svg" width="583" height="316" fill="none" viewBox="0 0 583 316">
  <path fill="#C1FBE6" d="M559.158 315.556c-34.293 0-533.862.103-534.153-.649l-.049-.095s-.05-.092-.05-.139c-.19-.377-76.972-106.276 42.394-179.995 46.706-28.845-2.923-47.886 34.217-79.998 42.684-36.903 89.264 3.916 136.725-12.815 8.387-2.955 16.8-7.71 25.225-15.005 4.741-4.102 9.939-7.69 15.501-10.789.853-.476 1.715-.941 2.586-1.395a110.148 110.148 0 0110.342-4.705c2.39-.943 4.824-1.817 7.304-2.622h.002a137.32 137.32 0 0112.106-3.305c5.862-1.32 11.9-2.303 18.056-2.97a181.11 181.11 0 018.119-.694c53.031-3.341 112.713 15.456 143.511 42.93 6.202 5.53 34.397 34.157 12.172 73.506-14.035 24.842 44.756 48.569 65.647 76.937 53.112 72.129.826 120.862.345 121.803z"/>
  <path fill="#fff" d="M143.888 268.238s3.018-16.401-9.849-18.23c0 0-8.706-.151-13.773 3.215 0 0 14.698 8.133 13.012 10.771-1.685 2.638-15.724-10.241-15.724-10.241s-15.479 7.096-18.875 12.097c0 0 18.49 2.957 16.209 5.1-2.284 2.141-21.668-.042-21.668-.042s-12.286 10.241-6.719 18.125c5.57 7.884 11.762 7.717 13.699 6.297 1.938-1.42 11.335-13.045 12.584-11.508 1.248 1.537-2.806 11.284-7.748 14.501 0 0 15.785 5.001 20.394-1.768 4.608-6.768 2.331-11.928 5.256-16.06 2.926-4.132 6.328-6.103 5.763-3.294-.565 2.808-6.724 8.796-6.658 14.143.067 5.348-.396 9.248 5.636 4.413 6.033-4.835 13.963-15.909 11.213-21.713l-2.752-5.806z"/>
  <path fill="#CCC" d="M93.335 285.361s36.21-22.946 50.553-17.123c0 0 4.962 4.359 13.4 6.051l2.244 1.858s-10.356-3.029-12.892-2.103c0 0-4.046-15.191-53.305 11.317z"/>
  <path fill="#82B378" d="M157.288 274.289s11.373 1.251 18.038 11.42l-1.368.969s-8.862-9.372-15.923-10.947c-7.061-1.575-.747-1.442-.747-1.442z"/>
  <path fill="#fff" d="M156.656 93.512s-.884 20.94-4.775 20.535c-3.893-.404 2.669-23.26 2.669-23.26s-16.589-13.3-24.082-14.29c0 0 7.027 22.277 3.355 20.926-3.672-1.348-12.063-24.19-12.063-24.19s-18.324-7.982-24.032 2.635c-5.71 10.616-2.062 17.433.61 18.799 2.67 1.366 20.929 5.349 19.907 7.601-1.022 2.251-14.192 3.176-20.553-.537 0 0 3.226 20.4 13.375 21.758 10.148 1.357 14.649-4.067 20.904-3.115 6.256.953 10.362 3.647 6.906 4.586-3.456.939-13.6-2.584-19.545.481-5.945 3.062-10.567 4.727-1.787 8.754 8.78 4.026 25.603 6.681 30.558.368.216-.274.423-.537.619-.789-.336.54-.619.789-.619.789 1.472 1.384 2.923 6.7 3.85 10.735.108.674.308 1.622.632 2.919.12.579.212 1.054.275 1.382 1.361 8.872-3.621 22.492-3.621 22.492l1.848.984c7.65-13.119 2.695-26.501 2.695-26.501-2.824-10.355-.72-18.327-.72-18.327s20.036-5.803 14.89-21.174c0 .003-4.698-9.793-11.296-13.561zM476.863 204.357s-29.685 11.787-27.146 17.168c2.538 5.379 32.128-15.516 32.128-15.516s27.468 17.114 32.66 27.364c0 0-35.583 1.112-31.796 5.702 3.785 4.59 40.866 5.15 40.866 5.15s20.689 22.277 8.279 35.798c-12.408 13.521-24.046 11.715-27.354 8.567-3.308-3.148-18.213-27.335-20.936-24.737-2.725 2.597 2.559 21.953 11.098 29.213 0 0-30.974 5.619-38.026-8.257-7.052-13.874-1.508-23.055-6.022-31.55-4.513-8.495-10.452-13.034-10.067-7.601.385 5.431 10.549 18.21 9.129 28.276-1.42 10.066-1.494 17.532-11.696 6.961-10.203-10.572-22.478-33.368-15.882-43.649l.825-1.285c-.605.753-.825 1.285-.825 1.285-2.732-1.413-11.11-.825-17.379-.128-1.026.184-2.489.371-4.516.557-.893.122-1.62.227-2.126.301-13.45 2.505-30.545 16.494-30.545 16.494l-2.344-2.155c15.031-17.565 36.775-17.179 36.775-17.179 16.318-1.152 26.73-8.174 26.73-8.174s-1.717-31.652 22.986-31.996c-.007.004 16.449 1.82 25.184 9.391z"/>
  <path fill="#20C9B5" d="M157.286 314.54h232.395l21.116-253.921-245.498.222c-2.129 0-11.64-.225-12.171 8.46l-9.55 225.982c-.369 10.486 5.875 19.257 13.708 19.257z"/>
  <path fill="#fff" d="M326.481 79.004s4.328-36.187 22.899-57.78c2.468-2.87 7.191-1.043 7.112 2.738l-.004.191c-.243 6.457-21.035 33.684-30.007 54.851z"/>
  <path fill="#fff" d="M324.225 89.364s18.505-45.23 50.114-65.233c1.928-1.22 4.539-.778 5.83 1.1.842 1.223 1.22 3.135.275 6.116-2.518 7.959-37.77 34.736-56.219 58.017zM136.755 229.928s22.791-12.743 12.156-30.039c0 0-8.508-10.621-17.626-13.351 0 0 4.863 25.791 0 26.398-4.863.607-3.344-29.128-3.344-29.128s-24.007-11.53-33.427-10.62c0 0 14.89 25.184 10.03 24.578-4.863-.607-21.575-26.095-21.575-26.095s-24.615-4.552-28.564 10.014c-3.952 14.564 2.43 21.846 6.077 22.756 3.648.91 27.046.606 26.438 3.642-.608 3.033-16.409 7.888-25.223 5.158 0 0 9.724 23.972 22.487 22.756 12.763-1.213 16.714-9.102 24.615-9.708 7.9-.607 13.674 1.516 9.723 3.642-3.951 2.123-17.322.696-23.704 6.113-6.381 5.417-11.548 8.754.304 11.183 11.852 2.426 33.123.909 37.378-8.192l4.255-9.107z"/>
  <path fill="#CCC" d="M65.647 186.235s63.815 20.632 71.108 43.693c0 0-.303 10.318 6.078 22.149v4.552s-6.685-15.473-10.333-17.599c0 .002 14.282-20.026-66.853-52.795z"/>
  <path fill="#82B378" d="M142.833 252.077s9.842 14.921 4.23 33.086l-2.531-.678s2.457-20.008-2.691-30.069c-5.149-10.061.992-2.339.992-2.339z"/>
  <path fill="#DBFFF8" d="M452.907 314.385l-246.748.227c-4.607.003-8.686-4.228-9.516-9.87L168.74 114.993l-1.703-11.577-4.393-29.876c-.99-6.736 2.993-12.69 8.495-12.697l246.748-.224c4.607-.005 8.689 4.226 9.517 9.87l4.842 32.927 1.665 11.337L461.4 301.687c.992 6.735-2.993 12.694-8.493 12.698z"/>
  <path fill="#45ECC1" d="M432.246 103.416H167.037l-4.393-29.876c-.99-6.736 2.993-12.69 8.495-12.697l246.748-.224c4.607-.005 8.689 4.226 9.517 9.87l4.842 32.927z"/>
  <path fill="#fff" d="M331.269 91.34l2.057-.017-.048-5.992 3.026 5.407 2.924-5.455.048 5.992 2.072-.017-.077-9.618-2.072.017-2.924 5.456-3.026-5.408-2.058.016.078 9.618zm15.585-.127l2.086-.016-.028-3.472 3.703-6.176-2.31.018-2.458 4.234-2.428-4.194-2.408.02 3.815 6.115.028 3.471zm7.58-.06l2.058-.017-.048-5.992 3.025 5.408 2.924-5.456.049 5.992 2.072-.017-.078-9.618-2.072.017-2.924 5.456-3.026-5.408-2.058.017.078 9.617zm19.835-7.917l-.015-1.862-7.406.06.078 9.618 7.406-.06-.015-1.862-5.334.043-.017-2.114 4.83-.039-.016-1.862-4.829.04-.016-1.919 5.334-.043zm2.237 7.738l3.444-.027c3.233-.026 5.513-2.047 5.491-4.86-.023-2.815-2.335-4.784-5.569-4.758l-3.444.028.078 9.617zm2.042-1.892l-.047-5.866 1.652-.013c1.848-.015 3.146 1.192 3.16 2.9.013 1.722-1.265 2.95-3.113 2.966l-1.652.013zm12.191 1.946c2.352-.02 3.728-1.249 3.713-3.083-.014-1.777-1.391-2.382-3.467-2.828-1.486-.324-2.062-.543-2.068-1.243-.004-.574.524-1.04 1.406-1.047.924-.008 1.893.362 2.752 1.041l1.066-1.492c-.986-.832-2.208-1.312-3.776-1.3-2.1.017-3.546 1.247-3.532 3.025.015 1.862 1.462 2.424 3.495 2.87 1.473.324 2.035.53 2.04 1.215.005.602-.523 1.083-1.559 1.091-1.218.01-2.258-.458-3.174-1.234l-1.179 1.423c1.129 1.027 2.617 1.575 4.283 1.562z"/>
  <path fill="#fff" d="M252.247 275.053H225.11c-2.275 0-4.404-1.84-4.757-4.112l-4.219-27.096c-.354-2.271 1.204-4.112 3.476-4.112h27.138c2.275 0 4.403 1.841 4.757 4.112l4.219 27.096c.355 2.272-1.202 4.112-3.477 4.112zM297.758 275.053H270.62c-2.275 0-4.403-1.84-4.757-4.112l-4.219-27.096c-.353-2.271 1.204-4.112 3.477-4.112h27.137c2.275 0 4.404 1.841 4.757 4.112l4.219 27.096c.354 2.272-1.203 4.112-3.476 4.112zM244.441 224.185h-27.137c-2.275 0-4.404-1.84-4.757-4.111l-4.219-27.097c-.354-2.271 1.203-4.111 3.476-4.111h27.138c2.275 0 4.403 1.84 4.757 4.111l4.219 27.097c.355 2.271-1.202 4.111-3.477 4.111z" opacity=".3"/>
  <path fill="#0EAF9C" d="M231.518 200.689l8.256 1.103-4.822 5.57 2.793 7.821-7.872-3.66-6.532 3.729-.04-7.832-6.828-5.514 7.845-1.181 2.311-7.139 4.889 7.103z"/>
  <path fill="#fff" d="M418.673 174.776h-27.138c-2.275 0-4.404-1.84-4.757-4.111l-4.219-27.097c-.353-2.271 1.204-4.111 3.477-4.111h27.137c2.275 0 4.404 1.84 4.757 4.111l4.219 27.097c.356 2.271-1.201 4.111-3.476 4.111z" opacity=".3"/>
  <path fill="#0EAF9C" d="M224.428 267.079l6.231-15.894 8.202 8.835 2.693-3.541 8.898 10.58-26.024.02zM234.561 248.903c-.223-1.261.643-2.281 1.935-2.283 1.291 0 2.518 1.02 2.74 2.278.223 1.261-.643 2.281-1.935 2.283-1.291.002-2.518-1.018-2.74-2.278z"/>
  <path fill="#fff" d="M343.266 275.053h-27.138c-2.275 0-4.403-1.84-4.757-4.112l-4.219-27.096c-.353-2.271 1.204-4.112 3.477-4.112h27.137c2.275 0 4.404 1.841 4.757 4.112l4.219 27.096c.356 2.272-1.201 4.112-3.476 4.112z" opacity=".3"/>
  <path fill="#0EAF9C" d="M315.602 267.079l6.228-15.894 8.205 8.835 2.691-3.541 8.899 10.58-26.023.02zM325.732 248.903c-.223-1.261.644-2.281 1.935-2.283 1.292 0 2.518 1.02 2.741 2.278.223 1.261-.643 2.281-1.935 2.283-1.289.002-2.518-1.018-2.741-2.278z"/>
  <path fill="#fff" d="M380.97 224.185h-27.137c-2.275 0-4.404-1.84-4.757-4.111l-4.219-27.097c-.353-2.271 1.204-4.111 3.476-4.111h27.138c2.275 0 4.404 1.84 4.757 4.111l4.219 27.097c.353 2.271-1.204 4.111-3.477 4.111z" opacity=".3"/>
  <path fill="#0EAF9C" d="M352.06 214.65l6.228-15.894 8.205 8.832 2.691-3.538 8.899 10.58-26.023.02zM362.19 196.471c-.223-1.258.644-2.28 1.935-2.283 1.292 0 2.518 1.021 2.741 2.279.223 1.258-.643 2.28-1.935 2.282-1.292.003-2.518-1.017-2.741-2.278z"/>
  <path fill="#fff" d="M282.146 174.776h-27.138c-2.275 0-4.403-1.84-4.757-4.111l-4.219-27.097c-.353-2.271 1.204-4.111 3.477-4.111h27.137c2.275 0 4.404 1.84 4.757 4.111l4.219 27.097c.354 2.271-1.204 4.111-3.476 4.111z" opacity=".3"/>
  <path fill="#0EAF9C" d="M257.13 146.646l3.697 20.94 14.469-10.481-18.166-10.459z"/>
  <path fill="#0CE2A2" d="M335.46 224.185h-27.138c-2.274 0-4.403-1.84-4.756-4.111l-4.22-27.097c-.353-2.271 1.204-4.111 3.477-4.111h27.138c2.274 0 4.403 1.84 4.756 4.111l4.22 27.097c.355 2.271-1.202 4.111-3.477 4.111z"/>
  <path fill="#fff" d="M311.335 196.056l3.698 20.94 14.468-10.484-18.166-10.456z"/>
  <path fill="#fff" d="M426.479 224.185h-27.138c-2.275 0-4.403-1.84-4.757-4.111l-4.219-27.097c-.353-2.271 1.204-4.111 3.477-4.111h27.137c2.275 0 4.404 1.84 4.757 4.111l4.219 27.097c.356 2.271-1.201 4.111-3.476 4.111zM388.776 275.053h-27.137c-2.275 0-4.404-1.84-4.757-4.112l-4.219-27.096c-.354-2.271 1.204-4.112 3.476-4.112h27.138c2.275 0 4.404 1.841 4.757 4.112l4.219 27.096c.353 2.272-1.204 4.112-3.477 4.112zM327.654 174.776h-27.137c-2.275 0-4.404-1.84-4.757-4.111l-4.22-27.097c-.353-2.271 1.204-4.111 3.477-4.111h27.138c2.274 0 4.403 1.84 4.756 4.111l4.22 27.097c.355 2.271-1.202 4.111-3.477 4.111z" opacity=".3"/>
  <path fill="#0EAF9C" d="M319.643 152.236l-18.071.014a.732.732 0 11-.003-1.463l18.072-.013a.73.73 0 11.002 1.462zM320.372 156.364l-18.071.013a.732.732 0 11-.003-1.462l18.072-.014c.355 0 .659.254.722.605a.73.73 0 01-.72.858zM321.101 160.493l-18.071.014a.733.733 0 01-.002-1.463l18.071-.013a.731.731 0 11.002 1.462zM418.468 201.646l-18.072.013a.732.732 0 11-.002-1.462l18.072-.014c.355 0 .659.254.722.604a.733.733 0 01-.72.859zM419.197 205.773l-18.072.014a.732.732 0 11-.002-1.463l18.072-.013a.732.732 0 11.002 1.462zM419.926 209.903l-18.072.013a.732.732 0 01-.002-1.463l18.072-.013c.355 0 .659.254.722.604a.734.734 0 01-.72.859zM289.747 253.989l-18.072.014a.732.732 0 11-.002-1.463l18.072-.013a.732.732 0 11.002 1.462zM290.476 258.119l-18.072.013a.732.732 0 11-.002-1.462l18.072-.014a.732.732 0 11.002 1.463zM291.203 262.246l-18.072.014a.731.731 0 11-.002-1.463l18.071-.013c.356 0 .66.254.723.604a.729.729 0 01-.72.858zM380.763 253.989l-18.071.014a.733.733 0 01-.002-1.463l18.071-.013c.356 0 .659.254.722.604a.729.729 0 01-.72.858zM381.492 258.119l-18.071.013a.731.731 0 11-.002-1.462l18.071-.014c.356 0 .66.254.723.605a.73.73 0 01-.721.858zM382.221 262.246l-18.071.014a.731.731 0 11-.002-1.463l18.071-.013c.356 0 .659.254.722.604a.729.729 0 01-.72.858z"/>
  <path fill="#fff" d="M289.952 224.185h-27.138c-2.275 0-4.404-1.84-4.757-4.111l-4.219-27.097c-.353-2.271 1.204-4.111 3.477-4.111h27.137c2.275 0 4.404 1.84 4.757 4.111l4.219 27.097c.353 2.271-1.204 4.111-3.476 4.111z" opacity=".3"/>
  <path fill="#0EAF9C" d="M274.331 216.719c-.025 0-.05 0-.074-.002-.507-.024-1.049-.323-1.375-.757-2.901-3.851-6.402-7.455-10.407-10.715-.604-.492-.779-1.204-.392-1.593s1.19-.303 1.796.187c3.406 2.77 6.469 5.781 9.138 8.971 1.483-7.066 4.903-13.4 9.979-18.428.39-.387 1.195-.299 1.798.193s.777 1.207.385 1.593c-5.4 5.35-8.854 12.234-9.986 19.907-.057.393-.394.642-.862.644z"/>
  <path fill="#0FBC82" d="M227 126.113h-26.958c-1.654 0-3.253-1.321-3.571-2.95-.317-1.629.765-2.95 2.419-2.95h26.958c1.654 0 3.254 1.321 3.571 2.95.319 1.629-.765 2.95-2.419 2.95zM271.171 126.113h-26.957c-1.654 0-3.254-1.321-3.571-2.95-.317-1.629.765-2.95 2.419-2.95h26.957c1.654 0 3.254 1.321 3.571 2.95.32 1.629-.765 2.95-2.419 2.95zM319.038 126.113H292.08c-1.654 0-3.253-1.321-3.571-2.95-.317-1.629.765-2.95 2.419-2.95h26.958c1.654 0 3.254 1.321 3.571 2.95.317 1.629-.765 2.95-2.419 2.95zM364.908 126.113h-26.957c-1.654 0-3.254-1.321-3.571-2.95-.317-1.629.765-2.95 2.419-2.95h26.957c1.654 0 3.254 1.321 3.571 2.95.32 1.629-.762 2.95-2.419 2.95zM410.831 126.113h-26.958c-1.654 0-3.254-1.321-3.571-2.95-.317-1.629.765-2.95 2.419-2.95h26.958c1.653 0 3.253 1.321 3.571 2.95.317 1.629-.765 2.95-2.419 2.95z"/>
  <g>
    <path fill="#0CE2A2" d="M373.165 174.776h-27.138c-2.275 0-4.404-1.84-4.757-4.111l-4.219-27.097c-.353-2.271 1.204-4.111 3.477-4.111h27.137c2.275 0 4.404 1.84 4.757 4.111l4.219 27.097c.353 2.271-1.204 4.111-3.476 4.111z"/>
  </g>
  <path fill="#fff" d="M357.544 167.445c-.025 0-.05 0-.075-.003-.506-.024-1.048-.323-1.375-.757-2.9-3.851-6.404-7.455-10.407-10.715-.603-.492-.778-1.204-.391-1.593.387-.388 1.19-.303 1.795.189 3.407 2.77 6.47 5.781 9.138 8.972 1.483-7.067 4.904-13.4 9.98-18.429.389-.386 1.195-.301 1.798.194.603.492.776 1.206.385 1.593-5.401 5.349-8.855 12.233-9.987 19.906-.056.391-.393.641-.861.643z"/>
  <g>
    <path fill="#FFB27D" d="M494.138 193.831s1.897 5.833 1.735 7.167c-.162 1.335-1.355 5.892-2.205 7.06-.851 1.166-1.269-4.752-1.945-5.642-.672-.89-.137 2.229-.612 2.517-.474.289-1.464-2.294-1.89-3.207-.425-.91 1.04-4.271 1.044-6.612.005-2.343 3.873-1.283 3.873-1.283z"/>
    <path fill="#233862" d="M449.532 147.502c-.524-6.688 6.751-11.274 12.496-7.794.117.072.234.144.351.218 8.6 5.527 27.16 31.323 28.438 33.907 1.276 2.583 5.047 23.139 5.047 23.139s-4.658 1.701-6.836-.063c0 0-7.556-19.495-8.672-20.47-1.117-.975-30.221-17.28-30.468-23.394a167.69 167.69 0 00-.356-5.543z"/>
    <path fill="#7ACEAA" d="M377.177 148.136l2.357 6.761 46.508-16.168-2.357-6.76-46.508 16.167z"/>
    <path fill="#F9DDBF" d="M367.535 155.274l11.991-.378-2.356-6.76-9.635 7.138zM430.005 132.734l.457 1.308a2.975 2.975 0 01-1.834 3.786l-2.595.901-2.358-6.761 2.756-.959a2.81 2.81 0 013.574 1.725z"/>
    <path fill="#1C3051" d="M501.465 298.478s3.467 3.159 2.79 5.406c-.677 2.244-3.807 3.743-4.228 6.486-.423 2.744-2.115 4.242-3.637 4.242h-7.259s-1.12-1.93 1.587-2.514c2.707-.582 3.726-3.806 3.557-6.801-.169-2.993.255-6.985.255-6.985l5.751-1.33 1.184 1.496zM458.92 306.652s.623 7.192-.9 7.94l-19.485-.04s0-2.245 3.13-2.744c3.13-.498 8.628-2.327 9.559-6.403.93-4.076 7.696 1.247 7.696 1.247z"/>
    <path fill="#3F5E77" d="M442.471 205.065s1.028 12.607 2.234 27.76c1.643 20.585 3.616 45.868 3.812 50.658.338 8.318 1.692 21.623 1.692 21.623s3.214 3.161 9.643 1.829c0 0 5.729-18.992 7.367-39.087.025-.331.052-.661.076-.994 1.524-20.457 3.891-63.534 3.891-63.534l-28.715 1.745z"/>
    <path fill="#28475B" d="M442.471 205.065s1.028 12.607 2.234 27.759l22.514 35.021c.025-.33.052-.66.076-.993 1.524-20.457 3.891-63.535 3.891-63.535l-28.715 1.748z"/>
    <path fill="#3F5E77" d="M447.163 206.562s18.523 45.655 30.704 67.109c12.18 21.455 15.985 27.443 15.985 27.443s6.978-2.744 7.613-4.615c0 0-4.658-41.42-12.815-51.517-4.609-5.705-10.023-22.828-10.277-28.815-.254-5.988-1.649-17.838-1.649-17.838l-29.561 8.233z"/>
    <path fill="#FFB27D" d="M463.135 138.077s-12.41 6.284-19.681 4.188c0 0 4.276-3.161 4.181-7.763-.049-2.478-.382-3.846-.382-3.846l4.759-3.891 4.512-3.726c-.156 10.225 6.611 15.038 6.611 15.038z"/>
    <path fill="#2B478B" d="M475.463 201.942c-5.011 3.029-9.754 5.305-15.305 6.583-6.549 1.551-14.598 1.095-17.291 1.504-.277.038-.538-.036-.785-.198-.212-.108-1.4-8.084-2.59-18.15a16.006 16.006 0 01-.131-1.224l-.018-.135a381.833 381.833 0 01-1.22-12.214 271.952 271.952 0 01-.686-9.407c-.207-3.748-.292-7.19-.207-10.021.038-1.294.113-2.458.23-3.467.708-5.879 3.519-10.081 6.163-13.211l2.194-2.491c2.545.161 5.142-.319 7.592-1.935 2.68-1.761 5.572-3.655 6.118-3.339 4.107 2.245 7.453 8.06 9.841 15.739 1.368 4.42 2.421 9.437 3.094 14.748.216 1.649.4 3.339.542 5.024.027.312.049.622.074.93.322 4.604.848 8.918 1.431 12.771.786 5.197 1.679 9.549 2.311 12.616.318 1.561.558 2.766.702 3.631.129.746-1.384 1.826-2.059 2.246z"/>
    <path fill="#ED985F" d="M456.688 126.946s-3.054 5.826-9.051 7.559c-.319-2.782-.382-3.847-.382-3.847l4.759-3.891 4.674.179z"/>
    <path fill="#FFB27D" d="M445.047 130.534s11.994 1.717 12.971-5.643c.976-7.361 3.181-12.095-4.435-13.501-7.617-1.407-9.481 1.211-10.412 3.59-.934 2.379-1.218 14.919 1.876 15.554z"/>
    <path fill="#2C3A64" d="M462.075 110.343c.105-.126.355-.232.911-.272 0 0-.45-.27-1.046-.272-.133-.771-.572-2.132-1.911-2.438 0 0 .725.366.835 1.189-1.575-1.553-4.908-2.64-14.055-1.737-12.054 1.191-7.923 8.83-6.341 9.719 1.582.89 5.466-1.712 8.382-1.539 2.917.173 3.553 4.364 4.555 4.921.999.557.591-.454 1.915-1.085 1.325-.629 1.496 1.579 1.138 3.024-.358 1.445 1.517 3.305 1.517 3.305l1.816-2.033c1.816-2.034 3.398-10.522 2.518-12.306-.079-.157-.156-.317-.234-.476z"/>
    <path fill="#233862" d="M458.267 159.334s-10.112 7.682-20.83 9.365c-.207-3.748-.292-7.19-.207-10.021l21.037.656z"/>
    <g>
      <path fill="#FFB27D" d="M396.168 149.421c-.159-.171-2.221-7.053-5.785-6.552-2.327.328-6.129 1.672-5.119 4.732.396 1.204 7.486 5.347 7.486 5.347l3.418-3.527z"/>
      <path fill="#2B478B" d="M459.516 144.489c5.765 3.445 5.297 12.023-.868 14.685-.126.054-.255.108-.381.16-9.493 3.801-41.302 3.979-44.151 3.523-2.849-.456-21.818-9.288-21.818-9.288s1.307-4.779 4.01-5.53c0 0 20.295 5.134 21.737 4.79 1.442-.346 31.606-14.599 36.741-11.263 1.359.883 3.02 1.901 4.73 2.923z"/>
    </g>
  </g>
  <g>
    <path fill="#FFB27D" d="M185.031 166.434s1.114-1.838 1.798-2.854c.682-1.015 2.041-2.282 2.39-1.957.346.326-1.044 1.672-.981 2.121.063.45 2.394-1.06 2.646-1.399.504-.681 1.838-1.416 2.003-.56.164.856-.828 3.548-1.278 4.323-.45.775-2.332 1.997-3.371 2.366-1.04.366-2.822 1.222-2.822 1.222l-.385-3.262z"/>
    <path fill="#163560" d="M130.925 150.679c-.77-1.483 16.789-6.819 17.068 7.808 0 0 32.893-.807 17.187-19.114-5.437-6.338-4.879-11.577-4.714-16.455.164-4.878-3.387-19.055-15.563-17.629 0 0-3.188-1.296-7.167.766-9.048 4.687-29.32 50.019-6.811 44.624z"/>
    <path fill="#3F5E77" d="M153.738 168.083s1.163 2.301 3.274 4.945c2.545 3.182 6.467 6.857 11.392 7.583 2.354.346 4.654-.159 6.769-1.096l.007-.003c5.981-2.651 10.479-8.749 10.479-8.749 1.055-2.871-.423-4.668-.423-4.668s-12.329 2.561-13.479 1.988c-1.15-.575-7.862-19.877-9.457-22.304-1.6-2.427-7.046-3.685-7.046-3.685l-1.516 25.989z"/>
    <path fill="#28475B" d="M157.012 173.028c2.545 3.181 6.467 6.857 11.392 7.583 2.354.346 4.654-.16 6.769-1.097-.234.032-6.208.769-8.589-3.487-2.43-4.34-5.056-11.231-8.665-8.935-1.558.993-1.488 3.458-.907 5.936z"/>
    <path fill="#2358A5" d="M108.67 298.276s-3.685 3.359-2.965 5.745c.72 2.386 4.045 3.977 4.496 6.893.45 2.916 2.247 4.507 3.865 4.507h7.714s1.19-2.051-1.685-2.671c-2.876-.618-3.963-4.047-3.783-7.228.18-3.182-.27-7.424-.27-7.424l-6.114-1.413-1.258 1.591zM139.867 299.702s-1.325 14.229.293 15.025l20.708-.043s0-2.386-3.325-2.916c-3.326-.531-9.17-2.474-10.158-6.806-.99-4.332-7.518-5.26-7.518-5.26z"/>
    <path fill="#FFB27D" d="M125.11 197.624c4.262-9.542 6.87-12.281 6.371-15.242-.372-2.205 1.127-41.101 1.127-41.101.506-.157 1.519-.297 2.072-.42 1.749-.389 3.196-1.614 3.796-3.299.725-2.028 1.303-5.023 1.29-8.776l.547.108 9.178 1.816s-.209 2.885-.216 5.601v.067a5.276 5.276 0 003.81 5.098c1.159.335 2.169.62 2.169.62s3.371 9.608 4.014 19.478c.644 9.87-6.129 14.159.052 33.882 6.31 20.144-36.564 7.441-34.21 2.168z"/>
    <path fill="#E8945B" d="M149.494 130.71s-.21 2.885-.216 5.601c-5.138-.144-7.851-4.824-8.965-7.417l9.181 1.816z"/>
    <path fill="#FFB27D" d="M151.208 133.282s-12.153.2-12.16-7.358c-.009-7.558-1.582-12.623 6.177-13.07 7.759-.447 9.269 2.436 9.888 4.957.616 2.523-.743 15.224-3.905 15.471z"/>
    <path fill="#163560" d="M150.758 112.668s-3.328 8.868-8.434 10.178c-5.105 1.312-7.322-.054-7.322-.054s3.918-3.107 4.73-8.531c.002.002 8.517-5.813 11.026-1.593z"/>
    <path fill="#163560" d="M149.935 113.389s2.468.921 3.483 2.719c.992 1.757 1.838 4.084 1.643 6.938 0 0 2.506-6.028-.311-9.437-2.988-3.617-4.815-.22-4.815-.22z"/>
    <path fill="#EBF3FA" d="M148.564 128.593s.84 1.101 2.516 1.023c1.35-.063 1.872-1.234 1.872-1.234s-2.482-.598-4.388.211z"/>
    <path fill="#3F5E77" d="M123.938 158.487s-.308 4.345 0 9.558c.205 3.455 3.706 8.084 4.204 9.229 1.246 2.872 2.65 3.339 2.65 3.339l10.873 2.66 3.824.935 12.056-3.595s5.491-15.305 3.285-23.919c-2.205-8.614-5.573-14.598-5.573-14.598s-9.838 9.619-22.649-.815l-8.67 17.206z"/>
    <path fill="#163560" d="M156.778 182.934s5.969 18.556 6.354 24.874c.383 6.318-11.413 89.749-11.888 92.661-.448 2.743-3.859 4.493-3.859 4.493s-1.571.924-3.809.292c-3.108-.876-4.091-1.925-4.091-1.925s-4.647-59.502-1.771-80.757c2.876-21.255 2.909-39.636 2.909-39.636h16.155v-.002z"/>
    <path fill="#1C468A" d="M131.481 182.381s-9.107 12.2-9.957 20.451c-.849 8.248-1.333 37.22-3.142 45.261-1.809 8.042-8.454 23.515-8.454 48.594 0 0 .691 1.438 2.824 2.204.682.245 1.596.483 2.484.686a3.91 3.91 0 004.368-2.07c4.494-9.032 18.805-38.166 19.539-44.214.519-4.281 5.038-32.606 14.896-49.226 2.367-3.99-1.451-19.859-1.451-19.859l-21.107-1.827z"/>
    <path fill="#fff" d="M148.834 128.795s.21.89 2.431.753c0 0 1.863-.115 1.807-1.094-.003 0-1.807-.697-4.238.341z"/>
    <path fill="#233862" d="M157.732 180.07s-2.397 1.894-7.158 1.988c-5.689.115-19.782-1.447-19.782-1.447s-.625 1.746-.601 3.593c0 0 17.212 4.334 27.185.633 0-.002 1.287-2.417.356-4.767z"/>
    <path fill="#fff" d="M149.343 184.02c0-1.618 1.163-2.933 2.594-2.933 1.432 0 2.595 1.317 2.595 2.933 0 1.617-1.163 2.932-2.595 2.932-1.431 0-2.594-1.315-2.594-2.932zm.86 0c0 1.143.778 2.073 1.734 2.073.957 0 1.735-.93 1.735-2.073 0-1.144-.778-2.074-1.735-2.074-.956 0-1.734.93-1.734 2.074z"/>
    <path fill="#0CE2A2" d="M112.256 183.418l17.636 15.333 21.019-24.103-17.636-15.333-21.019 24.103z"/>
    <path fill="#FFB27D" d="M134.771 183.482s6.856 1.052 6.836 2.584c-.021 1.533-1.418 4.301-2.804 4.521-1.76.278-5.259-4.256-5.259-4.256l1.227-2.849z"/>
    <path fill="#FFB27D" d="M134.915 183.844s2.297-.838 3.982-.492c1.686.346 3.243.092 2.86.703-.382.611-2.662.384-3.024.625-.362.24-.367.09-.367.09l-3.451-.926z"/>
    <path fill="#3F5E77" d="M132.61 141.279s-8.627.604-11.932 8.63c-3.308 8.025-9.582 21.501-9.582 23.768 0 2.267 3.504 9.257 22.327 13.275 0 0 1.946-2.045 1.829-3.663 0 0-11.748-10.077-11.717-11.254.061-2.227 1.927-5.168 12.241-15.471 2.804-2.8-3.166-15.285-3.166-15.285z"/>
    <path fill="#0CE2A2" d="M227.234 172.597l-27.151 8.834c-2.275.739-4.798-.476-5.632-2.716l-9.971-26.744a4.118 4.118 0 012.606-5.399l27.151-8.834c2.275-.74 4.797.476 5.632 2.716l9.971 26.744a4.115 4.115 0 01-2.606 5.399z"/>
    <path fill="#fff" d="M197.455 172.673l2.857-18.52 10.084 6.495 1.941-4.549 11.148 8.081-26.03 8.493zM203.733 150.513c-.491-1.233.159-2.577 1.451-2.997 1.292-.423 2.736.238 3.225 1.471.49 1.234-.16 2.578-1.452 2.998-1.291.422-2.734-.236-3.224-1.472z"/>
    <path fill="#FFB27D" d="M186.829 163.58s1.112-1.642 2.39-1.957a18.893 18.893 0 002.543-.856c.542.58-1.731 1.649-1.756 2.629-.024.98.333 2.588-1.125 2.777-1.458.187-2.052-2.593-2.052-2.593z"/>
  </g>
  <g>
    <path fill="#16C79A" d="M250.699 88.587l35.646 6.412-23.186-17.053-1.4 5.145-8.771 1.256-2.289 4.24z"/>
    <path fill="#fff" d="M286.345 95l-29.258-16.44-29.171-2.537 58.429 18.976zM263.158 77.946l23.187 17.053-17.482-25.966-5.705 8.913z"/>
  </g>
  <g>
    <path fill="#CCC" d="M53.295 271.62l-28.753 5.172 18.701-13.753 1.13 4.148 7.075 1.015 1.847 3.418z"/>
    <path fill="#fff" d="M24.542 276.792l23.598-13.261 23.53-2.044-47.128 15.305zM43.243 263.039l-18.701 13.753 14.1-20.942 4.601 7.189z"/>
  </g>
  <path fill="#0CE2A2" d="M168.238 304.765c0 .399.025.797.074 1.184a9.724 9.724 0 001.107 3.464 9.72 9.72 0 001.67 2.225 9.712 9.712 0 006.883 2.846H314.88c5.375 0 9.736-4.352 9.736-9.719a9.669 9.669 0 00-2.853-6.873 9.699 9.699 0 00-6.883-2.849H177.972c-5.375 0-9.734 4.352-9.734 9.722zM178.681 293.284h46.939c.822 0 1.495-.672 1.495-1.492s-.673-1.492-1.495-1.492h-46.939c-.821 0-1.494.672-1.494 1.492s.673 1.492 1.494 1.492z"/>
  <path fill="#163560" d="M181.275 295.043h5.088v-1.759h-5.088v1.759zM169.419 309.413a9.698 9.698 0 001.67 2.225 9.712 9.712 0 006.883 2.846h29.001v-5.071h-37.554z"/>
  <path fill="#1C468A" d="M342.737 301.916v5.693a6.877 6.877 0 01-6.883 6.875h-142.61a6.88 6.88 0 01-6.883-6.875v-5.693a6.876 6.876 0 016.881-6.873h142.612a6.875 6.875 0 016.883 6.873z"/>
  <path fill="#163560" d="M342.499 309.413a6.88 6.88 0 01-6.643 5.071H193.245a6.88 6.88 0 01-6.643-5.071h155.897z"/>
  <g>
    <path fill="#6C7AFF" d="M328.574 304.798c0 3.02 1.101 5.718 2.831 7.507l.117.119c1.339 1.332 3.038 2.13 4.885 2.13 2.887 0 10.043-4.35 14.478-7.237 2.21-1.44 3.744-2.516 3.744-2.516s-1.534-1.077-3.744-2.517c-4.435-2.892-11.591-7.239-14.478-7.239-.835 0-1.64.164-2.396.463-1.274.51-2.408 1.415-3.301 2.602-.986 1.3-1.688 2.938-1.983 4.756-.002.02-.009.043-.009.063-.094.6-.144 1.227-.144 1.869z"/>
    <path fill="#739AF0" d="M328.574 304.798c0 3.02 1.101 5.718 2.831 7.507l21.949-7.541-24.636-1.837a12.133 12.133 0 00-.144 1.871z" opacity=".7"/>
    <path fill="#ABC3EF" d="M330.71 298.105l21.897 5.97-18.596-8.572c-1.274.512-2.408 1.418-3.301 2.602z"/>
    <path fill="#0CE2A2" d="M349.456 304.798c0 1.162.596 2.15 1.429 2.517a147.622 147.622 0 003.744-2.517s-1.534-1.076-3.744-2.516c-.835.364-1.429 1.352-1.429 2.516z"/>
  </g>
  <path fill="#2B478B" d="M367.535 155.274l2.256-1.672s.727.65.779 1.672h-3.035z"/>
</svg>
